<?xml version="1.0" encoding="UTF-8"?>
<svg xmlns="http://www.w3.org/2000/svg" xmlns:xlink="http://www.w3.org/1999/xlink" version="1.1" viewBox="0 0 346 400">
  <defs>
    <style>
      .cls-1, .cls-2 {
        fill: #fdc90d;
      }

      .cls-1, .cls-3 {
        display: none;
      }

      .cls-4 {
        clip-path: url(#clippath);
      }
    </style>
    <clipPath id="clippath">
      <polygon class="cls-2" points="-.2 100 -.2 300 173 400 346.2 300 346.2 100 173 0 -.2 100"/>
    </clipPath>
  </defs>
  <!-- Generator: Adobe Illustrator 28.7.5, SVG Export Plug-In . SVG Version: 1.2.0 Build 176)  -->
  <g>
    <g id="Layer_1">
      <g id="Hexagons">
        <g id="Desert">
          <g>
            <polygon class="cls-2" points="-.2 100 -.2 300 173 400 346.2 300 346.2 100 173 0 -.2 100"/>
            <g class="cls-4">
              <g>
                <g>
                  <rect class="cls-2" x="-98.1" y="-300.5" width="541.3" height="500"/>
                  <g>
                    <g>
                      <polygon class="cls-2" points="-41.5 -300.5 -46.5 -300.5 -44 -299.1 -41.5 -300.5"/>
                      <polygon class="cls-2" points="66.7 -300.5 61.8 -300.5 64.2 -299.1 66.7 -300.5"/>
                      <polygon class="cls-2" points="175 -300.5 170 -300.5 172.5 -299.1 175 -300.5"/>
                      <polygon class="cls-2" points="283.2 -300.5 278.3 -300.5 280.8 -299.1 283.2 -300.5"/>
                      <polygon class="cls-2" points="389 -299.1 391.5 -300.5 386.5 -300.5 389 -299.1"/>
                      <g>
                        <polygon class="cls-2" points="-96.9 -270 -98.1 -270.7 -98.1 -205.3 -96.9 -206 -96.9 -270"/>
                        <polygon class="cls-2" points="-98.1 -269.3 -98.1 -267.8 -97.5 -268.2 -98.1 -269.3"/>
                        <polygon class="cls-2" points="-98.1 -208.2 -98.1 -206.7 -97.5 -207.8 -98.1 -208.2"/>
                      </g>
                      <g>
                        <path class="cls-2" d="M11.4-206v-64l-52.9-30.5h-4.9l-51.7,29.8v65.3l54.1,31.3,55.4-31.9ZM-96.9-268.5l52.9-30.5,52.9,30.5v61.1l-52.9,30.5-52.9-30.5v-61.1Z"/>
                        <rect class="cls-2" x="-45.2" y="-300.5" width="2.5" height="125"/>
                        <polygon class="cls-2" points="10.7 -268.2 9.5 -270.3 -98.1 -208.2 -98.1 -206.7 -97.5 -205.7 10.7 -268.2"/>
                        <polygon class="cls-2" points="10.7 -207.8 -97.5 -270.3 -98.1 -269.3 -98.1 -267.8 9.5 -205.7 10.7 -207.8"/>
                      </g>
                      <path class="cls-2" d="M-37.2-238c0,3.7-3,6.8-6.8,6.8s-6.8-3-6.8-6.8,3-6.8,6.8-6.8,6.8,3.1,6.8,6.8Z"/>
                      <g>
                        <path class="cls-2" d="M8.9-206l55.4,32,55.4-32v-64l-52.9-30.5h-4.9l-53,30.5v64ZM11.4-268.5l52.9-30.5,52.9,30.5v61.1l-52.9,30.5-52.9-30.5s0-61.1,0-61.1Z"/>
                        <rect class="cls-2" x="63" y="-300.5" width="2.5" height="125"/>
                        <rect class="cls-2" x="1.7" y="-239.2" width="125" height="2.5" transform="translate(127.6 .2) rotate(-30)"/>
                        <rect class="cls-2" x="63" y="-300.5" width="2.5" height="125" transform="translate(238.2 -63.4) rotate(-60)"/>
                      </g>
                      <path class="cls-2" d="M71-238c0,3.7-3,6.8-6.8,6.8s-6.8-3-6.8-6.8,3-6.8,6.8-6.8,6.8,3.1,6.8,6.8Z"/>
                      <g>
                        <path class="cls-2" d="M117.1-206l55.4,32,55.4-32v-64l-52.9-30.5h-5l-52.9,30.5v64ZM119.6-268.5l52.9-30.5,52.9,30.5v61.1l-52.9,30.5-52.9-30.5v-61.1Z"/>
                        <rect class="cls-2" x="171.3" y="-300.5" width="2.5" height="125"/>
                        <rect class="cls-2" x="110" y="-239.2" width="125" height="2.5" transform="translate(142.1 54.4) rotate(-30)"/>
                        <rect class="cls-2" x="171.3" y="-300.5" width="2.5" height="125" transform="translate(292.4 30.4) rotate(-60)"/>
                      </g>
                      <path class="cls-2" d="M179.3-238c0,3.7-3,6.8-6.8,6.8s-6.8-3-6.8-6.8,3-6.8,6.8-6.8,6.8,3.1,6.8,6.8Z"/>
                      <g>
                        <path class="cls-2" d="M225.4-206l55.4,32,55.4-32v-64l-52.9-30.5h-4.9l-53,30.5v64ZM227.9-268.5l52.9-30.5,52.9,30.5v61.1l-52.9,30.5-52.9-30.5v-61.1Z"/>
                        <rect class="cls-2" x="279.5" y="-300.5" width="2.5" height="125"/>
                        <rect class="cls-2" x="218.3" y="-239.2" width="125" height="2.5" transform="translate(156.6 108.5) rotate(-30)"/>
                        <rect class="cls-2" x="279.5" y="-300.5" width="2.5" height="125" transform="translate(346.5 124.1) rotate(-60)"/>
                      </g>
                      <path class="cls-2" d="M287.5-238c0,3.7-3,6.8-6.8,6.8s-6.8-3-6.8-6.8,3-6.8,6.8-6.8,6.8,3.1,6.8,6.8Z"/>
                      <g>
                        <path class="cls-2" d="M391.5-300.5h-4.9l-53,30.5v63.9l55.4,32,54.1-31.2v-65.3l-51.6-29.9ZM389-176.9l-52.9-30.5v-61.1l52.9-30.5,52.9,30.5v61.1l-52.9,30.5Z"/>
                        <rect class="cls-2" x="387.8" y="-300.5" width="2.5" height="125"/>
                        <polygon class="cls-2" points="334.3 -207.8 335.5 -205.7 443.1 -267.8 443.1 -269.3 442.5 -270.3 334.3 -207.8"/>
                        <polygon class="cls-2" points="334.3 -268.2 442.5 -205.7 443.1 -206.7 443.1 -208.2 335.5 -270.3 334.3 -268.2"/>
                      </g>
                      <path class="cls-2" d="M395.8-238c0,3.7-3,6.8-6.8,6.8s-6.8-3-6.8-6.8,3-6.8,6.8-6.8,6.8,3.1,6.8,6.8Z"/>
                      <g>
                        <polygon class="cls-2" points="441.9 -270 441.9 -206 443.1 -205.3 443.1 -270.7 441.9 -270"/>
                        <polygon class="cls-2" points="442.5 -207.8 443.1 -206.7 443.1 -208.2 442.5 -207.8"/>
                        <polygon class="cls-2" points="442.5 -268.2 443.1 -267.8 443.1 -269.2 442.5 -268.2"/>
                      </g>
                      <g>
                        <polygon class="cls-2" points="-96.9 -145 -98.1 -145.7 -98.1 -80.3 -96.9 -81 -96.9 -145"/>
                        <polygon class="cls-2" points="-98.1 -144.3 -98.1 -142.8 -97.5 -143.2 -98.1 -144.3"/>
                        <polygon class="cls-2" points="-98.1 -83.2 -98.1 -81.7 -97.5 -82.8 -98.1 -83.2"/>
                      </g>
                      <g>
                        <path class="cls-2" d="M11.4-81v-64l-55.4-32-54.1,31.2v65.3l54.1,31.4,55.4-31.9ZM-96.9-143.5l52.9-30.5,52.9,30.5v61.1l-52.9,30.5-52.9-30.5v-61.1Z"/>
                        <rect class="cls-2" x="-45.2" y="-175.5" width="2.5" height="125"/>
                        <polygon class="cls-2" points="10.7 -143.2 9.5 -145.3 -98.1 -83.2 -98.1 -81.7 -97.5 -80.7 10.7 -143.2"/>
                        <polygon class="cls-2" points="10.7 -82.8 -97.5 -145.3 -98.1 -144.3 -98.1 -142.8 9.5 -80.7 10.7 -82.8"/>
                      </g>
                      <path class="cls-2" d="M-37.2-113c0,3.7-3,6.8-6.8,6.8s-6.8-3-6.8-6.8,3-6.8,6.8-6.8,6.8,3.1,6.8,6.8Z"/>
                      <g>
                        <path class="cls-2" d="M64.2-49.1l-55.3-31.9v-64l55.4-32,55.4,32v64l-55.5,31.9ZM11.4-82.5l52.9,30.5,52.9-30.5v-61.1l-52.9-30.5-52.9,30.5s0,61.1,0,61.1Z"/>
                        <rect class="cls-2" x="63" y="-175.5" width="2.5" height="125"/>
                        <rect class="cls-2" x="1.7" y="-114.2" width="125" height="2.5" transform="translate(65.1 17) rotate(-30)"/>
                        <rect class="cls-2" x="63" y="-175.5" width="2.5" height="125" transform="translate(130 -.9) rotate(-60)"/>
                      </g>
                      <path class="cls-2" d="M71-113c0,3.7-3,6.8-6.8,6.8s-6.8-3-6.8-6.8,3-6.8,6.8-6.8,6.8,3.1,6.8,6.8Z"/>
                      <g>
                        <path class="cls-2" d="M172.5-49.1l-55.4-32v-63.9l55.4-32,55.4,32v64l-55.4,31.9ZM119.6-82.5l52.9,30.5,52.9-30.5v-61.1l-52.9-30.5-52.9,30.5v61.1Z"/>
                        <rect class="cls-2" x="171.3" y="-175.5" width="2.5" height="125"/>
                        <rect class="cls-2" x="110" y="-114.2" width="125" height="2.5" transform="translate(79.6 71.1) rotate(-30)"/>
                        <rect class="cls-2" x="171.3" y="-175.5" width="2.5" height="125" transform="translate(184.2 92.9) rotate(-60)"/>
                      </g>
                      <path class="cls-2" d="M179.3-113c0,3.7-3,6.8-6.8,6.8s-6.8-3-6.8-6.8,3-6.8,6.8-6.8,6.8,3.1,6.8,6.8Z"/>
                      <g>
                        <path class="cls-2" d="M280.8-49.1l-55.4-32v-63.9l55.4-32,55.4,32v64l-55.4,31.9ZM227.9-82.5l52.9,30.5,52.9-30.5v-61.1l-52.9-30.5-52.9,30.5v61.1Z"/>
                        <rect class="cls-2" x="279.5" y="-175.5" width="2.5" height="125"/>
                        <rect class="cls-2" x="218.3" y="-114.2" width="125" height="2.5" transform="translate(94.1 125.3) rotate(-30)"/>
                        <rect class="cls-2" x="279.5" y="-175.5" width="2.5" height="125" transform="translate(238.2 186.6) rotate(-60)"/>
                      </g>
                      <path class="cls-2" d="M287.5-113c0,3.7-3,6.8-6.8,6.8s-6.8-3-6.8-6.8,3-6.8,6.8-6.8,6.8,3.1,6.8,6.8Z"/>
                      <g>
                        <path class="cls-2" d="M389-176.9l-55.4,32v63.9l55.4,32,54.1-31.2v-65.3l-54.1-31.4ZM389-51.9l-52.9-30.5v-61.1l52.9-30.5,52.9,30.5v61.1l-52.9,30.5Z"/>
                        <rect class="cls-2" x="387.8" y="-175.5" width="2.5" height="125"/>
                        <polygon class="cls-2" points="334.3 -82.8 335.5 -80.7 443.1 -142.8 443.1 -144.3 442.5 -145.3 334.3 -82.8"/>
                        <polygon class="cls-2" points="334.3 -143.2 442.5 -80.7 443.1 -81.7 443.1 -83.2 335.5 -145.3 334.3 -143.2"/>
                      </g>
                      <path class="cls-2" d="M395.8-113c0,3.7-3,6.8-6.8,6.8s-6.8-3-6.8-6.8,3-6.8,6.8-6.8,6.8,3.1,6.8,6.8Z"/>
                      <g>
                        <polygon class="cls-2" points="441.9 -145 441.9 -81 443.1 -80.3 443.1 -145.7 441.9 -145"/>
                        <polygon class="cls-2" points="442.5 -82.8 443.1 -81.7 443.1 -83.2 442.5 -82.8"/>
                        <polygon class="cls-2" points="442.5 -143.2 443.1 -142.8 443.1 -144.3 442.5 -143.2"/>
                      </g>
                      <g>
                        <polygon class="cls-2" points="-96.9 -20 -98.1 -20.7 -98.1 44.7 -96.9 44 -96.9 -20"/>
                        <polygon class="cls-2" points="-98.1 -19.3 -98.1 -17.8 -97.5 -18.2 -98.1 -19.3"/>
                        <polygon class="cls-2" points="-98.1 41.8 -98.1 43.3 -97.5 42.2 -98.1 41.8"/>
                      </g>
                      <g>
                        <path class="cls-2" d="M11.4,44V-20l-55.4-32-54.1,31.2V44.5l54.1,31.4L11.4,44ZM-96.9-18.5l52.9-30.6L8.9-18.5v61.1l-52.9,30.5-52.9-30.5V-18.5Z"/>
                        <rect class="cls-2" x="-45.2" y="-50.5" width="2.5" height="125"/>
                        <polygon class="cls-2" points="10.7 -18.2 9.5 -20.3 -98.1 41.8 -98.1 43.3 -97.5 44.3 10.7 -18.2"/>
                        <polygon class="cls-2" points="10.7 42.2 -97.5 -20.3 -98.1 -19.3 -98.1 -17.8 9.5 44.3 10.7 42.2"/>
                      </g>
                      <path class="cls-2" d="M-37.2,12c0,3.7-3,6.8-6.8,6.8s-6.8-3-6.8-6.8,3-6.8,6.8-6.8,6.8,3.1,6.8,6.8Z"/>
                      <g>
                        <path class="cls-2" d="M64.2,75.9L8.9,44V-20l55.4-32,55.4,32V44l-55.5,31.9ZM11.4,42.5l52.9,30.5,52.9-30.5V-18.6l-53-30.5L11.4-18.5v61Z"/>
                        <rect class="cls-2" x="63" y="-50.5" width="2.5" height="125"/>
                        <rect class="cls-2" x="1.7" y="10.8" width="125" height="2.5" transform="translate(2.6 33.7) rotate(-30)"/>
                        <rect class="cls-2" x="63" y="-50.5" width="2.5" height="125" transform="translate(21.7 61.6) rotate(-60)"/>
                      </g>
                      <path class="cls-2" d="M71,12c0,3.7-3,6.8-6.8,6.8s-6.8-3-6.8-6.8,3-6.8,6.8-6.8c3.8,0,6.8,3.1,6.8,6.8Z"/>
                      <g>
                        <path class="cls-2" d="M172.5,75.9l-55.4-32V-20l55.4-32,55.4,32V44l-55.4,31.9ZM119.6,42.5l52.9,30.5,52.9-30.5V-18.6l-52.9-30.5-52.9,30.5v61.1Z"/>
                        <rect class="cls-2" x="171.3" y="-50.5" width="2.5" height="125"/>
                        <rect class="cls-2" x="110" y="10.8" width="125" height="2.5" transform="translate(17.1 87.9) rotate(-30)"/>
                        <rect class="cls-2" x="171.3" y="-50.5" width="2.5" height="125" transform="translate(75.9 155.4) rotate(-60)"/>
                      </g>
                      <path class="cls-2" d="M179.3,12c0,3.7-3,6.8-6.8,6.8s-6.8-3-6.8-6.8,3-6.8,6.8-6.8,6.8,3.1,6.8,6.8Z"/>
                      <g>
                        <path class="cls-2" d="M280.8,75.9l-55.4-32V-20l55.4-32,55.4,32V44l-55.4,31.9ZM227.9,42.5l52.9,30.5,52.9-30.5V-18.6l-52.9-30.5-52.9,30.5v61.1Z"/>
                        <rect class="cls-2" x="279.5" y="-50.5" width="2.5" height="125"/>
                        <rect class="cls-2" x="218.3" y="10.8" width="125" height="2.5" transform="translate(31.6 142) rotate(-30)"/>
                        <rect class="cls-2" x="279.5" y="-50.5" width="2.5" height="125" transform="translate(130 249.1) rotate(-60)"/>
                      </g>
                      <path class="cls-2" d="M287.5,12c0,3.7-3,6.8-6.8,6.8s-6.8-3-6.8-6.8,3-6.8,6.8-6.8c3.8,0,6.8,3.1,6.8,6.8Z"/>
                      <g>
                        <path class="cls-2" d="M389-51.9l-55.4,32v63.9l55.4,32,54.1-31.2V-20.5l-54.1-31.4ZM389,73.1l-52.9-30.5V-18.5l52.9-30.6,52.9,30.5v61.1l-52.9,30.6Z"/>
                        <rect class="cls-2" x="387.8" y="-50.5" width="2.5" height="125"/>
                        <polygon class="cls-2" points="334.3 42.2 335.5 44.3 443.1 -17.8 443.1 -19.3 442.5 -20.3 334.3 42.2"/>
                        <polygon class="cls-2" points="334.3 -18.2 442.5 44.3 443.1 43.3 443.1 41.8 335.5 -20.3 334.3 -18.2"/>
                      </g>
                      <path class="cls-2" d="M395.8,12c0,3.7-3,6.8-6.8,6.8s-6.8-3-6.8-6.8,3-6.8,6.8-6.8,6.8,3.1,6.8,6.8Z"/>
                      <g>
                        <polygon class="cls-2" points="441.9 -20 441.9 44 443.1 44.7 443.1 -20.7 441.9 -20"/>
                        <polygon class="cls-2" points="442.5 42.2 443.1 43.3 443.1 41.8 442.5 42.2"/>
                        <polygon class="cls-2" points="442.5 -18.2 443.1 -17.8 443.1 -19.3 442.5 -18.2"/>
                      </g>
                      <g>
                        <polygon class="cls-2" points="-96.9 105 -98.1 104.3 -98.1 169.7 -96.9 169 -96.9 105"/>
                        <polygon class="cls-2" points="-98.1 105.7 -98.1 107.2 -97.5 106.8 -98.1 105.7"/>
                        <polygon class="cls-2" points="-98.1 166.8 -98.1 168.3 -97.5 167.2 -98.1 166.8"/>
                      </g>
                      <g>
                        <path class="cls-2" d="M11.4,105l-55.4-32-54.1,31.2v65.3l51.7,29.8h4.9l52.9-30.3v-64ZM8.9,167.5l-52.9,30.6-52.9-30.5v-61.1l52.9-30.6,52.9,30.5s0,61.1,0,61.1Z"/>
                        <rect class="cls-2" x="-45.2" y="74.5" width="2.5" height="125"/>
                        <polygon class="cls-2" points="10.7 106.8 9.5 104.7 -98.1 166.8 -98.1 168.3 -97.5 169.3 10.7 106.8"/>
                        <polygon class="cls-2" points="10.7 167.2 -97.5 104.7 -98.1 105.7 -98.1 107.2 9.5 169.3 10.7 167.2"/>
                      </g>
                      <circle class="cls-2" cx="-44" cy="137" r="6.8"/>
                      <g>
                        <path class="cls-2" d="M119.6,105l-55.4-32L8.9,105v64l52.9,30.5h4.9l52.9-30.5s0-64,0-64ZM117.1,167.5l-52.9,30.5-52.9-30.5v-61.1l52.9-30.5,52.9,30.5v61.1Z"/>
                        <rect class="cls-2" x="63" y="74.5" width="2.5" height="125"/>
                        <rect class="cls-2" x="1.7" y="135.8" width="125" height="2.5" transform="translate(-59.9 50.5) rotate(-30)"/>
                        <rect class="cls-2" x="63" y="74.5" width="2.5" height="125" transform="translate(-86.5 124.1) rotate(-60)"/>
                      </g>
                      <circle class="cls-2" cx="64.2" cy="137" r="6.8"/>
                      <g>
                        <path class="cls-2" d="M227.9,105l-55.4-32-55.4,32v64l52.9,30.5h4.9l52.9-30.5v-64h.1ZM225.4,167.5l-52.9,30.5-52.9-30.5v-61.1l52.9-30.5,52.9,30.5v61.1Z"/>
                        <rect class="cls-2" x="171.3" y="74.5" width="2.5" height="125"/>
                        <rect class="cls-2" x="110" y="135.8" width="125" height="2.5" transform="translate(-45.4 104.6) rotate(-30)"/>
                        <rect class="cls-2" x="171.3" y="74.5" width="2.5" height="125" transform="translate(-32.4 217.9) rotate(-60)"/>
                      </g>
                      <circle class="cls-2" cx="172.5" cy="137" r="6.8"/>
                      <g>
                        <path class="cls-2" d="M336.1,105l-55.4-32-55.4,32v64l52.9,30.5h4.9l52.9-30.5v-64h.1ZM333.6,167.5l-52.9,30.5-52.9-30.5v-61.1l52.9-30.5,52.9,30.5v61.1Z"/>
                        <rect class="cls-2" x="279.5" y="74.5" width="2.5" height="125"/>
                        <rect class="cls-2" x="218.3" y="135.8" width="125" height="2.5" transform="translate(-30.9 158.8) rotate(-30)"/>
                        <rect class="cls-2" x="279.5" y="74.5" width="2.5" height="125" transform="translate(21.7 311.6) rotate(-60)"/>
                      </g>
                      <circle class="cls-2" cx="280.8" cy="137" r="6.8"/>
                      <g>
                        <path class="cls-2" d="M389,73.1l-55.4,32v63.9l52.9,30.5h4.9l51.7-29.8v-65.3l-54.1-31.3ZM389,198.1l-52.9-30.5v-61.1l52.9-30.6,52.9,30.5v61.1l-52.9,30.6Z"/>
                        <rect class="cls-2" x="387.8" y="74.5" width="2.5" height="125"/>
                        <polygon class="cls-2" points="334.3 167.2 335.5 169.3 443.1 107.2 443.1 105.7 442.5 104.7 334.3 167.2"/>
                        <polygon class="cls-2" points="334.3 106.8 442.5 169.3 443.1 168.3 443.1 166.8 335.5 104.7 334.3 106.8"/>
                      </g>
                      <circle class="cls-2" cx="389" cy="137" r="6.8"/>
                      <g>
                        <polygon class="cls-2" points="441.9 105 441.9 169 443.1 169.7 443.1 104.3 441.9 105"/>
                        <polygon class="cls-2" points="442.5 167.2 443.1 168.3 443.1 166.8 442.5 167.2"/>
                        <polygon class="cls-2" points="442.5 106.8 443.1 107.2 443.1 105.7 442.5 106.8"/>
                      </g>
                      <polygon class="cls-2" points="-46.5 199.5 -41.5 199.5 -44 198.1 -46.5 199.5"/>
                      <polygon class="cls-2" points="61.8 199.5 66.7 199.5 64.2 198.1 61.8 199.5"/>
                      <polygon class="cls-2" points="170 199.5 175 199.5 172.5 198.1 170 199.5"/>
                      <polygon class="cls-2" points="278.3 199.5 283.2 199.5 280.8 198.1 278.3 199.5"/>
                      <polygon class="cls-2" points="389 198.1 386.5 199.5 391.5 199.5 389 198.1"/>
                    </g>
                    <g>
                      <g>
                        <polygon class="cls-2" points="-42.8 -300.5 -45.2 -300.5 -45.2 -270 -98.1 -239.4 -98.1 -236.6 -42.8 -268.5 -42.8 -300.5"/>
                        <rect class="cls-2" x="-98.1" y="-300.5" width="1.2" height="62.5"/>
                        <polygon class="cls-2" points="-98.1 -300.5 -98.1 -299.1 -95.7 -300.5 -98.1 -300.5"/>
                        <polygon class="cls-2" points="-43.4 -270.3 -95.7 -300.5 -98.1 -300.5 -98.1 -299.1 -44.6 -268.2 -43.4 -270.3"/>
                      </g>
                      <path class="cls-2" d="M-91.4-300.5h-6.8v6.8c3.8,0,6.8-3.1,6.8-6.8Z"/>
                      <g>
                        <polygon class="cls-2" points="10.1 -236.6 65.5 -268.5 65.5 -300.5 63 -300.5 63 -270 10.1 -239.4 -42.8 -270 -42.8 -300.5 -45.2 -300.5 -45.2 -268.5 10.1 -236.6"/>
                        <rect class="cls-2" x="8.9" y="-300.5" width="2.5" height="62.5"/>
                        <polygon class="cls-2" points="-43.4 -268.2 12.6 -300.5 7.7 -300.5 -44.6 -270.3 -43.4 -268.2"/>
                        <polygon class="cls-2" points="64.9 -270.3 12.6 -300.5 7.7 -300.5 63.6 -268.2 64.9 -270.3"/>
                      </g>
                      <path class="cls-2" d="M10.1-293.7c3.7,0,6.8-3,6.8-6.8H3.4c0,3.7,3,6.8,6.7,6.8Z"/>
                      <g>
                        <polygon class="cls-2" points="118.4 -236.6 173.7 -268.5 173.7 -300.5 171.3 -300.5 171.3 -270 118.4 -239.4 65.5 -270 65.5 -300.5 63 -300.5 63 -268.5 118.4 -236.6"/>
                        <rect class="cls-2" x="117.1" y="-300.5" width="2.5" height="62.5"/>
                        <polygon class="cls-2" points="64.9 -268.2 120.8 -300.5 115.9 -300.5 63.6 -270.3 64.9 -268.2"/>
                        <polygon class="cls-2" points="173.1 -270.3 120.8 -300.5 115.9 -300.5 171.9 -268.2 173.1 -270.3"/>
                      </g>
                      <path class="cls-2" d="M118.4-293.7c3.7,0,6.8-3,6.8-6.8h-13.5c-.1,3.7,2.9,6.8,6.7,6.8Z"/>
                      <g>
                        <polygon class="cls-2" points="226.6 -236.6 282 -268.5 282 -300.5 279.5 -300.5 279.5 -270 226.6 -239.4 173.7 -270 173.7 -300.5 171.3 -300.5 171.3 -268.5 226.6 -236.6"/>
                        <rect class="cls-2" x="225.4" y="-300.5" width="2.5" height="62.5"/>
                        <polygon class="cls-2" points="173.1 -268.2 229.1 -300.5 224.2 -300.5 171.9 -270.3 173.1 -268.2"/>
                        <polygon class="cls-2" points="281.4 -270.3 229.1 -300.5 224.2 -300.5 280.1 -268.2 281.4 -270.3"/>
                      </g>
                      <path class="cls-2" d="M226.6-293.7c3.7,0,6.8-3,6.8-6.8h-13.5c0,3.7,3,6.8,6.7,6.8Z"/>
                      <g>
                        <polygon class="cls-2" points="334.9 -236.6 390.2 -268.5 390.2 -300.5 387.8 -300.5 387.8 -270 334.9 -239.4 282 -270 282 -300.5 279.5 -300.5 279.5 -268.5 334.9 -236.6"/>
                        <rect class="cls-2" x="333.6" y="-300.5" width="2.5" height="62.5"/>
                        <polygon class="cls-2" points="281.4 -268.2 337.3 -300.5 332.4 -300.5 280.1 -270.3 281.4 -268.2"/>
                        <polygon class="cls-2" points="389.6 -270.3 337.3 -300.5 332.4 -300.5 388.4 -268.2 389.6 -270.3"/>
                      </g>
                      <path class="cls-2" d="M334.9-293.7c3.7,0,6.8-3,6.8-6.8h-13.5c0,3.7,2.9,6.8,6.7,6.8Z"/>
                      <g>
                        <polygon class="cls-2" points="390.2 -270 390.2 -300.5 387.8 -300.5 387.8 -268.5 443.1 -236.6 443.1 -239.4 390.2 -270"/>
                        <rect class="cls-2" x="441.9" y="-300.5" width="1.2" height="62.5"/>
                        <polygon class="cls-2" points="389.6 -268.2 443.1 -299.1 443.1 -300.5 440.7 -300.5 388.4 -270.3 389.6 -268.2"/>
                        <polygon class="cls-2" points="440.7 -300.5 443.1 -299.1 443.1 -300.5 440.7 -300.5"/>
                      </g>
                      <path class="cls-2" d="M436.4-300.5c0,3.7,3,6.8,6.8,6.8h0v-6.8h-6.8Z"/>
                      <g>
                        <polygon class="cls-2" points="-42.8 -207.5 -98.1 -239.4 -98.1 -236.6 -45.2 -206 -45.2 -145 -98.1 -114.4 -98.1 -111.6 -42.8 -143.5 -42.8 -207.5"/>
                        <rect class="cls-2" x="-98.1" y="-238" width="1.2" height="125"/>
                        <polygon class="cls-2" points="-44.6 -207.8 -98.1 -176.9 -98.1 -174.1 -43.4 -205.7 -44.6 -207.8"/>
                        <polygon class="cls-2" points="-43.4 -145.3 -98.1 -176.9 -98.1 -174.1 -44.6 -143.2 -43.4 -145.3"/>
                      </g>
                      <path class="cls-2" d="M-91.4-175.5c0-3.7-3-6.8-6.8-6.8v13.5c3.8.1,6.8-3,6.8-6.7Z"/>
                      <g>
                        <path class="cls-2" d="M10.1-111.6l-55.4-32v-63.9l55.4-32,55.4,32v63.9L10.1-111.6ZM-42.8-145l52.9,30.5,52.9-30.5v-61l-52.9-30.5-52.9,30.5v61Z"/>
                        <rect class="cls-2" x="8.9" y="-238" width="2.5" height="125"/>
                        <rect class="cls-2" x="-52.4" y="-176.7" width="125" height="2.5" transform="translate(89.1 -18.4) rotate(-30)"/>
                        <rect class="cls-2" x="8.9" y="-238" width="2.5" height="125" transform="translate(157.1 -79) rotate(-60)"/>
                      </g>
                      <path class="cls-2" d="M16.9-175.5c0,3.7-3,6.8-6.8,6.8s-6.8-3-6.8-6.8,3-6.8,6.8-6.8,6.8,3.1,6.8,6.8Z"/>
                      <g>
                        <path class="cls-2" d="M118.4-111.6l-55.4-32v-63.9l55.4-32,55.4,32v63.9l-55.4,32ZM65.5-145l52.9,30.5,52.9-30.5v-61l-52.9-30.5-52.9,30.5v61Z"/>
                        <rect class="cls-2" x="117.1" y="-238" width="2.5" height="125"/>
                        <rect class="cls-2" x="55.9" y="-176.7" width="125" height="2.5" transform="translate(103.6 35.7) rotate(-30)"/>
                        <rect class="cls-2" x="117.1" y="-238" width="2.5" height="125" transform="translate(211.1 14.8) rotate(-60)"/>
                      </g>
                      <path class="cls-2" d="M125.1-175.5c0,3.7-3,6.8-6.8,6.8s-6.8-3-6.8-6.8,3-6.8,6.8-6.8,6.8,3.1,6.8,6.8Z"/>
                      <g>
                        <path class="cls-2" d="M226.6-111.6l-55.4-32v-63.9l55.4-32,55.4,32v63.9l-55.4,32ZM173.7-145l52.9,30.5,52.9-30.5v-61l-52.9-30.5-52.9,30.5v61Z"/>
                        <rect class="cls-2" x="225.4" y="-238" width="2.5" height="125"/>
                        <rect class="cls-2" x="164.1" y="-176.7" width="125" height="2.5" transform="translate(118.1 89.8) rotate(-30)"/>
                        <rect class="cls-2" x="225.4" y="-238" width="2.5" height="125" transform="translate(265.3 108.5) rotate(-60)"/>
                      </g>
                      <path class="cls-2" d="M233.4-175.5c0,3.7-3,6.8-6.8,6.8s-6.8-3-6.8-6.8,3-6.8,6.8-6.8,6.8,3.1,6.8,6.8Z"/>
                      <g>
                        <path class="cls-2" d="M334.9-111.6l-55.4-32v-63.9l55.4-32,55.4,32v63.9l-55.4,32ZM282-145l52.9,30.5,52.9-30.5v-61l-52.9-30.5-52.9,30.5v61Z"/>
                        <rect class="cls-2" x="333.6" y="-238" width="2.5" height="125"/>
                        <rect class="cls-2" x="272.4" y="-176.7" width="125" height="2.5" transform="translate(132.6 144) rotate(-30)"/>
                        <rect class="cls-2" x="333.6" y="-238" width="2.5" height="125" transform="translate(319.4 202.3) rotate(-60)"/>
                      </g>
                      <path class="cls-2" d="M341.6-175.5c0,3.7-3,6.8-6.8,6.8s-6.8-3-6.8-6.8,3-6.8,6.8-6.8,6.8,3.1,6.8,6.8Z"/>
                      <g>
                        <polygon class="cls-2" points="390.2 -145 390.2 -206 443.1 -236.6 443.1 -239.4 387.8 -207.5 387.8 -143.5 443.1 -111.6 443.1 -114.4 390.2 -145"/>
                        <rect class="cls-2" x="441.9" y="-238" width="1.2" height="125"/>
                        <polygon class="cls-2" points="389.6 -143.2 443.1 -174.1 443.1 -176.9 388.4 -145.3 389.6 -143.2"/>
                        <polygon class="cls-2" points="389.6 -207.8 388.4 -205.7 443.1 -174.1 443.1 -176.9 389.6 -207.8"/>
                      </g>
                      <path class="cls-2" d="M443.1-182.3c-3.7,0-6.8,3-6.8,6.8s3,6.8,6.8,6.8h0v-13.6h0Z"/>
                      <g>
                        <polygon class="cls-2" points="-42.8 -82.5 -98.1 -114.4 -98.1 -111.6 -45.2 -81 -45.2 -20 -98.1 10.6 -98.1 13.4 -42.8 -18.5 -42.8 -82.5"/>
                        <rect class="cls-2" x="-98.1" y="-113" width="1.2" height="125"/>
                        <polygon class="cls-2" points="-44.6 -82.8 -98.1 -51.9 -98.1 -49.1 -43.4 -80.7 -44.6 -82.8"/>
                        <polygon class="cls-2" points="-43.4 -20.3 -98.1 -51.9 -98.1 -49.1 -44.6 -18.2 -43.4 -20.3"/>
                      </g>
                      <path class="cls-2" d="M-91.4-50.5c0-3.7-3-6.8-6.8-6.8v13.5c3.8,0,6.8-3,6.8-6.7Z"/>
                      <g>
                        <path class="cls-2" d="M10.1,13.4L-45.3-18.6v-63.9L10.1-114.5l55.4,32V-18.6L10.1,13.4ZM-42.8-20L10.1,10.5l52.9-30.5v-61l-52.9-30.5-52.9,30.5V-20Z"/>
                        <rect class="cls-2" x="8.9" y="-113" width="2.5" height="125"/>
                        <rect class="cls-2" x="-52.4" y="-51.7" width="125" height="2.5" transform="translate(26.6 -1.7) rotate(-30)"/>
                        <rect class="cls-2" x="8.9" y="-113" width="2.5" height="125" transform="translate(48.8 -16.5) rotate(-60)"/>
                      </g>
                      <path class="cls-2" d="M16.9-50.5c0,3.7-3,6.8-6.8,6.8s-6.8-3-6.8-6.8,3-6.8,6.8-6.8,6.8,3.1,6.8,6.8Z"/>
                      <g>
                        <path class="cls-2" d="M118.4,13.4l-55.4-31.9v-63.9l55.4-32,55.4,32V-18.5l-55.4,31.9ZM65.5-20l52.9,30.5,52.9-30.5v-61l-52.9-30.5-52.9,30.5V-20Z"/>
                        <rect class="cls-2" x="117.1" y="-113" width="2.5" height="125"/>
                        <rect class="cls-2" x="55.9" y="-51.7" width="125" height="2.5" transform="translate(41.1 52.5) rotate(-30)"/>
                        <rect class="cls-2" x="117.1" y="-113" width="2.5" height="125" transform="translate(102.9 77.3) rotate(-60)"/>
                      </g>
                      <path class="cls-2" d="M125.1-50.5c0,3.7-3,6.8-6.8,6.8s-6.8-3-6.8-6.8,3-6.8,6.8-6.8,6.8,3.1,6.8,6.8Z"/>
                      <g>
                        <path class="cls-2" d="M226.6,13.4l-55.4-32v-63.9l55.4-32,55.4,32V-18.6l-55.4,32ZM173.7-20l52.9,30.5,52.9-30.5v-61l-52.9-30.5-52.9,30.5V-20Z"/>
                        <rect class="cls-2" x="225.4" y="-113" width="2.5" height="125"/>
                        <rect class="cls-2" x="164.1" y="-51.7" width="125" height="2.5" transform="translate(55.6 106.6) rotate(-30)"/>
                        <rect class="cls-2" x="225.4" y="-113" width="2.5" height="125" transform="translate(157.1 171) rotate(-60)"/>
                      </g>
                      <path class="cls-2" d="M233.4-50.5c0,3.7-3,6.8-6.8,6.8s-6.8-3-6.8-6.8,3-6.8,6.8-6.8,6.8,3.1,6.8,6.8Z"/>
                      <g>
                        <path class="cls-2" d="M334.9,13.4l-55.4-32v-63.9l55.4-32,55.4,32V-18.6l-55.4,32ZM282-20l52.9,30.5,52.9-30.5v-61l-52.9-30.5-52.9,30.5V-20Z"/>
                        <rect class="cls-2" x="333.6" y="-113" width="2.5" height="125"/>
                        <rect class="cls-2" x="272.4" y="-51.7" width="125" height="2.5" transform="translate(70.1 160.7) rotate(-30)"/>
                        <rect class="cls-2" x="333.6" y="-113" width="2.5" height="125" transform="translate(211.1 264.8) rotate(-60)"/>
                      </g>
                      <path class="cls-2" d="M341.6-50.5c0,3.7-3,6.8-6.8,6.8s-6.8-3-6.8-6.8,3-6.8,6.8-6.8,6.8,3.1,6.8,6.8Z"/>
                      <g>
                        <polygon class="cls-2" points="390.2 -20 390.2 -81 443.1 -111.6 443.1 -114.4 387.8 -82.5 387.8 -18.5 443.1 13.4 443.1 10.6 390.2 -20"/>
                        <rect class="cls-2" x="441.9" y="-113" width="1.2" height="125"/>
                        <polygon class="cls-2" points="389.6 -18.2 443.1 -49.1 443.1 -51.9 388.4 -20.3 389.6 -18.2"/>
                        <polygon class="cls-2" points="389.6 -82.8 388.4 -80.7 443.1 -49.1 443.1 -51.9 389.6 -82.8"/>
                      </g>
                      <path class="cls-2" d="M443.1-57.3c-3.7,0-6.8,3-6.8,6.8s3,6.8,6.8,6.8h0v-13.6h0Z"/>
                      <g>
                        <polygon class="cls-2" points="-42.8 42.5 -98.1 10.6 -98.1 13.4 -45.2 44 -45.2 105 -98.1 135.6 -98.1 138.4 -42.8 106.5 -42.8 42.5"/>
                        <rect class="cls-2" x="-98.1" y="12" width="1.2" height="125"/>
                        <polygon class="cls-2" points="-44.6 42.2 -98.1 73.1 -98.1 75.9 -43.4 44.3 -44.6 42.2"/>
                        <polygon class="cls-2" points="-43.4 104.7 -98.1 73.1 -98.1 75.9 -44.6 106.8 -43.4 104.7"/>
                      </g>
                      <path class="cls-2" d="M-91.4,74.5c0-3.7-3-6.8-6.8-6.8v13.5c3.8.1,6.8-3,6.8-6.7Z"/>
                      <g>
                        <path class="cls-2" d="M10.1,138.4l-55.4-32v-63.9L10.1,10.5l55.4,32v63.9l-55.4,32ZM-42.8,105l52.9,30.5,52.9-30.5v-61L10.1,13.4l-52.9,30.6v61Z"/>
                        <rect class="cls-2" x="8.9" y="12" width="2.5" height="125"/>
                        <rect class="cls-2" x="-52.4" y="73.3" width="125" height="2.5" transform="translate(-35.9 15.1) rotate(-30)"/>
                        <rect class="cls-2" x="8.9" y="12" width="2.5" height="125" transform="translate(-59.4 46) rotate(-60)"/>
                      </g>
                      <circle class="cls-2" cx="10.1" cy="74.5" r="6.8"/>
                      <g>
                        <path class="cls-2" d="M118.4,138.4l-55.4-32v-63.9L118.4,10.5l55.4,32v63.9l-55.4,32ZM65.5,105l52.9,30.5,52.9-30.5v-61l-52.9-30.5-52.9,30.5v61Z"/>
                        <rect class="cls-2" x="117.1" y="12" width="2.5" height="125"/>
                        <rect class="cls-2" x="55.9" y="73.3" width="125" height="2.5" transform="translate(-21.4 69.2) rotate(-30)"/>
                        <rect class="cls-2" x="117.1" y="12" width="2.5" height="125" transform="translate(-5.4 139.8) rotate(-60)"/>
                      </g>
                      <circle class="cls-2" cx="118.4" cy="74.5" r="6.8"/>
                      <g>
                        <path class="cls-2" d="M226.6,138.4l-55.4-32v-63.9l55.4-32,55.4,32v63.9l-55.4,32ZM173.7,105l52.9,30.5,52.9-30.5v-61l-52.9-30.5-52.9,30.5v61Z"/>
                        <rect class="cls-2" x="225.4" y="12" width="2.5" height="125"/>
                        <rect class="cls-2" x="164.1" y="73.3" width="125" height="2.5" transform="translate(-6.9 123.3) rotate(-30)"/>
                        <rect class="cls-2" x="225.4" y="12" width="2.5" height="125" transform="translate(48.8 233.5) rotate(-60)"/>
                      </g>
                      <circle class="cls-2" cx="226.6" cy="74.5" r="6.8"/>
                      <g>
                        <path class="cls-2" d="M334.9,138.4l-55.4-32v-63.9l55.4-32,55.4,32v63.9l-55.4,32ZM282,105l52.9,30.5,52.9-30.5v-61l-52.9-30.5-52.9,30.5v61Z"/>
                        <rect class="cls-2" x="333.6" y="12" width="2.5" height="125"/>
                        <rect class="cls-2" x="272.4" y="73.3" width="125" height="2.5" transform="translate(7.6 177.5) rotate(-30)"/>
                        <rect class="cls-2" x="333.6" y="12" width="2.5" height="125" transform="translate(102.9 327.3) rotate(-60)"/>
                      </g>
                      <circle class="cls-2" cx="334.9" cy="74.5" r="6.8"/>
                      <g>
                        <polygon class="cls-2" points="390.2 105 390.2 44 443.1 13.4 443.1 10.6 387.8 42.5 387.8 106.5 443.1 138.4 443.1 135.6 390.2 105"/>
                        <rect class="cls-2" x="441.9" y="12" width="1.2" height="125"/>
                        <polygon class="cls-2" points="389.6 106.8 443.1 75.9 443.1 73.1 388.4 104.7 389.6 106.8"/>
                        <polygon class="cls-2" points="389.6 42.2 388.4 44.3 443.1 75.9 443.1 73.1 389.6 42.2"/>
                      </g>
                      <path class="cls-2" d="M443.1,67.7c-3.7,0-6.8,3-6.8,6.8s3,6.8,6.8,6.8h0v-13.6h0Z"/>
                      <g>
                        <polygon class="cls-2" points="-98.1 135.6 -98.1 138.4 -45.2 169 -45.2 199.5 -42.8 199.5 -42.8 167.5 -98.1 135.6"/>
                        <rect class="cls-2" x="-98.1" y="137" width="1.2" height="62.5"/>
                        <polygon class="cls-2" points="-44.6 167.2 -98.1 198.1 -98.1 199.5 -95.7 199.5 -43.4 169.3 -44.6 167.2"/>
                        <polygon class="cls-2" points="-98.1 199.5 -95.7 199.5 -98.1 198.1 -98.1 199.5"/>
                      </g>
                      <path class="cls-2" d="M-98.1,192.7v6.8h6.8c-.1-3.7-3.1-6.8-6.8-6.8Z"/>
                      <g>
                        <polygon class="cls-2" points="10.1 135.6 -45.2 167.5 -45.2 199.5 -42.8 199.5 -42.8 169 10.1 138.4 63 169 63 199.5 65.5 199.5 65.5 167.5 10.1 135.6"/>
                        <rect class="cls-2" x="8.9" y="137" width="2.5" height="62.5"/>
                        <polygon class="cls-2" points="63.6 167.2 7.7 199.5 12.6 199.5 64.9 169.3 63.6 167.2"/>
                        <polygon class="cls-2" points="-44.6 169.3 7.7 199.5 12.6 199.5 -43.4 167.2 -44.6 169.3"/>
                      </g>
                      <path class="cls-2" d="M10.1,192.7c-3.7,0-6.8,3-6.8,6.8h13.5c.1-3.7-2.9-6.8-6.7-6.8Z"/>
                      <g>
                        <polygon class="cls-2" points="118.4 135.6 63 167.5 63 199.5 65.5 199.5 65.5 169 118.4 138.4 171.3 169 171.3 199.5 173.7 199.5 173.7 167.5 118.4 135.6"/>
                        <rect class="cls-2" x="117.1" y="137" width="2.5" height="62.5"/>
                        <polygon class="cls-2" points="171.9 167.2 115.9 199.5 120.8 199.5 173.1 169.3 171.9 167.2"/>
                        <polygon class="cls-2" points="63.6 169.3 115.9 199.5 120.8 199.5 64.9 167.2 63.6 169.3"/>
                      </g>
                      <path class="cls-2" d="M118.4,192.7c-3.7,0-6.8,3-6.8,6.8h13.5c0-3.7-3-6.8-6.7-6.8Z"/>
                      <g>
                        <polygon class="cls-2" points="226.6 135.6 171.3 167.5 171.3 199.5 173.7 199.5 173.7 169 226.6 138.4 279.5 169 279.5 199.5 282 199.5 282 167.5 226.6 135.6"/>
                        <rect class="cls-2" x="225.4" y="137" width="2.5" height="62.5"/>
                        <polygon class="cls-2" points="280.1 167.2 224.2 199.5 229.1 199.5 281.4 169.3 280.1 167.2"/>
                        <polygon class="cls-2" points="171.9 169.3 224.2 199.5 229.1 199.5 173.1 167.2 171.9 169.3"/>
                      </g>
                      <path class="cls-2" d="M226.6,192.7c-3.7,0-6.8,3-6.8,6.8h13.5c0-3.7-2.9-6.8-6.7-6.8Z"/>
                      <g>
                        <polygon class="cls-2" points="334.9 135.6 279.5 167.5 279.5 199.5 282 199.5 282 169 334.9 138.4 387.8 169 387.8 199.5 390.2 199.5 390.2 167.5 334.9 135.6"/>
                        <rect class="cls-2" x="333.6" y="137" width="2.5" height="62.5"/>
                        <polygon class="cls-2" points="388.4 167.2 332.4 199.5 337.3 199.5 389.6 169.3 388.4 167.2"/>
                        <polygon class="cls-2" points="280.1 169.3 332.4 199.5 337.3 199.5 281.4 167.2 280.1 169.3"/>
                      </g>
                      <path class="cls-2" d="M334.9,192.7c-3.7,0-6.8,3-6.8,6.8h13.5c0-3.7-3-6.8-6.7-6.8Z"/>
                      <g>
                        <polygon class="cls-2" points="390.2 169 443.1 138.4 443.1 135.6 387.8 167.5 387.8 199.5 390.2 199.5 390.2 169"/>
                        <rect class="cls-2" x="441.9" y="137" width="1.2" height="62.5"/>
                        <polygon class="cls-2" points="443.1 198.1 440.7 199.5 443.1 199.5 443.1 198.1"/>
                        <polygon class="cls-2" points="443.1 198.1 389.6 167.2 388.4 169.3 440.7 199.5 443.1 199.5 443.1 198.1"/>
                      </g>
                      <path class="cls-2" d="M443.1,192.7h0c-3.7,0-6.8,3-6.8,6.8h6.8v-6.8Z"/>
                    </g>
                  </g>
                </g>
                <g>
                  <rect class="cls-2" x="-98.1" y="199.5" width="541.3" height="500"/>
                  <g>
                    <g>
                      <polygon class="cls-2" points="-41.5 199.5 -46.5 199.5 -44 200.9 -41.5 199.5"/>
                      <polygon class="cls-2" points="66.7 199.5 61.8 199.5 64.2 200.9 66.7 199.5"/>
                      <polygon class="cls-2" points="175 199.5 170 199.5 172.5 200.9 175 199.5"/>
                      <polygon class="cls-2" points="283.2 199.5 278.3 199.5 280.8 200.9 283.2 199.5"/>
                      <polygon class="cls-2" points="389 200.9 391.5 199.5 386.5 199.5 389 200.9"/>
                      <g>
                        <polygon class="cls-2" points="-96.9 230 -98.1 229.3 -98.1 294.7 -96.9 294 -96.9 230"/>
                        <polygon class="cls-2" points="-98.1 230.7 -98.1 232.2 -97.5 231.8 -98.1 230.7"/>
                        <polygon class="cls-2" points="-98.1 291.8 -98.1 293.3 -97.5 292.2 -98.1 291.8"/>
                      </g>
                      <g>
                        <path class="cls-2" d="M11.4,294v-64l-52.9-30.5h-4.9l-51.7,29.8v65.3l54.1,31.2,55.4-31.8ZM-96.9,231.5l52.9-30.5,52.9,30.5v61.1l-52.9,30.5-52.9-30.5v-61.1Z"/>
                        <rect class="cls-2" x="-45.2" y="199.5" width="2.5" height="125"/>
                        <polygon class="cls-2" points="10.7 231.8 9.5 229.7 -98.1 291.8 -98.1 293.3 -97.5 294.3 10.7 231.8"/>
                        <polygon class="cls-2" points="10.7 292.2 -97.5 229.7 -98.1 230.7 -98.1 232.2 9.5 294.3 10.7 292.2"/>
                      </g>
                      <path class="cls-2" d="M-37.2,262c0,3.7-3,6.8-6.8,6.8s-6.8-3-6.8-6.8,3-6.8,6.8-6.8,6.8,3.1,6.8,6.8Z"/>
                      <g>
                        <path class="cls-2" d="M8.9,294l55.4,32,55.4-32v-64l-52.9-30.5h-4.9l-53,30.5v64ZM11.4,231.5l52.9-30.5,52.9,30.5v61.1l-52.9,30.5-52.9-30.5s0-61.1,0-61.1Z"/>
                        <rect class="cls-2" x="63" y="199.5" width="2.5" height="125"/>
                        <rect class="cls-2" x="1.7" y="260.8" width="125" height="2.5" transform="translate(-122.4 67.2) rotate(-30)"/>
                        <rect class="cls-2" x="63" y="199.5" width="2.5" height="125" transform="translate(-194.8 186.6) rotate(-60)"/>
                      </g>
                      <path class="cls-2" d="M71,262c0,3.7-3,6.8-6.8,6.8s-6.8-3-6.8-6.8,3-6.8,6.8-6.8,6.8,3.1,6.8,6.8Z"/>
                      <g>
                        <path class="cls-2" d="M117.1,294l55.4,32,55.4-32v-64l-52.9-30.5h-5l-52.9,30.5v64ZM119.6,231.5l52.9-30.5,52.9,30.5v61.1l-52.9,30.5-52.9-30.5v-61.1Z"/>
                        <rect class="cls-2" x="171.3" y="199.5" width="2.5" height="125"/>
                        <rect class="cls-2" x="110" y="260.8" width="125" height="2.5" transform="translate(-107.9 121.4) rotate(-30)"/>
                        <rect class="cls-2" x="171.3" y="199.5" width="2.5" height="125" transform="translate(-140.6 280.4) rotate(-60)"/>
                      </g>
                      <path class="cls-2" d="M179.3,262c0,3.7-3,6.8-6.8,6.8s-6.8-3-6.8-6.8,3-6.8,6.8-6.8,6.8,3.1,6.8,6.8Z"/>
                      <g>
                        <path class="cls-2" d="M225.4,294l55.4,32,55.4-32v-64l-52.9-30.5h-4.9l-53,30.5v64ZM227.9,231.5l52.9-30.5,52.9,30.5v61.1l-52.9,30.5-52.9-30.5v-61.1Z"/>
                        <rect class="cls-2" x="279.5" y="199.5" width="2.5" height="125"/>
                        <rect class="cls-2" x="218.3" y="260.8" width="125" height="2.5" transform="translate(-93.4 175.5) rotate(-30)"/>
                        <rect class="cls-2" x="279.5" y="199.5" width="2.5" height="125" transform="translate(-86.5 374.1) rotate(-60)"/>
                      </g>
                      <path class="cls-2" d="M287.5,262c0,3.7-3,6.8-6.8,6.8s-6.8-3-6.8-6.8,3-6.8,6.8-6.8,6.8,3.1,6.8,6.8Z"/>
                      <g>
                        <path class="cls-2" d="M391.5,199.5h-4.9l-53,30.5v64l55.4,32,54.1-31.2v-65.3l-51.6-30ZM389,323.1l-52.9-30.5v-61.1l52.9-30.5,52.9,30.5v61.1l-52.9,30.5Z"/>
                        <rect class="cls-2" x="387.8" y="199.5" width="2.5" height="125"/>
                        <polygon class="cls-2" points="334.3 292.2 335.5 294.3 443.1 232.2 443.1 230.7 442.5 229.7 334.3 292.2"/>
                        <polygon class="cls-2" points="334.3 231.8 442.5 294.3 443.1 293.3 443.1 291.8 335.5 229.7 334.3 231.8"/>
                      </g>
                      <path class="cls-2" d="M395.8,262c0,3.7-3,6.8-6.8,6.8s-6.8-3-6.8-6.8,3-6.8,6.8-6.8,6.8,3.1,6.8,6.8Z"/>
                      <g>
                        <polygon class="cls-2" points="441.9 230 441.9 294 443.1 294.7 443.1 229.3 441.9 230"/>
                        <polygon class="cls-2" points="442.5 292.2 443.1 293.2 443.1 291.8 442.5 292.2"/>
                        <polygon class="cls-2" points="442.5 231.8 443.1 232.2 443.1 230.8 442.5 231.8"/>
                      </g>
                      <g>
                        <polygon class="cls-2" points="-96.9 355 -98.1 354.3 -98.1 419.7 -96.9 419 -96.9 355"/>
                        <polygon class="cls-2" points="-98.1 355.7 -98.1 357.2 -97.5 356.8 -98.1 355.7"/>
                        <polygon class="cls-2" points="-98.1 416.8 -98.1 418.3 -97.5 417.2 -98.1 416.8"/>
                      </g>
                      <g>
                        <path class="cls-2" d="M11.4,419v-64l-55.4-32-54.1,31.2v65.3l54.1,31.2,55.4-31.7ZM-96.9,356.5l52.9-30.5,52.9,30.5v61.1l-52.9,30.5-52.9-30.5v-61.1Z"/>
                        <rect class="cls-2" x="-45.2" y="324.5" width="2.5" height="125"/>
                        <polygon class="cls-2" points="10.7 356.8 9.5 354.7 -98.1 416.8 -98.1 418.3 -97.5 419.3 10.7 356.8"/>
                        <polygon class="cls-2" points="10.7 417.2 -97.5 354.7 -98.1 355.7 -98.1 357.2 9.5 419.3 10.7 417.2"/>
                      </g>
                      <path class="cls-2" d="M-37.2,387c0,3.7-3,6.8-6.8,6.8s-6.8-3-6.8-6.8,3-6.8,6.8-6.8,6.8,3.1,6.8,6.8Z"/>
                      <g>
                        <path class="cls-2" d="M64.2,450.9l-55.3-31.9v-64l55.4-32,55.4,32v64l-55.5,31.9ZM11.4,417.5l52.9,30.5,52.9-30.5v-61.1l-52.9-30.5-52.9,30.5s0,61.1,0,61.1Z"/>
                        <rect class="cls-2" x="63" y="324.5" width="2.5" height="125"/>
                        <rect class="cls-2" x="1.7" y="385.8" width="125" height="2.5" transform="translate(-184.9 84) rotate(-30)"/>
                        <rect class="cls-2" x="63" y="324.5" width="2.5" height="125" transform="translate(-303 249.1) rotate(-60)"/>
                      </g>
                      <path class="cls-2" d="M71,387c0,3.7-3,6.8-6.8,6.8s-6.8-3-6.8-6.8,3-6.8,6.8-6.8,6.8,3.1,6.8,6.8Z"/>
                      <g>
                        <path class="cls-2" d="M172.5,450.9l-55.4-32v-63.9l55.4-32,55.4,32v64l-55.4,31.9ZM119.6,417.5l52.9,30.5,52.9-30.5v-61.1l-52.9-30.5-52.9,30.5v61.1Z"/>
                        <rect class="cls-2" x="171.3" y="324.5" width="2.5" height="125"/>
                        <rect class="cls-2" x="110" y="385.8" width="125" height="2.5" transform="translate(-170.4 138.1) rotate(-30)"/>
                        <rect class="cls-2" x="171.3" y="324.5" width="2.5" height="125" transform="translate(-248.9 342.9) rotate(-60)"/>
                      </g>
                      <path class="cls-2" d="M179.3,387c0,3.7-3,6.8-6.8,6.8s-6.8-3-6.8-6.8,3-6.8,6.8-6.8,6.8,3.1,6.8,6.8Z"/>
                      <g>
                        <path class="cls-2" d="M280.8,450.9l-55.4-32v-63.9l55.4-32,55.4,32v64l-55.4,31.9ZM227.9,417.5l52.9,30.5,52.9-30.5v-61.1l-52.9-30.5-52.9,30.5v61.1Z"/>
                        <rect class="cls-2" x="279.5" y="324.5" width="2.5" height="125"/>
                        <rect class="cls-2" x="218.3" y="385.8" width="125" height="2.5" transform="translate(-155.9 192.3) rotate(-30)"/>
                        <rect class="cls-2" x="279.5" y="324.5" width="2.5" height="125" transform="translate(-194.8 436.6) rotate(-60)"/>
                      </g>
                      <path class="cls-2" d="M287.5,387c0,3.7-3,6.8-6.8,6.8s-6.8-3-6.8-6.8,3-6.8,6.8-6.8,6.8,3.1,6.8,6.8Z"/>
                      <g>
                        <path class="cls-2" d="M389,323.1l-55.4,32v63.9l55.4,32,54.1-31.2v-65.3l-54.1-31.4ZM389,448.1l-52.9-30.5v-61.1l52.9-30.5,52.9,30.5v61.1l-52.9,30.5Z"/>
                        <rect class="cls-2" x="387.8" y="324.5" width="2.5" height="125"/>
                        <polygon class="cls-2" points="334.3 417.2 335.5 419.3 443.1 357.2 443.1 355.7 442.5 354.7 334.3 417.2"/>
                        <polygon class="cls-2" points="334.3 356.8 442.5 419.3 443.1 418.3 443.1 416.8 335.5 354.7 334.3 356.8"/>
                      </g>
                      <path class="cls-2" d="M395.8,387c0,3.7-3,6.8-6.8,6.8s-6.8-3-6.8-6.8,3-6.8,6.8-6.8,6.8,3.1,6.8,6.8Z"/>
                      <g>
                        <polygon class="cls-2" points="441.9 355 441.9 419 443.1 419.7 443.1 354.3 441.9 355"/>
                        <polygon class="cls-2" points="442.5 417.2 443.1 418.3 443.1 416.8 442.5 417.2"/>
                        <polygon class="cls-2" points="442.5 356.8 443.1 357.2 443.1 355.7 442.5 356.8"/>
                      </g>
                      <g>
                        <polygon class="cls-2" points="-96.9 480 -98.1 479.3 -98.1 544.7 -96.9 544 -96.9 480"/>
                        <polygon class="cls-2" points="-98.1 480.7 -98.1 482.2 -97.5 481.8 -98.1 480.7"/>
                        <polygon class="cls-2" points="-98.1 541.8 -98.1 543.3 -97.5 542.2 -98.1 541.8"/>
                      </g>
                      <g>
                        <path class="cls-2" d="M11.4,544v-64l-55.4-32-54.1,31.2v65.3l54.1,31.2,55.4-31.7ZM-96.9,481.5l52.9-30.5,52.9,30.5v61.1l-52.9,30.5-52.9-30.5v-61.1Z"/>
                        <rect class="cls-2" x="-45.2" y="449.5" width="2.5" height="125"/>
                        <polygon class="cls-2" points="10.7 481.8 9.5 479.7 -98.1 541.8 -98.1 543.3 -97.5 544.3 10.7 481.8"/>
                        <polygon class="cls-2" points="10.7 542.2 -97.5 479.7 -98.1 480.7 -98.1 482.2 9.5 544.3 10.7 542.2"/>
                      </g>
                      <circle class="cls-2" cx="-44" cy="512" r="6.8"/>
                      <g>
                        <path class="cls-2" d="M64.2,575.9l-55.3-31.9v-64l55.4-32,55.4,32v64l-55.5,31.9ZM11.4,542.5l52.9,30.5,52.9-30.5v-61.1l-52.9-30.5-52.9,30.5s0,61.1,0,61.1Z"/>
                        <rect class="cls-2" x="63" y="449.5" width="2.5" height="125"/>
                        <rect class="cls-2" x="1.7" y="510.8" width="125" height="2.5" transform="translate(-247.4 100.7) rotate(-30)"/>
                        <rect class="cls-2" x="63" y="449.5" width="2.5" height="125" transform="translate(-411.3 311.6) rotate(-60)"/>
                      </g>
                      <circle class="cls-2" cx="64.2" cy="512" r="6.8" transform="translate(-449.7 559.1) rotate(-88.1)"/>
                      <g>
                        <path class="cls-2" d="M172.5,575.9l-55.4-32v-63.9l55.4-32,55.4,32v64l-55.4,31.9ZM119.6,542.5l52.9,30.5,52.9-30.5v-61.1l-52.9-30.5-52.9,30.5v61.1Z"/>
                        <rect class="cls-2" x="171.3" y="449.5" width="2.5" height="125"/>
                        <rect class="cls-2" x="110" y="510.8" width="125" height="2.5" transform="translate(-232.9 154.9) rotate(-30)"/>
                        <rect class="cls-2" x="171.3" y="449.5" width="2.5" height="125" transform="translate(-357.1 405.4) rotate(-60)"/>
                      </g>
                      <circle class="cls-2" cx="172.5" cy="512" r="6.8"/>
                      <g>
                        <path class="cls-2" d="M280.8,575.9l-55.4-32v-63.9l55.4-32,55.4,32v64l-55.4,31.9ZM227.9,542.5l52.9,30.5,52.9-30.5v-61.1l-52.9-30.5-52.9,30.5v61.1Z"/>
                        <rect class="cls-2" x="279.5" y="449.5" width="2.5" height="125"/>
                        <rect class="cls-2" x="218.3" y="510.8" width="125" height="2.5" transform="translate(-218.4 209) rotate(-30)"/>
                        <rect class="cls-2" x="279.5" y="449.5" width="2.5" height="125" transform="translate(-303 499.1) rotate(-60)"/>
                      </g>
                      <circle class="cls-2" cx="280.8" cy="512" r="6.8"/>
                      <g>
                        <path class="cls-2" d="M389,448.1l-55.4,32v63.9l55.4,32,54.1-31.2v-65.3l-54.1-31.4ZM389,573.1l-52.9-30.5v-61.1l52.9-30.5,52.9,30.5v61.1l-52.9,30.5Z"/>
                        <rect class="cls-2" x="387.8" y="449.5" width="2.5" height="125"/>
                        <polygon class="cls-2" points="334.3 542.2 335.5 544.3 443.1 482.2 443.1 480.7 442.5 479.7 334.3 542.2"/>
                        <polygon class="cls-2" points="334.3 481.8 442.5 544.3 443.1 543.3 443.1 541.8 335.5 479.7 334.3 481.8"/>
                      </g>
                      <circle class="cls-2" cx="389" cy="512" r="6.8"/>
                      <g>
                        <polygon class="cls-2" points="441.9 480 441.9 544 443.1 544.7 443.1 479.3 441.9 480"/>
                        <polygon class="cls-2" points="442.5 542.2 443.1 543.2 443.1 541.8 442.5 542.2"/>
                        <polygon class="cls-2" points="442.5 481.8 443.1 482.2 443.1 480.7 442.5 481.8"/>
                      </g>
                      <g>
                        <polygon class="cls-2" points="-96.9 605 -98.1 604.3 -98.1 669.7 -96.9 669 -96.9 605"/>
                        <polygon class="cls-2" points="-98.1 605.7 -98.1 607.2 -97.5 606.8 -98.1 605.7"/>
                        <polygon class="cls-2" points="-98.1 666.8 -98.1 668.3 -97.5 667.2 -98.1 666.8"/>
                      </g>
                      <g>
                        <path class="cls-2" d="M11.4,605l-55.4-32-54.1,31.2v65.3l51.7,29.8h4.9l52.9-30.3v-64ZM8.9,667.5l-52.9,30.6-52.9-30.5v-61.1l52.9-30.5,52.9,30.5s0,61,0,61Z"/>
                        <rect class="cls-2" x="-45.2" y="574.5" width="2.5" height="125"/>
                        <polygon class="cls-2" points="10.7 606.8 9.5 604.7 -98.1 666.8 -98.1 668.3 -97.5 669.3 10.7 606.8"/>
                        <polygon class="cls-2" points="10.7 667.2 -97.5 604.7 -98.1 605.7 -98.1 607.2 9.5 669.3 10.7 667.2"/>
                      </g>
                      <path class="cls-2" d="M-37.2,637c0,3.7-3,6.8-6.8,6.8s-6.8-3-6.8-6.8,3-6.8,6.8-6.8,6.8,3.1,6.8,6.8Z"/>
                      <g>
                        <path class="cls-2" d="M119.6,605l-55.4-32-55.3,32v64l52.9,30.5h4.9l52.9-30.5s0-64,0-64ZM117.1,667.5l-52.9,30.5-52.9-30.5v-61.1l52.9-30.5,52.9,30.5v61.1Z"/>
                        <rect class="cls-2" x="63" y="574.5" width="2.5" height="125"/>
                        <rect class="cls-2" x="1.7" y="635.8" width="125" height="2.5" transform="translate(-309.9 117.5) rotate(-30)"/>
                        <rect class="cls-2" x="63" y="574.5" width="2.5" height="125" transform="translate(-519.5 374.1) rotate(-60)"/>
                      </g>
                      <path class="cls-2" d="M71,637c0,3.7-3,6.8-6.8,6.8s-6.8-3-6.8-6.8,3-6.8,6.8-6.8,6.8,3.1,6.8,6.8Z"/>
                      <g>
                        <path class="cls-2" d="M227.9,605l-55.4-32-55.4,32v64l52.9,30.5h4.9l52.9-30.5v-64h.1ZM225.4,667.5l-52.9,30.5-52.9-30.5v-61.1l52.9-30.5,52.9,30.5v61.1Z"/>
                        <rect class="cls-2" x="171.3" y="574.5" width="2.5" height="125"/>
                        <rect class="cls-2" x="110" y="635.8" width="125" height="2.5" transform="translate(-295.4 171.6) rotate(-30)"/>
                        <rect class="cls-2" x="171.3" y="574.5" width="2.5" height="125" transform="translate(-465.4 467.9) rotate(-60)"/>
                      </g>
                      <path class="cls-2" d="M179.3,637c0,3.7-3,6.8-6.8,6.8s-6.8-3-6.8-6.8,3-6.8,6.8-6.8,6.8,3.1,6.8,6.8Z"/>
                      <g>
                        <path class="cls-2" d="M336.1,605l-55.4-32-55.4,32v64l52.9,30.5h4.9l52.9-30.5v-64h.1ZM333.6,667.5l-52.9,30.5-52.9-30.5v-61.1l52.9-30.5,52.9,30.5v61.1Z"/>
                        <rect class="cls-2" x="279.5" y="574.5" width="2.5" height="125"/>
                        <rect class="cls-2" x="218.3" y="635.8" width="125" height="2.5" transform="translate(-280.9 225.8) rotate(-30)"/>
                        <rect class="cls-2" x="279.5" y="574.5" width="2.5" height="125" transform="translate(-411.3 561.6) rotate(-60)"/>
                      </g>
                      <path class="cls-2" d="M287.5,637c0,3.7-3,6.8-6.8,6.8s-6.8-3-6.8-6.8,3-6.8,6.8-6.8,6.8,3.1,6.8,6.8Z"/>
                      <g>
                        <path class="cls-2" d="M389,573.1l-55.4,32v63.9l52.9,30.5h4.9l51.7-29.8v-65.3l-54.1-31.3ZM389,698.1l-52.9-30.5v-61.1l52.9-30.5,52.9,30.5v61.1l-52.9,30.5Z"/>
                        <rect class="cls-2" x="387.8" y="574.5" width="2.5" height="125"/>
                        <polygon class="cls-2" points="334.3 667.2 335.5 669.3 443.1 607.2 443.1 605.7 442.5 604.7 334.3 667.2"/>
                        <polygon class="cls-2" points="334.3 606.8 442.5 669.3 443.1 668.3 443.1 666.8 335.5 604.7 334.3 606.8"/>
                      </g>
                      <path class="cls-2" d="M395.8,637c0,3.7-3,6.8-6.8,6.8s-6.8-3-6.8-6.8,3-6.8,6.8-6.8,6.8,3.1,6.8,6.8Z"/>
                      <g>
                        <polygon class="cls-2" points="441.9 605 441.9 669 443.1 669.7 443.1 604.3 441.9 605"/>
                        <polygon class="cls-2" points="442.5 667.2 443.1 668.3 443.1 666.8 442.5 667.2"/>
                        <polygon class="cls-2" points="442.5 606.8 443.1 607.2 443.1 605.7 442.5 606.8"/>
                      </g>
                      <polygon class="cls-2" points="-46.5 699.5 -41.5 699.5 -44 698.1 -46.5 699.5"/>
                      <polygon class="cls-2" points="61.8 699.5 66.7 699.5 64.2 698.1 61.8 699.5"/>
                      <polygon class="cls-2" points="170 699.5 175 699.5 172.5 698.1 170 699.5"/>
                      <polygon class="cls-2" points="278.3 699.5 283.2 699.5 280.8 698.1 278.3 699.5"/>
                      <polygon class="cls-2" points="389 698.1 386.5 699.5 391.5 699.5 389 698.1"/>
                    </g>
                    <g>
                      <g>
                        <polygon class="cls-2" points="-42.8 199.5 -45.2 199.5 -45.2 230 -98.1 260.6 -98.1 263.4 -42.8 231.5 -42.8 199.5"/>
                        <rect class="cls-2" x="-98.1" y="199.5" width="1.2" height="62.5"/>
                        <polygon class="cls-2" points="-98.1 199.5 -98.1 200.9 -95.7 199.5 -98.1 199.5"/>
                        <polygon class="cls-2" points="-43.4 229.7 -95.7 199.5 -98.1 199.5 -98.1 200.9 -44.6 231.8 -43.4 229.7"/>
                      </g>
                      <path class="cls-2" d="M-91.4,199.5h-6.8v6.8c3.8,0,6.8-3.1,6.8-6.8Z"/>
                      <g>
                        <polygon class="cls-2" points="10.1 263.4 65.5 231.5 65.5 199.5 63 199.5 63 230 10.1 260.6 -42.8 230 -42.8 199.5 -45.2 199.5 -45.2 231.5 10.1 263.4"/>
                        <rect class="cls-2" x="8.9" y="199.5" width="2.5" height="62.5"/>
                        <polygon class="cls-2" points="-43.4 231.8 12.6 199.5 7.7 199.5 -44.6 229.7 -43.4 231.8"/>
                        <polygon class="cls-2" points="64.9 229.7 12.6 199.5 7.7 199.5 63.6 231.8 64.9 229.7"/>
                      </g>
                      <path class="cls-2" d="M10.1,206.3c3.7,0,6.8-3,6.8-6.8H3.4c0,3.7,3,6.8,6.7,6.8Z"/>
                      <g>
                        <polygon class="cls-2" points="118.4 263.4 173.7 231.5 173.7 199.5 171.3 199.5 171.3 230 118.4 260.6 65.5 230 65.5 199.5 63 199.5 63 231.5 118.4 263.4"/>
                        <rect class="cls-2" x="117.1" y="199.5" width="2.5" height="62.5"/>
                        <polygon class="cls-2" points="64.9 231.8 120.8 199.5 115.9 199.5 63.6 229.7 64.9 231.8"/>
                        <polygon class="cls-2" points="173.1 229.7 120.8 199.5 115.9 199.5 171.9 231.8 173.1 229.7"/>
                      </g>
                      <path class="cls-2" d="M118.4,206.3c3.7,0,6.8-3,6.8-6.8h-13.5c-.1,3.7,2.9,6.8,6.7,6.8Z"/>
                      <g>
                        <polygon class="cls-2" points="226.6 263.4 282 231.5 282 199.5 279.5 199.5 279.5 230 226.6 260.6 173.7 230 173.7 199.5 171.3 199.5 171.3 231.5 226.6 263.4"/>
                        <rect class="cls-2" x="225.4" y="199.5" width="2.5" height="62.5"/>
                        <polygon class="cls-2" points="173.1 231.8 229.1 199.5 224.2 199.5 171.9 229.7 173.1 231.8"/>
                        <polygon class="cls-2" points="281.4 229.7 229.1 199.5 224.2 199.5 280.1 231.8 281.4 229.7"/>
                      </g>
                      <path class="cls-2" d="M226.6,206.3c3.7,0,6.8-3,6.8-6.8h-13.5c0,3.7,3,6.8,6.7,6.8Z"/>
                      <g>
                        <polygon class="cls-2" points="334.9 263.4 390.2 231.5 390.2 199.5 387.8 199.5 387.8 230 334.9 260.6 282 230 282 199.5 279.5 199.5 279.5 231.5 334.9 263.4"/>
                        <rect class="cls-2" x="333.6" y="199.5" width="2.5" height="62.5"/>
                        <polygon class="cls-2" points="281.4 231.8 337.3 199.5 332.4 199.5 280.1 229.7 281.4 231.8"/>
                        <polygon class="cls-2" points="389.6 229.7 337.3 199.5 332.4 199.5 388.4 231.8 389.6 229.7"/>
                      </g>
                      <path class="cls-2" d="M334.9,206.3c3.7,0,6.8-3,6.8-6.8h-13.5c0,3.7,2.9,6.8,6.7,6.8Z"/>
                      <g>
                        <polygon class="cls-2" points="390.2 230 390.2 199.5 387.8 199.5 387.8 231.5 443.1 263.4 443.1 260.6 390.2 230"/>
                        <rect class="cls-2" x="441.9" y="199.5" width="1.2" height="62.5"/>
                        <polygon class="cls-2" points="389.6 231.8 443.1 200.9 443.1 199.5 440.7 199.5 388.4 229.7 389.6 231.8"/>
                        <polygon class="cls-2" points="440.7 199.5 443.1 200.9 443.1 199.5 440.7 199.5"/>
                      </g>
                      <path class="cls-2" d="M436.4,199.5c0,3.7,3,6.8,6.8,6.8h0v-6.8h-6.8Z"/>
                      <g>
                        <polygon class="cls-2" points="-42.8 292.5 -98.1 260.6 -98.1 263.4 -45.2 294 -45.2 355 -98.1 385.6 -98.1 388.4 -42.8 356.5 -42.8 292.5"/>
                        <rect class="cls-2" x="-98.1" y="262" width="1.2" height="125"/>
                        <polygon class="cls-2" points="-44.6 292.2 -98.1 323.1 -98.1 325.9 -43.4 294.3 -44.6 292.2"/>
                        <polygon class="cls-2" points="-43.4 354.7 -98.1 323.1 -98.1 325.9 -44.6 356.8 -43.4 354.7"/>
                      </g>
                      <path class="cls-2" d="M-91.4,324.5c0-3.7-3-6.8-6.8-6.8v13.5c3.8,0,6.8-3,6.8-6.7Z"/>
                      <g>
                        <path class="cls-2" d="M10.1,388.4l-55.4-32v-63.9l55.4-32,55.4,32v63.9l-55.4,32ZM-42.8,355l52.9,30.5,52.9-30.5v-61l-52.9-30.5-52.9,30.5v61Z"/>
                        <rect class="cls-2" x="8.9" y="262" width="2.5" height="125"/>
                        <rect class="cls-2" x="-52.4" y="323.3" width="125" height="2.5" transform="translate(-160.9 48.5) rotate(-30)"/>
                        <rect class="cls-2" x="8.9" y="262" width="2.5" height="125" transform="translate(-275.9 171) rotate(-60)"/>
                      </g>
                      <path class="cls-2" d="M16.9,324.5c0,3.7-3,6.8-6.8,6.8s-6.8-3-6.8-6.8,3-6.8,6.8-6.8,6.8,3.1,6.8,6.8Z"/>
                      <g>
                        <path class="cls-2" d="M118.4,388.4l-55.4-32v-63.9l55.4-32,55.4,32v63.9l-55.4,32ZM65.5,355l52.9,30.5,52.9-30.5v-61l-52.9-30.5-52.9,30.5v61Z"/>
                        <rect class="cls-2" x="117.1" y="262" width="2.5" height="125"/>
                        <rect class="cls-2" x="55.9" y="323.3" width="125" height="2.5" transform="translate(-146.4 102.7) rotate(-30)"/>
                        <rect class="cls-2" x="117.1" y="262" width="2.5" height="125" transform="translate(-221.9 264.8) rotate(-60)"/>
                      </g>
                      <path class="cls-2" d="M125.1,324.5c0,3.7-3,6.8-6.8,6.8s-6.8-3-6.8-6.8,3-6.8,6.8-6.8,6.8,3.1,6.8,6.8Z"/>
                      <g>
                        <path class="cls-2" d="M226.6,388.4l-55.4-32v-63.9l55.4-32,55.4,32v63.9l-55.4,32ZM173.7,355l52.9,30.5,52.9-30.5v-61l-52.9-30.5-52.9,30.5v61Z"/>
                        <rect class="cls-2" x="225.4" y="262" width="2.5" height="125"/>
                        <rect class="cls-2" x="164.1" y="323.3" width="125" height="2.5" transform="translate(-131.9 156.8) rotate(-30)"/>
                        <rect class="cls-2" x="225.4" y="262" width="2.5" height="125" transform="translate(-167.7 358.5) rotate(-60)"/>
                      </g>
                      <path class="cls-2" d="M233.4,324.5c0,3.7-3,6.8-6.8,6.8s-6.8-3-6.8-6.8,3-6.8,6.8-6.8,6.8,3.1,6.8,6.8Z"/>
                      <g>
                        <path class="cls-2" d="M334.9,388.4l-55.4-32v-63.9l55.4-32,55.4,32v63.9l-55.4,32ZM282,355l52.9,30.5,52.9-30.5v-61l-52.9-30.5-52.9,30.5v61Z"/>
                        <rect class="cls-2" x="333.6" y="262" width="2.5" height="125"/>
                        <rect class="cls-2" x="272.4" y="323.3" width="125" height="2.5" transform="translate(-117.4 210.9) rotate(-30)"/>
                        <rect class="cls-2" x="333.6" y="262" width="2.5" height="125" transform="translate(-113.6 452.3) rotate(-60)"/>
                      </g>
                      <path class="cls-2" d="M341.6,324.5c0,3.7-3,6.8-6.8,6.8s-6.8-3-6.8-6.8,3-6.8,6.8-6.8,6.8,3.1,6.8,6.8Z"/>
                      <g>
                        <polygon class="cls-2" points="390.2 355 390.2 294 443.1 263.4 443.1 260.6 387.8 292.5 387.8 356.5 443.1 388.4 443.1 385.6 390.2 355"/>
                        <rect class="cls-2" x="441.9" y="262" width="1.2" height="125"/>
                        <polygon class="cls-2" points="389.6 356.8 443.1 325.9 443.1 323.1 388.4 354.7 389.6 356.8"/>
                        <polygon class="cls-2" points="389.6 292.2 388.4 294.3 443.1 325.9 443.1 323.1 389.6 292.2"/>
                      </g>
                      <path class="cls-2" d="M443.1,317.7c-3.7,0-6.8,3-6.8,6.8s3,6.8,6.8,6.8h0v-13.6h0Z"/>
                      <g>
                        <polygon class="cls-2" points="-42.8 417.5 -98.1 385.6 -98.1 388.4 -45.2 419 -45.2 480 -98.1 510.6 -98.1 513.4 -42.8 481.5 -42.8 417.5"/>
                        <rect class="cls-2" x="-98.1" y="387" width="1.2" height="125"/>
                        <polygon class="cls-2" points="-44.6 417.2 -98.1 448.1 -98.1 450.9 -43.4 419.3 -44.6 417.2"/>
                        <polygon class="cls-2" points="-43.4 479.7 -98.1 448.1 -98.1 450.9 -44.6 481.8 -43.4 479.7"/>
                      </g>
                      <path class="cls-2" d="M-91.4,449.5c0-3.7-3-6.8-6.8-6.8v13.5c3.8,0,6.8-3,6.8-6.7Z"/>
                      <g>
                        <path class="cls-2" d="M10.1,513.4l-55.4-32v-63.9l55.4-32,55.4,32v63.9l-55.4,32ZM-42.8,480l52.9,30.5,52.9-30.5v-61l-52.9-30.5-52.9,30.5v61Z"/>
                        <rect class="cls-2" x="8.9" y="387" width="2.5" height="125"/>
                        <rect class="cls-2" x="-52.4" y="448.3" width="125" height="2.5" transform="translate(-223.4 65.3) rotate(-30)"/>
                        <rect class="cls-2" x="8.9" y="387" width="2.5" height="125" transform="translate(-384.2 233.5) rotate(-60)"/>
                      </g>
                      <circle class="cls-2" cx="10.1" cy="449.5" r="6.8" transform="translate(-439.5 455.5) rotate(-89.5)"/>
                      <g>
                        <path class="cls-2" d="M118.4,513.4l-55.4-32v-63.9l55.4-32,55.4,32v63.9l-55.4,32ZM65.5,480l52.9,30.5,52.9-30.5v-61l-52.9-30.5-52.9,30.5v61Z"/>
                        <rect class="cls-2" x="117.1" y="387" width="2.5" height="125"/>
                        <rect class="cls-2" x="55.9" y="448.3" width="125" height="2.5" transform="translate(-208.9 119.4) rotate(-30)"/>
                        <rect class="cls-2" x="117.1" y="387" width="2.5" height="125" transform="translate(-330.1 327.3) rotate(-60)"/>
                      </g>
                      <circle class="cls-2" cx="118.4" cy="449.5" r="6.8"/>
                      <g>
                        <path class="cls-2" d="M226.6,513.4l-55.4-32v-63.9l55.4-32,55.4,32v63.9l-55.4,32ZM173.7,480l52.9,30.5,52.9-30.5v-61l-52.9-30.5-52.9,30.5v61Z"/>
                        <rect class="cls-2" x="225.4" y="387" width="2.5" height="125"/>
                        <rect class="cls-2" x="164.1" y="448.3" width="125" height="2.5" transform="translate(-194.4 173.5) rotate(-30)"/>
                        <rect class="cls-2" x="225.4" y="387" width="2.5" height="125" transform="translate(-276 421) rotate(-60)"/>
                      </g>
                      <circle class="cls-2" cx="226.6" cy="449.5" r="6.8"/>
                      <g>
                        <path class="cls-2" d="M334.9,513.4l-55.4-32v-63.9l55.4-32,55.4,32v63.9l-55.4,32ZM282,480l52.9,30.5,52.9-30.5v-61l-52.9-30.5-52.9,30.5v61Z"/>
                        <rect class="cls-2" x="333.6" y="387" width="2.5" height="125"/>
                        <rect class="cls-2" x="272.4" y="448.3" width="125" height="2.5" transform="translate(-179.9 227.7) rotate(-30)"/>
                        <rect class="cls-2" x="333.6" y="387" width="2.5" height="125" transform="translate(-221.9 514.8) rotate(-60)"/>
                      </g>
                      <circle class="cls-2" cx="334.9" cy="449.5" r="6.8"/>
                      <g>
                        <polygon class="cls-2" points="390.2 480 390.2 419 443.1 388.4 443.1 385.6 387.8 417.5 387.8 481.5 443.1 513.4 443.1 510.6 390.2 480"/>
                        <rect class="cls-2" x="441.9" y="387" width="1.2" height="125"/>
                        <polygon class="cls-2" points="389.6 481.8 443.1 450.9 443.1 448.1 388.4 479.7 389.6 481.8"/>
                        <polygon class="cls-2" points="389.6 417.2 388.4 419.3 443.1 450.9 443.1 448.1 389.6 417.2"/>
                      </g>
                      <path class="cls-2" d="M443.1,442.7c-3.7,0-6.8,3-6.8,6.8s3,6.8,6.8,6.8h0v-13.6h0Z"/>
                      <g>
                        <polygon class="cls-2" points="-42.8 542.5 -98.1 510.6 -98.1 513.4 -45.2 544 -45.2 605 -98.1 635.6 -98.1 638.4 -42.8 606.5 -42.8 542.5"/>
                        <rect class="cls-2" x="-98.1" y="512" width="1.2" height="125"/>
                        <polygon class="cls-2" points="-44.6 542.2 -98.1 573.1 -98.1 575.9 -43.4 544.3 -44.6 542.2"/>
                        <polygon class="cls-2" points="-43.4 604.7 -98.1 573.1 -98.1 575.9 -44.6 606.8 -43.4 604.7"/>
                      </g>
                      <path class="cls-2" d="M-91.4,574.5c0-3.7-3-6.8-6.8-6.8v13.5c3.8,0,6.8-3,6.8-6.7Z"/>
                      <g>
                        <path class="cls-2" d="M10.1,638.4l-55.4-32v-63.9l55.4-32,55.4,32v63.9l-55.4,32ZM-42.8,605l52.9,30.5,52.9-30.5v-61l-52.9-30.5-52.9,30.5v61Z"/>
                        <rect class="cls-2" x="8.9" y="512" width="2.5" height="125"/>
                        <rect class="cls-2" x="-52.4" y="573.3" width="125" height="2.5" transform="translate(-285.9 82) rotate(-30)"/>
                        <rect class="cls-2" x="8.9" y="512" width="2.5" height="125" transform="translate(-492.4 296) rotate(-60)"/>
                      </g>
                      <path class="cls-2" d="M16.9,574.5c0,3.7-3,6.8-6.8,6.8s-6.8-3-6.8-6.8,3-6.8,6.8-6.8,6.8,3.1,6.8,6.8Z"/>
                      <g>
                        <path class="cls-2" d="M118.4,638.4l-55.4-32v-63.9l55.4-32,55.4,32v63.9l-55.4,32ZM65.5,605l52.9,30.5,52.9-30.5v-61l-52.9-30.5-52.9,30.5v61Z"/>
                        <rect class="cls-2" x="117.1" y="512" width="2.5" height="125"/>
                        <rect class="cls-2" x="55.9" y="573.3" width="125" height="2.5" transform="translate(-271.4 136.2) rotate(-30)"/>
                        <rect class="cls-2" x="117.1" y="512" width="2.5" height="125" transform="translate(-438.4 389.7) rotate(-60)"/>
                      </g>
                      <path class="cls-2" d="M125.1,574.5c0,3.7-3,6.8-6.8,6.8s-6.8-3-6.8-6.8,3-6.8,6.8-6.8,6.8,3.1,6.8,6.8Z"/>
                      <g>
                        <path class="cls-2" d="M226.6,638.4l-55.4-32v-63.9l55.4-32,55.4,32v63.9l-55.4,32ZM173.7,605l52.9,30.5,52.9-30.5v-61l-52.9-30.5-52.9,30.5v61Z"/>
                        <rect class="cls-2" x="225.4" y="512" width="2.5" height="125"/>
                        <rect class="cls-2" x="164.1" y="573.3" width="125" height="2.5" transform="translate(-256.9 190.3) rotate(-30)"/>
                        <rect class="cls-2" x="225.4" y="512" width="2.5" height="125" transform="translate(-384.2 483.5) rotate(-60)"/>
                      </g>
                      <path class="cls-2" d="M233.4,574.5c0,3.7-3,6.8-6.8,6.8s-6.8-3-6.8-6.8,3-6.8,6.8-6.8,6.8,3.1,6.8,6.8Z"/>
                      <g>
                        <path class="cls-2" d="M334.9,638.4l-55.4-32v-63.9l55.4-32,55.4,32v63.9l-55.4,32ZM282,605l52.9,30.5,52.9-30.5v-61l-52.9-30.5-52.9,30.5v61Z"/>
                        <rect class="cls-2" x="333.6" y="512" width="2.5" height="125"/>
                        <rect class="cls-2" x="272.4" y="573.3" width="125" height="2.5" transform="translate(-242.4 244.4) rotate(-30)"/>
                        <rect class="cls-2" x="333.6" y="512" width="2.5" height="125" transform="translate(-330.1 577.2) rotate(-60)"/>
                      </g>
                      <path class="cls-2" d="M341.6,574.5c0,3.7-3,6.8-6.8,6.8s-6.8-3-6.8-6.8,3-6.8,6.8-6.8,6.8,3.1,6.8,6.8Z"/>
                      <g>
                        <polygon class="cls-2" points="390.2 605 390.2 544 443.1 513.4 443.1 510.6 387.8 542.5 387.8 606.5 443.1 638.4 443.1 635.6 390.2 605"/>
                        <rect class="cls-2" x="441.9" y="512" width="1.2" height="125"/>
                        <polygon class="cls-2" points="389.6 606.8 443.1 575.9 443.1 573.1 388.4 604.7 389.6 606.8"/>
                        <polygon class="cls-2" points="389.6 542.2 388.4 544.3 443.1 575.9 443.1 573.1 389.6 542.2"/>
                      </g>
                      <path class="cls-2" d="M443.1,567.7c-3.7,0-6.8,3-6.8,6.8s3,6.8,6.8,6.8h0v-13.6h0Z"/>
                      <g>
                        <polygon class="cls-2" points="-98.1 635.6 -98.1 638.4 -45.2 669 -45.2 699.5 -42.8 699.5 -42.8 667.5 -98.1 635.6"/>
                        <rect class="cls-2" x="-98.1" y="637" width="1.2" height="62.5"/>
                        <polygon class="cls-2" points="-44.6 667.2 -98.1 698.1 -98.1 699.5 -95.7 699.5 -43.4 669.3 -44.6 667.2"/>
                        <polygon class="cls-2" points="-98.1 699.5 -95.7 699.5 -98.1 698.1 -98.1 699.5"/>
                      </g>
                      <path class="cls-2" d="M-98.1,692.7v6.8h6.8c-.1-3.7-3.1-6.8-6.8-6.8Z"/>
                      <g>
                        <polygon class="cls-2" points="10.1 635.6 -45.2 667.5 -45.2 699.5 -42.8 699.5 -42.8 669 10.1 638.4 63 669 63 699.5 65.5 699.5 65.5 667.5 10.1 635.6"/>
                        <rect class="cls-2" x="8.9" y="637" width="2.5" height="62.5"/>
                        <polygon class="cls-2" points="63.6 667.2 7.7 699.5 12.6 699.5 64.9 669.3 63.6 667.2"/>
                        <polygon class="cls-2" points="-44.6 669.3 7.7 699.5 12.6 699.5 -43.4 667.2 -44.6 669.3"/>
                      </g>
                      <path class="cls-2" d="M10.1,692.7c-3.7,0-6.8,3-6.8,6.8h13.5c.1-3.7-2.9-6.8-6.7-6.8Z"/>
                      <g>
                        <polygon class="cls-2" points="118.4 635.6 63 667.5 63 699.5 65.5 699.5 65.5 669 118.4 638.4 171.3 669 171.3 699.5 173.7 699.5 173.7 667.5 118.4 635.6"/>
                        <rect class="cls-2" x="117.1" y="637" width="2.5" height="62.5"/>
                        <polygon class="cls-2" points="171.9 667.2 115.9 699.5 120.8 699.5 173.1 669.3 171.9 667.2"/>
                        <polygon class="cls-2" points="63.6 669.3 115.9 699.5 120.8 699.5 64.9 667.2 63.6 669.3"/>
                      </g>
                      <path class="cls-2" d="M118.4,692.7c-3.7,0-6.8,3-6.8,6.8h13.5c0-3.7-3-6.8-6.7-6.8Z"/>
                      <g>
                        <polygon class="cls-2" points="226.6 635.6 171.3 667.5 171.3 699.5 173.7 699.5 173.7 669 226.6 638.4 279.5 669 279.5 699.5 282 699.5 282 667.5 226.6 635.6"/>
                        <rect class="cls-2" x="225.4" y="637" width="2.5" height="62.5"/>
                        <polygon class="cls-2" points="280.1 667.2 224.2 699.5 229.1 699.5 281.4 669.3 280.1 667.2"/>
                        <polygon class="cls-2" points="171.9 669.3 224.2 699.5 229.1 699.5 173.1 667.2 171.9 669.3"/>
                      </g>
                      <path class="cls-2" d="M226.6,692.7c-3.7,0-6.8,3-6.8,6.8h13.5c0-3.7-2.9-6.8-6.7-6.8Z"/>
                      <g>
                        <polygon class="cls-2" points="334.9 635.6 279.5 667.5 279.5 699.5 282 699.5 282 669 334.9 638.4 387.8 669 387.8 699.5 390.2 699.5 390.2 667.5 334.9 635.6"/>
                        <rect class="cls-2" x="333.6" y="637" width="2.5" height="62.5"/>
                        <polygon class="cls-2" points="388.4 667.2 332.4 699.5 337.3 699.5 389.6 669.3 388.4 667.2"/>
                        <polygon class="cls-2" points="280.1 669.3 332.4 699.5 337.3 699.5 281.4 667.2 280.1 669.3"/>
                      </g>
                      <path class="cls-2" d="M334.9,692.7c-3.7,0-6.8,3-6.8,6.8h13.5c0-3.7-3-6.8-6.7-6.8Z"/>
                      <g>
                        <polygon class="cls-2" points="390.2 669 443.1 638.4 443.1 635.6 387.8 667.5 387.8 699.5 390.2 699.5 390.2 669"/>
                        <rect class="cls-2" x="441.9" y="637" width="1.2" height="62.5"/>
                        <polygon class="cls-2" points="443.1 698.1 440.7 699.5 443.1 699.5 443.1 698.1"/>
                        <polygon class="cls-2" points="443.1 698.1 389.6 667.2 388.4 669.3 440.7 699.5 443.1 699.5 443.1 698.1"/>
                      </g>
                      <path class="cls-2" d="M443.1,692.7h0c-3.7,0-6.8,3-6.8,6.8h6.8v-6.8Z"/>
                    </g>
                  </g>
                </g>
              </g>
            </g>
          </g>
          <path class="cls-1" d="M173,33.5l144.2,83.2v166.6l-144.2,83.2L28.8,283.3V116.7L173,33.5M173,0L-.2,100v200l173.2,100,173.2-100V100L173,0Z"/>
          <path class="cls-2" d="M173,28.9l148.2,85.5v171.2l-148.2,85.4L24.8,285.6V114.4L173,29M173,0L-.2,100v200l173.2,100,173.2-100V100L173,0Z"/>
          <path class="cls-1" d="M173,15l160.2,92.5v185l-160.2,92.5L12.8,292.5V107.5L173,15M173,0L-.2,100v200l173.2,100,173.2-100V100L173,0Z"/>
          <path class="cls-2" d="M173,12.7l162.2,93.6v187.3l-162.2,93.7L10.8,293.6V106.4L173,12.7M173,0L-.2,100v200l173.2,100,173.2-100V100L173,0Z"/>
          <g class="cls-3">
            <path class="cls-2" d="M63.6,141.7c-4,0-8.1,2.6-8.1,5.2s3.6,6.5,7.3,4.7c6.3-3,7.2-3.3,7.2-5.9s-2.3-4-6.4-4ZM75.4,130.2c-5.4,0-10.1,3.4-10.1,6.6s4.6,7.3,9.8,5.8c4.3-1.2,6.1-3,9.8-5.8,2.5-2-4-6.6-9.5-6.6ZM91.8,136.1c-2.2,0-4.7.2-5,2.2-.2,2.6,2,1.8,5,1.8s6,1.3,6-.5-3.6-3.4-6-3.5ZM260.4,148.8c-5.2-.4-10.6,2.7-11,6.3-.3,3.6,3.9,9.4,8.8,7.4,8.3-3.4,9.5-3.7,9.8-7.4.3-3.6-2.5-5.8-7.6-6.3h0Z"/>
            <path class="cls-2" d="M276.7,134.3c-6.9-.6-13.2,3.5-13.6,8s5,10.6,11.7,9.1c5.6-1.2,8.1-3.4,13.1-7,3.4-2.4-4.4-9.5-11.2-10.1ZM296.7,144.3c-2.8-.3-6-.3-6.5,2.4-.7,3.6,2.2,2.7,6,3,3.8.4,7.4,2.6,7.7,0,.2-2.6-4.2-5-7.2-5.4Z"/>
            <path class="cls-2" d="M202.3,199c-5.1-.5-10.5,2.7-10.8,6.3s3.9,9.3,8.7,7.3c8.3-3.4,9.5-3.8,9.8-7.4s-2.5-5.8-7.7-6.2h0ZM218.6,184.3c-6.9-.6-13.2,3.6-13.6,8-.3,4.5,5,10.7,11.8,9.1,5.6-1.2,8-3.4,13-7,3.5-2.5-4.4-9.6-11.2-10.1ZM238.7,194.2c-2.9-.3-6-.3-6.5,2.4-.7,3.6,2.2,2.8,6,3,3.8.4,7.4,2.6,7.6,0s-4.1-5-7.1-5.4Z"/>
          </g>
          <g class="cls-3">
            <path class="cls-2" d="M170.4,152.1c-5.6,0-8.9-1.2-10.6-4-1.6-2.5-1.6-5.8-1.5-10.1v-12.3h-9.8c-.7,0-1.5,0-2.2-.3-3.9-1.3-4.4-5.4-4.4-9.2v-9.3c.1-2.3,1.1-5,5.9-5s6.1,2.2,6.1,6.8v2.4h4.4v-44.7c0-4.1,5.7-9.4,12-9.4h4.2c6.7,0,12.1,5.4,12.1,12.1v20.1h4v-6.2c0-6.3,3.2-9.7,9-9.7s9.1,3.4,9.1,9.7l-.4,16.1c0,6.3-3.5,8.6-6.4,9.4h-.2c-1,.3-2,.4-3.2.4h-11.9v32.6c.1,3,.2,5.9-2,8-1.8,1.9-5,2.7-10,2.7h-4.2Z"/>
            <path class="cls-2" d="M0,0"/>
          </g>
          <g class="cls-3">
            <path class="cls-2" d="M199.8,103.4c-1.4,0-5.2,1-7.7-1v-11.8h-7v-21.6c0-6-5.2-9.9-8.3-10.2-.4,3.2,0,87.4,0,89s-1.5,1.9-1.8,1.8c-7.4.5-9-.3-13.5-3-1-1.3-.7-23.6-.7-23.6-.9-.2-3-.3-4.4-.3h-4l-7,.2c0,1.4,4.4,1.3,6,1.3h8.3v13.2c0,8.5-.3,13.3,10.7,13.3h4c11.8,0,10.7-4.8,10.7-10.7v-32.7h13.4c1,0,2,0,2.8-.3h.2c3.5-1,5.3-3.7,5.3-8l.3-17.4c0-4.3-4.9-7.6-5.4-6-1.8,5.7,1.4,27.7-1.9,27.9h0Z"/>
          </g>
          <g class="cls-3">
            <path class="cls-2" d="M146.5,102.8h-1.2v18.4h14.2v-1.2h-13v-17.2Z"/>
            <path class="cls-2" d="M150.2,116.4v-13.8h-1.2v15h10.6v-1.2h-9.4ZM196.1,73.8h1.2v22.8h-1.2v-22.8ZM202.4,74.4h1.2v28.4h-1.2v-28.4Z"/>
            <path class="cls-2" d="M185,101.7h18.4v1.2h-18.4v-1.2ZM185,95.4h11.7v1.2h-11.7v-1.2Z"/>
            <path class="cls-2" d="M171.9,56.9h1.5v95.8h-1.5V56.9ZM164.1,56.9h1.5v95.8h-1.5V56.9ZM179.1,56.9h1.5v95.8h-1.5V56.9Z"/>
          </g>
        </g>
      </g>
    </g>
  </g>
</svg>