<?xml version="1.0" encoding="UTF-8"?>
<svg xmlns="http://www.w3.org/2000/svg" xmlns:xlink="http://www.w3.org/1999/xlink" version="1.1" viewBox="0 0 346 400">
  <defs>
    <style>
      .cls-1 {
        fill: none;
      }

      .cls-2 {
        fill: #918e5a;
      }

      .cls-3 {
        fill: #877d52;
      }

      .cls-3, .cls-4, .cls-5, .cls-6 {
        display: none;
      }

      .cls-7 {
        fill: #626267;
      }

      .cls-8 {
        fill: #4d491a;
      }

      .cls-4 {
        fill: #151313;
      }

      .cls-9 {
        fill: #b5b57c;
      }

      .cls-10 {
        fill: #030000;
      }

      .cls-11 {
        fill: #d1b886;
      }

      .cls-12 {
        fill: #aaa;
        stroke: #aaa;
        stroke-miterlimit: 10;
      }

      .cls-5 {
        fill: url(#linear-gradient);
      }

      .cls-13 {
        clip-path: url(#clippath);
      }
    </style>
    <clipPath id="clippath">
      <polygon class="cls-1" points="-.2 100 -.2 300 173 400 346.2 300 346.2 100 173 0 -.2 100"/>
    </clipPath>
    <linearGradient id="linear-gradient" x1="173" y1="120" x2="173" y2="-280" gradientTransform="translate(0 280)" gradientUnits="userSpaceOnUse">
      <stop offset="0" stop-color="#ded09e"/>
      <stop offset=".2" stop-color="#d8cb9a"/>
      <stop offset=".5" stop-color="#cfc393"/>
      <stop offset=".7" stop-color="#877d52"/>
    </linearGradient>
  </defs>
  <!-- Generator: Adobe Illustrator 28.7.5, SVG Export Plug-In . SVG Version: 1.2.0 Build 176)  -->
  <g>
    <g id="Layer_1">
      <g id="Hexagons">
        <g id="Desert">
          <g class="cls-6">
            <g class="cls-13">
              <g>
                <path class="cls-10" d="M94.5-185.4c0,.3,0,.5,0,.8l33.1,19.1c.9-.7,2-1.1,3.3-1.1s2.4.4,3.3,1.1l33.1-19.1c0-.2-.1-.5-.1-.8h0c0-.3,0-.5.1-.8l-33.1-19.1c-.9.7-2,1.1-3.3,1.1s-2.4-.4-3.3-1.1l-33.1,19.1c0,.3,0,.5,0,.8Z"/>
                <path class="cls-10" d="M50.8-69.3l33.1-19.1c0-.2,0-.5,0-.8s0-.5,0-.8l-33.1-19.1c-.9.7-2,1.1-3.3,1.1s-2.4-.4-3.3-1.1l-33.1,19.2c0,.2.1.5.1.8s0,.5-.1.8l33.1,19.1c.9-.7,2-1.1,3.3-1.1,1.2-.1,2.4.3,3.3,1Z"/>
                <path class="cls-10" d="M-30.5-257.6c0,2.2-1.4,4.1-3.3,4.9v38.3c2,.8,3.3,2.7,3.3,4.9s0,.5-.1.8L2.5-189.6c.9-.7,2-1.1,3.3-1.1s2.4.4,3.3,1.1l33.1-19.1c0-.2,0-.5,0-.8,0-2.2,1.4-4.1,3.3-4.9v-38.3c-2-.8-3.3-2.7-3.3-4.9s0-.5,0-.8l-33.1-19.1c-.9.7-2,1.1-3.3,1.1s-2.4-.4-3.3-1.1l-33.1,19.1c0,.3,0,.6,0,.8Z"/>
                <path class="cls-10" d="M136.1-257.6c0,2.2-1.4,4.1-3.3,4.9v38.3c2,.8,3.3,2.7,3.3,4.9s0,.5-.1.8l33.1,19.1c.4-.3.8-.5,1.2-.7.3-.1.7-.2,1.1-.3h0c0-.1,1-.1,1-.1.7,0,1.4.1,2.1.4.4.2.8.4,1.2.7l33.1-19.1c0-.2-.1-.5-.1-.8,0-2.2,1.4-4.1,3.3-4.9v-38.3c-2-.8-3.3-2.7-3.3-4.9s0-.5.1-.8l-33.1-19.1c-.9.7-2,1.1-3.3,1.1h-1c-.8-.3-1.6-.6-2.3-1.1l-33.1,19.1c.1.3.1.6.1.8Z"/>
                <path class="cls-10" d="M94.5-89.2c0,.3,0,.5,0,.8l33.1,19.1c.9-.7,2-1.1,3.3-1.1s2.4.4,3.3,1.1l33.1-19.1c0-.2-.1-.5-.1-.8s0-.5.1-.8l-33.1-19.1c-.9.7-2,1.1-3.3,1.1s-2.4-.4-3.3-1.1l-33.1,19.2c0,.2,0,.5,0,.7Z"/>
                <path class="cls-10" d="M-32.6-165.5L.5-184.6c0-.2,0-.5,0-.8s0-.5,0-.8l-33.1-19.1c-.9.7-2,1.1-3.3,1.1s-2.4-.4-3.3-1.1l-33.1,19.1c0,.2,0,.5,0,.8s0,.5,0,.8l33.1,19.1c.9-.7,2-1.1,3.3-1.1,1.3,0,2.4.4,3.3,1.1Z"/>
                <path class="cls-10" d="M-32.6-69.3L.6-88.4c0-.2-.1-.5-.1-.8s0-.5.1-.8l-33.1-19.1c-.9.7-2,1.1-3.3,1.1s-2.4-.4-3.3-1.1l-33.1,19.1c0,.2,0,.5,0,.8s0,.5,0,.8l33.1,19.1c.9-.7,2-1.1,3.3-1.1s2.3.4,3.2,1.1Z"/>
                <path class="cls-10" d="M52.8-257.6c0,2.2-1.4,4.1-3.3,4.9v38.3c2,.8,3.3,2.7,3.3,4.9s0,.5,0,.8l33.1,19.1c.9-.7,2-1.1,3.3-1.1s2.4.4,3.3,1.1l33.1-19.1c0-.2,0-.5,0-.8,0-2.2,1.4-4.1,3.3-4.9v-38.3c-2-.8-3.3-2.7-3.3-4.9s0-.5,0-.8l-33.1-19.1c-.9.7-2,1.1-3.3,1.1s-2.4-.4-3.3-1.1l-33.1,19.1c0,.3,0,.6,0,.8Z"/>
                <path class="cls-10" d="M11.1-185.4c0,.3,0,.5-.1.8l33.1,19.1c.9-.7,2-1.1,3.3-1.1s2.4.4,3.3,1.1l33.1-19.1c0-.2,0-.5,0-.8s0-.5,0-.8l-33.1-19.1c-.9.7-2,1.1-3.3,1.1s-2.4-.4-3.3-1.1l-33.1,19.1c.1.3.1.5.1.8Z"/>
                <path class="cls-10" d="M-30.5-17c0,.3,0,.5-.1.8L2.6,2.9c.9-.7,2-1.1,3.3-1.1s2.4.4,3.3,1.1l33.1-19.1c0-.2,0-.5,0-.8,0-2.2,1.4-4.1,3.3-4.9v-38.3c-2-.8-3.3-2.7-3.3-4.9s0-.5,0-.8l-33.2-19.1c-.9.7-2,1.1-3.3,1.1s-2.4-.4-3.3-1.1l-33.1,19.1c0,.2.1.5.1.8,0,2.2-1.4,4.1-3.3,4.9V-21.9c1.9.7,3.3,2.7,3.3,4.9Z"/>
                <path class="cls-10" d="M-41.1-208.7c0-.2,0-.5,0-.8,0-2.2,1.4-4.1,3.3-4.9v-38.3c-2-.8-3.3-2.7-3.3-4.9s0-.5,0-.8l-33.1-19.1c-.9.7-2,1.1-3.3,1.1v85.6c1.2,0,2.4.4,3.3,1.1l33.1-19Z"/>
                <path class="cls-10" d="M-41.1-112.5c0-.2,0-.5,0-.8,0-2.2,1.4-4.1,3.3-4.9v-38.3c-2-.8-3.3-2.7-3.3-4.9s0-.5,0-.8l-33.1-19.1c-.9.7-2,1.1-3.3,1.1v85.6c1.2,0,2.4.4,3.3,1.1l33.1-19Z"/>
                <path class="cls-10" d="M52.8-161.3c0,2.2-1.4,4.1-3.3,4.9v38.3c2,.8,3.3,2.7,3.3,4.9s0,.5,0,.8l33.1,19.1c.9-.7,2-1.1,3.3-1.1s2.4.4,3.3,1.1l33.1-19.1c0-.2,0-.5,0-.8,0-2.2,1.4-4.1,3.3-4.9v-38.3c-2-.8-3.3-2.7-3.3-4.9s0-.5,0-.8l-33.1-19.1c-.9.7-2,1.1-3.3,1.1s-2.4-.4-3.3-1.1l-33.1,19.1c0,.2,0,.5,0,.8Z"/>
                <path class="cls-10" d="M-41.1-16.2c0-.2,0-.5,0-.8,0-2.2,1.4-4.1,3.3-4.9v-38.3c-2-.8-3.3-2.7-3.3-4.9s0-.5,0-.8l-33.1-19.1c-.9.7-2,1.1-3.3,1.1V1.7c1.2,0,2.4.4,3.3,1.1l33.1-19Z"/>
                <path class="cls-10" d="M-30.5-113.2c0,.3,0,.5-.1.8L2.6-93.3c.9-.7,2-1.1,3.3-1.1s2.4.4,3.3,1.1l33.1-19.1c0-.2,0-.5,0-.8,0-2.2,1.4-4.1,3.3-4.9v-38.3c-2-.8-3.3-2.7-3.3-4.9s0-.5,0-.8l-33.2-19.1c-.9.7-2,1.1-3.3,1.1s-2.4-.4-3.3-1.1l-33.1,19.1c0,.2.1.5.1.8,0,2.2-1.4,4.1-3.3,4.9v38.3c1.9.7,3.3,2.6,3.3,4.9Z"/>
                <path class="cls-10" d="M136.1-161.3c0,2.2-1.4,4.1-3.3,4.9v38.3c2,.8,3.3,2.7,3.3,4.9s0,.5-.1.8l33.1,19.1c.7-.5,1.4-.9,2.3-1h0c0,0,1,0,1,0,1.2,0,2.4.4,3.3,1.1l33.1-19.1c0-.2-.1-.5-.1-.8,0-2.2,1.4-4.1,3.3-4.9v-38.3c-2-.8-3.3-2.7-3.3-4.9s0-.5.1-.8l-33.1-19.1c-.4.3-.8.5-1.2.7-.6.3-1.3.4-2.1.4h-1c-.4-.2-.7-.3-1.1-.4-.4-.2-.8-.4-1.2-.7l-33.1,19.1c.1.2.1.5.1.8Z"/>
                <path class="cls-10" d="M11.1-280.9l33.1,19.1c.9-.7,2-1.1,3.3-1.1s2.4.4,3.3,1.1l33.1-19.1c0-.2,0-.5,0-.8H11.1v.8Z"/>
                <path class="cls-10" d="M94.4-280.9l33.1,19.1c.9-.7,2-1.1,3.3-1.1s2.4.4,3.3,1.1l33.1-19.1c0-.2-.1-.5-.1-.8h-72.6c0,.3,0,.6,0,.8Z"/>
                <path class="cls-10" d="M92.4,2.9l33.1-19.1c0-.2,0-.5,0-.8,0-2.2,1.4-4.1,3.3-4.9v-38.3c-2-.8-3.3-2.7-3.3-4.9s0-.5,0-.8l-33.1-19.1c-.9.7-2,1.1-3.3,1.1s-2.4-.4-3.3-1.1l-33,19.1c0,.2,0,.5,0,.8,0,2.2-1.4,4.1-3.3,4.9V-21.9c2,.8,3.3,2.7,3.3,4.9s0,.5,0,.8L85.9,2.9c.9-.7,2-1.1,3.3-1.1,1.2-.1,2.3.4,3.2,1.1Z"/>
                <path class="cls-10" d="M-72.3-280.9l33.1,19.1c.9-.7,2-1.1,3.3-1.1s2.4.4,3.3,1.1L.5-280.9c0-.2,0-.5,0-.8h-72.7c.1.3.1.6,0,.8Z"/>
                <path class="cls-10" d="M-32.6,315.6L.5,296.5c0-.2,0-.5,0-.8s0-.5,0-.8l-33.1-19.1c-.9.7-2,1.1-3.3,1.1s-2.4-.4-3.3-1.1l-33.1,19.2c0,.2,0,.5,0,.8s0,.5,0,.8l33.1,19.1c.9-.7,2-1.1,3.3-1.1,1.3,0,2.4.3,3.3,1Z"/>
                <path class="cls-10" d="M92.4,99.1l33.2-19.1c0-.2,0-.5,0-.8,0-2.2,1.4-4.1,3.3-4.9v-38.3c-2-.8-3.3-2.7-3.3-4.9s0-.5,0-.8l-33.2-19.1c-.9.7-2,1.1-3.3,1.1s-2.4-.4-3.3-1.1l-33,19.1c0,.2,0,.5,0,.8,0,2.2-1.4,4.1-3.3,4.9v38.3c2,.8,3.3,2.7,3.3,4.9s0,.5,0,.8l33.1,19.1c.9-.7,2-1.1,3.3-1.1,1.2,0,2.3.4,3.2,1.1Z"/>
                <path class="cls-10" d="M-41.1,368.7c0-.2,0-.5,0-.8,0-2.2,1.4-4.1,3.3-4.9v-38.3c-2-.8-3.3-2.7-3.3-4.9s0-.5,0-.8l-33.1-19.1c-.9.7-2,1.1-3.3,1.1v85.6c1.2,0,2.4.4,3.3,1.1l33.1-19Z"/>
                <path class="cls-10" d="M.5,391.2l-33.1-19.1c-.9.7-2,1.1-3.3,1.1s-2.4-.4-3.3-1.1l-33.1,19.1v.8H.5v-.8Z"/>
                <path class="cls-10" d="M-41.1,272.4c0-.2,0-.5,0-.8,0-2.2,1.4-4.1,3.3-4.9v-38.3c-2-.8-3.3-2.7-3.3-4.9s0-.5,0-.8l-33.1-19.1c-.9.7-2,1.1-3.3,1.1v85.6c1.2,0,2.4.4,3.3,1.1l33.1-19Z"/>
                <path class="cls-10" d="M-41.1,176.2c0-.2,0-.5,0-.8,0-2.2,1.4-4.1,3.3-4.9v-38.3c-2-.8-3.3-2.7-3.3-4.9s0-.5,0-.8l-33.1-19.1c-.9.7-2,1.1-3.3,1.1v85.6c1.2,0,2.4.4,3.3,1.1l33.1-19Z"/>
                <path class="cls-10" d="M92.4,195.3l33.1-19.1c0-.2,0-.5,0-.8,0-2.2,1.4-4.1,3.3-4.9v-38.3c-2-.8-3.3-2.7-3.3-4.9s0-.5,0-.8l-33.1-19.1c-.9.7-2,1.1-3.3,1.1s-2.4-.4-3.3-1.1l-33.1,19.1c0,.2,0,.5,0,.8,0,2.2-1.4,4.1-3.3,4.9v38.3c2,.8,3.3,2.7,3.3,4.9s0,.5,0,.8l33.1,19.1c.9-.7,2-1.1,3.3-1.1s2.4.4,3.3,1.1Z"/>
                <path class="cls-10" d="M-41.1,80c0-.2,0-.5,0-.8,0-2.2,1.4-4.1,3.3-4.9v-38.3c-2-.8-3.3-2.7-3.3-4.9s0-.5,0-.8l-33.1-19.1c-.9.7-2,1.1-3.3,1.1v85.7c1.2,0,2.4.4,3.3,1.1l33.1-19.1Z"/>
                <path class="cls-10" d="M50.8,315.6l33.1-19.1c0-.2,0-.5,0-.8s0-.5,0-.8l-33.1-19.1c-.9.7-2,1.1-3.3,1.1s-2.4-.4-3.3-1.1l-33.1,19.2c0,.2.1.5.1.8s0,.5-.1.8l33.1,19.1c.9-.7,2-1.1,3.3-1.1,1.2,0,2.4.3,3.3,1Z"/>
                <path class="cls-10" d="M-32.6,26.9L.6,7.8c0-.2-.1-.5-.1-.8v-.7l-.3-.3H.2L-32.5-12.9c-.9.7-2,1.1-3.3,1.1s-2.4-.4-3.3-1.1L-71.8,6h0l-.4.2v.8c0,.3,0,.5,0,.8l33.1,19.1c.9-.7,2-1.1,3.3-1.1,1.3,0,2.4.4,3.3,1.1Z"/>
                <path class="cls-10" d="M92.4,291.6l33.1-19.1c0-.2,0-.5,0-.8,0-2.2,1.4-4.1,3.3-4.9v-38.3c-2-.8-3.3-2.7-3.3-4.9s0-.5,0-.8l-33.1-19.1c-.9.7-2,1.1-3.3,1.1s-2.4-.4-3.3-1.1l-33.1,19.1c0,.2,0,.5,0,.8,0,2.2-1.4,4.1-3.3,4.9v38.3c2,.8,3.3,2.7,3.3,4.9s0,.5,0,.8l33.1,19.1c.9-.7,2-1.1,3.3-1.1,1.3-.1,2.4.3,3.3,1.1Z"/>
                <path class="cls-10" d="M134.1,219.4l33.1-19.1c0-.2-.1-.5-.1-.8s0-.5.1-.8l-33.1-19.1c-.9.7-2,1.1-3.3,1.1s-2.4-.4-3.3-1.1l-33.1,19.1c0,.2,0,.5,0,.8s0,.5,0,.8l33.1,19.1c.9-.7,2-1.1,3.3-1.1,1.3,0,2.4.4,3.3,1.1Z"/>
                <path class="cls-10" d="M-32.6,123.2L.6,104c0-.2-.1-.5-.1-.8s0-.5.1-.8l-33.1-19.1c-.9.7-2,1.1-3.3,1.1s-2.4-.4-3.3-1.1l-33.1,19.1c0,.2,0,.5,0,.8s0,.5,0,.8l33.1,19.1c.9-.7,2-1.1,3.3-1.1s2.3.5,3.2,1.2Z"/>
                <path class="cls-10" d="M-30.5,175.4c0,.3,0,.5-.1.8L2.5,195.3c.9-.7,2-1.1,3.3-1.1s2.4.4,3.3,1.1l33.1-19.1c0-.2,0-.5,0-.8,0-2.2,1.4-4.1,3.3-4.9v-38.3c-2-.8-3.3-2.7-3.3-4.9s0-.5,0-.8l-33.1-19.1c-.9.7-2,1.1-3.3,1.1s-2.4-.4-3.3-1.1l-33.1,19.1c0,.2.1.5.1.8,0,2.2-1.4,4.1-3.3,4.9v38.3c1.9.8,3.3,2.7,3.3,4.9Z"/>
                <path class="cls-10" d="M-30.5,367.9c0,.3,0,.5-.1.8l33.1,19.1c.9-.7,2-1.1,3.3-1.1s2.4.4,3.3,1.1l33.1-19.1c0-.2,0-.5,0-.8,0-2.2,1.4-4.1,3.3-4.9v-38.3c-2-.8-3.3-2.7-3.3-4.9s0-.5,0-.8l-33.1-19.1c-.9.7-2,1.1-3.3,1.1s-2.4-.4-3.3-1.1l-33.1,19.1c0,.2.1.5.1.8,0,2.2-1.4,4.1-3.3,4.9v38.3c1.9.8,3.3,2.7,3.3,4.9Z"/>
                <path class="cls-10" d="M-32.6,219.4L.5,200.3c0-.2,0-.5,0-.8s0-.5,0-.8l-33.1-19.1c-.9.7-2,1.1-3.3,1.1s-2.4-.4-3.3-1.1l-33.1,19.1c0,.2,0,.5,0,.8s0,.5,0,.8l33.1,19.1c.9-.7,2-1.1,3.3-1.1,1.3,0,2.4.4,3.3,1.1Z"/>
                <path class="cls-10" d="M50.8,26.9L83.9,7.8c0-.2,0-.5,0-.8v-.7l-.3-.3h0L50.8-12.8c-.9.7-2,1.1-3.3,1.1s-2.4-.4-3.3-1.1L11.5,6h0l-.4.2v.8c0,.3,0,.5-.1.8l33.1,19.1c.9-.7,2-1.1,3.3-1.1,1.3,0,2.5.4,3.4,1.1Z"/>
                <path class="cls-10" d="M50.8,219.4l33.1-19.1c0-.2,0-.5,0-.8s0-.5,0-.8l-33.1-19.1c-.9.7-2,1.1-3.3,1.1s-2.4-.4-3.3-1.1l-33.1,19.1c0,.2.1.5.1.8s0,.5-.1.8l33.1,19.1c.9-.7,2-1.1,3.3-1.1,1.2,0,2.4.4,3.3,1.1Z"/>
                <path class="cls-10" d="M50.8,123.2l33.1-19.2c0-.2,0-.5,0-.8s0-.5,0-.8l-33.1-19c-.9.7-2,1.1-3.3,1.1s-2.4-.4-3.3-1.1l-33.1,19.1c0,.2.1.5.1.8s0,.5-.1.8l33.1,19.1c.9-.7,2-1.1,3.3-1.1,1.2-.1,2.4.4,3.3,1.1Z"/>
                <path class="cls-10" d="M85.9,387.8c.9-.7,2-1.1,3.3-1.1s2.4.4,3.3,1.1l33.1-19.1c0-.2,0-.5,0-.8,0-2.2,1.4-4.1,3.3-4.9v-38.3c-2-.8-3.3-2.7-3.3-4.9s0-.5,0-.8l-33.1-19.1c-.9.7-2,1.1-3.3,1.1s-2.4-.4-3.3-1.1l-33.1,19.1c0,.2,0,.5,0,.8,0,2.2-1.4,4.1-3.3,4.9v38.3c2,.8,3.3,2.7,3.3,4.9s0,.5,0,.8l33.1,19.1Z"/>
                <path class="cls-10" d="M83.9,391.2l-33.1-19.1c-.9.7-2,1.1-3.3,1.1s-2.4-.4-3.3-1.1l-33.1,19.1v.8h72.7v-.8h0Z"/>
                <path class="cls-10" d="M-30.5,79.2c0,.3,0,.5-.1.8L2.6,99.1c.9-.7,2-1.1,3.3-1.1s2.4.4,3.3,1.1l33.1-19.1c0-.2,0-.5,0-.8,0-2.2,1.4-4.1,3.3-4.9v-38.3c-2-.8-3.3-2.7-3.3-4.9s0-.5,0-.8L9.1,11.2c-.9.7-2,1.1-3.3,1.1s-2.4-.4-3.3-1.1L-30.6,30.3c0,.2.1.5.1.8,0,2.2-1.4,4.1-3.3,4.9v38.3c1.9.8,3.3,2.7,3.3,4.9Z"/>
                <path class="cls-10" d="M134.1,26.9l33.1-19.1c0-.2-.1-.5-.1-.8v-.7l-.3-.3h0l-32.7-18.9c-.9.7-2,1.1-3.3,1.1s-2.4-.4-3.3-1.1L94.8,6h0l-.4.2v.8c0,.3,0,.5,0,.8l33.1,19.1c.9-.7,2-1.1,3.3-1.1,1.4,0,2.5.4,3.4,1.1Z"/>
                <path class="cls-10" d="M134.1,123.2l33.1-19.1c0-.2-.1-.5-.1-.8s0-.5.1-.8l-33.1-19.1c-.9.7-2,1.1-3.3,1.1s-2.4-.4-3.3-1.1l-33.1,19.1c0,.2,0,.5,0,.8s0,.5,0,.8l33.1,19.1c.9-.7,2-1.1,3.3-1.1,1.3,0,2.4.4,3.3,1.1Z"/>
                <path class="cls-10" d="M-30.5,271.7c0,.3,0,.5-.1.8l33.1,19.1c.9-.7,2-1.1,3.3-1.1s2.4.4,3.3,1.1l33.1-19.1c0-.2,0-.5,0-.8,0-2.2,1.4-4.1,3.3-4.9v-38.3c-2-.8-3.3-2.7-3.3-4.9s0-.5,0-.8l-33.1-19.1c-.9.7-2,1.1-3.3,1.1s-2.4-.4-3.3-1.1l-33.1,19.1c0,.2.1.5.1.8,0,2.2-1.4,4.1-3.3,4.9v38.3c1.9.7,3.3,2.6,3.3,4.9Z"/>
                <path class="cls-10" d="M167.2,391.2l-33.1-19.1c-.9.7-2,1.1-3.3,1.1s-2.4-.4-3.3-1.1l-33.1,19.1v.8h72.7v-.8h0Z"/>
                <path class="cls-10" d="M134.1,315.6l33.1-19.1c0-.2-.1-.5-.1-.8s0-.5.1-.8l-33.1-19.1c-.9.7-2,1.1-3.3,1.1s-2.4-.4-3.3-1.1l-33.1,19.2c0,.2,0,.5,0,.8s0,.5,0,.8l33.1,19.1c.9-.7,2-1.1,3.3-1.1,1.3,0,2.4.3,3.3,1Z"/>
                <path class="cls-10" d="M335.9-85l-33.1,19.1c0,.2.1.5.1.8,0,2.2-1.4,4.1-3.3,4.9V-21.9c2,.8,3.3,2.7,3.3,4.9s0,.5-.1.8l33.1,19.1c.9-.7,2-1.1,3.3-1.1s2.4.4,3.3,1.1l33.1-19.1c0-.2-.1-.5-.1-.8,0-2.2,1.4-4.1,3.3-4.9v-38.3c-2-.8-3.3-2.7-3.3-4.9s0-.5.1-.8l-33.2-19.1c-.9.7-2,1.1-3.3,1.1s-2.3-.4-3.2-1.1Z"/>
                <path class="cls-10" d="M335.9-181.2l-33.1,19.1c0,.2.1.5.1.8,0,2.2-1.4,4.1-3.3,4.9v38.3c2,.8,3.3,2.7,3.3,4.9s0,.5-.1.8l33.1,19.1c.9-.7,2-1.1,3.3-1.1s2.4.4,3.3,1.1l33.1-19.1c0-.2-.1-.5-.1-.8,0-2.2,1.4-4.1,3.3-4.9v-38.3c-2-.8-3.3-2.7-3.3-4.9s0-.5.1-.8l-33.1-19.1c-.9.7-2,1.1-3.3,1.1-1.3,0-2.4-.4-3.3-1.1Z"/>
                <path class="cls-10" d="M177.8-185.4h0c0,.3,0,.5-.1.8l33.1,19.1c.9-.7,2-1.1,3.3-1.1s2.4.4,3.3,1.1l33.1-19.1c0-.2-.1-.5-.1-.8s0-.5.1-.8l-33.1-19.1c-.9.7-2,1.1-3.3,1.1s-2.4-.4-3.3-1.1l-33.1,19.1c.1.3.1.5.1.8Z"/>
                <path class="cls-10" d="M219.5-161.3c0,2.2-1.4,4.1-3.3,4.9v38.3c2,.8,3.3,2.7,3.3,4.9s0,.5-.1.8l33.1,19.1c.9-.7,2-1.1,3.3-1.1s2.4.4,3.3,1.1l33.1-19.1c0-.2-.1-.5-.1-.8,0-2.2,1.4-4.1,3.3-4.9v-38.3c-2-.8-3.3-2.7-3.3-4.9s0-.5.1-.8l-33.1-19.1c-.9.7-2,1.1-3.3,1.1s-2.4-.4-3.3-1.1l-33.1,19.1c.1.2.1.5.1.8Z"/>
                <path class="cls-10" d="M261.1-185.4c0,.3,0,.5-.1.8l33.1,19.1c.9-.7,2-1.1,3.3-1.1s2.4.4,3.3,1.1l33.1-19.1c0-.2-.1-.5-.1-.8s0-.5.1-.8l-33.1-19.1c-.9.7-2,1.1-3.3,1.1s-2.4-.4-3.3-1.1l-33.1,19.1c.1.3.1.5.1.8Z"/>
                <path class="cls-10" d="M294.2-12.8l-32.7,18.8h0l-.4.2v.8c0,.3,0,.5-.1.8l33.1,19.1c.9-.7,2-1.1,3.3-1.1s2.4.4,3.3,1.1l33.1-19.1c0-.2-.1-.5-.1-.8v-.7l-.2-.3h0l-32.7-18.9c-.9.7-2,1.1-3.3,1.1-1.2,0-2.4-.3-3.3-1Z"/>
                <path class="cls-10" d="M302.8-257.6c0,2.2-1.4,4.1-3.3,4.9v38.3c2,.8,3.3,2.7,3.3,4.9s0,.5-.1.8l33.1,19.1c.9-.7,2-1.1,3.3-1.1s2.4.4,3.3,1.1l33.1-19.1c0-.2-.1-.5-.1-.8,0-2.2,1.4-4.1,3.3-4.9v-38.3c-2-.8-3.3-2.7-3.3-4.9s0-.5.1-.8l-33.1-19.1c-.9.7-2,1.1-3.3,1.1s-2.4-.4-3.3-1.1l-33.1,19.1c.1.3.1.6.1.8Z"/>
                <path class="cls-10" d="M294.2-109.1l-33.1,19.1c0,.2.1.5.1.8s0,.5-.1.8l33.1,19.1c.9-.7,2-1.1,3.3-1.1s2.4.4,3.3,1.1l33.1-19.1c0-.2-.1-.5-.1-.8s0-.5.1-.8l-33.1-19.1c-.9.7-2,1.1-3.3,1.1-1.2,0-2.4-.4-3.3-1.1Z"/>
                <path class="cls-10" d="M261.1-280.9l33.1,19.1c.9-.7,2-1.1,3.3-1.1s2.4.4,3.3,1.1l33.1-19.1c0-.2-.1-.5-.1-.8h-72.7c0,.3,0,.6,0,.8Z"/>
                <path class="cls-10" d="M344.4-280.9l33.1,19.1c.9-.7,2-1.1,3.3-1.1s2.4.4,3.3,1.1l33.1-19.1c0-.2-.1-.5-.1-.8h-72.7c.1.3.1.6,0,.8Z"/>
                <path class="cls-10" d="M177.8-280.9l33.1,19.1c.9-.7,2-1.1,3.3-1.1s2.4.4,3.3,1.1l33.1-19.1c0-.2-.1-.5-.1-.8h-72.7v.8Z"/>
                <path class="cls-10" d="M386.1-258.3c0,.2.1.5.1.8,0,2.2-1.4,4.1-3.3,4.9v38.3c2,.8,3.3,2.7,3.3,4.9s0,.5-.1.8l33.1,19.1c.9-.7,2-1.1,3.3-1.1v-85.6c-1.2,0-2.4-.4-3.3-1.1l-33.1,19Z"/>
                <path class="cls-10" d="M386.1-162.1c0,.2.1.5.1.8,0,2.2-1.4,4.1-3.3,4.9v38.3c2,.8,3.3,2.7,3.3,4.9s0,.5-.1.8l33.1,19.1c.9-.7,2-1.1,3.3-1.1v-85.6c-1.2,0-2.4-.4-3.3-1.1l-33.1,19Z"/>
                <path class="cls-10" d="M377.6-12.8l-32.8,18.8h0l-.4.2v.8c0,.3,0,.5-.1.8l33.1,19.1c.9-.7,2-1.1,3.3-1.1s2.4.4,3.3,1.1l33.1-19.1c0-.2-.1-.5-.1-.8v-.7l-.2-.3h0l-32.7-18.9c-.9.7-2,1.1-3.3,1.1-1.2,0-2.3-.3-3.2-1Z"/>
                <path class="cls-10" d="M219.5-257.6c0,2.2-1.4,4.1-3.3,4.9v38.3c2,.8,3.3,2.7,3.3,4.9s0,.5-.1.8l33.1,19.1c.9-.7,2-1.1,3.3-1.1s2.4.4,3.3,1.1l33.1-19.1c0-.2-.1-.5-.1-.8,0-2.2,1.4-4.1,3.3-4.9v-38.3c-2-.8-3.3-2.7-3.3-4.9s0-.5.1-.8l-33.1-19.1c-.9.7-2,1.1-3.3,1.1s-2.4-.4-3.3-1.1l-33.1,19.1c.1.3.1.6.1.8Z"/>
                <path class="cls-10" d="M377.6-205.3l-33.1,19.1c0,.2.1.5.1.8s0,.5-.1.8l33.1,19.1c.9-.7,2-1.1,3.3-1.1s2.4.4,3.3,1.1l33.1-19.1c0-.2-.1-.5-.1-.8s0-.5.1-.8l-33.1-19.1c-.9.7-2,1.1-3.3,1.1-1.3,0-2.4-.4-3.3-1.1Z"/>
                <path class="cls-10" d="M377.6-109.1l-33.1,19.1c0,.2.1.5.1.8s0,.5-.1.8l33.1,19.1c.9-.7,2-1.1,3.3-1.1s2.4.4,3.3,1.1l33.1-19.1c0-.2-.1-.5-.1-.8s0-.5.1-.8l-33.1-19.1c-.9.7-2,1.1-3.3,1.1-1.3,0-2.4-.4-3.3-1.1Z"/>
                <path class="cls-10" d="M386.1-65.9c0,.2.1.5.1.8,0,2.2-1.4,4.1-3.3,4.9V-21.9c2,.8,3.3,2.7,3.3,4.9s0,.5-.1.8l33.1,19.1c.9-.7,2-1.1,3.3-1.1v-85.6c-1.2,0-2.4-.4-3.3-1.1l-33.1,19Z"/>
                <path class="cls-10" d="M292.2-65.1c0-.3,0-.5.1-.8l-33.2-19.1c-.9.7-2,1.1-3.3,1.1s-2.4-.4-3.3-1.1l-33.1,19.1c0,.2.1.5.1.8,0,2.2-1.4,4.1-3.3,4.9V-21.9c2,.8,3.3,2.7,3.3,4.9s0,.5-.1.8L252.5,2.9c.9-.7,2-1.1,3.3-1.1s2.4.4,3.3,1.1l33.1-19.1c0-.2-.1-.5-.1-.8,0-2.2,1.4-4.1,3.3-4.9v-38.3c-1.8-.8-3.2-2.7-3.2-4.9Z"/>
                <path class="cls-10" d="M210.9-12.8l-32.7,18.8h0l-.4.2v.8c0,.3,0,.5-.1.8l33.1,19.1c.9-.7,2-1.1,3.3-1.1s2.4.4,3.3,1.1l33.1-19.1c0-.2-.1-.5-.1-.8v-.7l-.2-.3h0l-32.7-18.9c-.9.7-2,1.1-3.3,1.1-1.3,0-2.4-.3-3.3-1Z"/>
                <path class="cls-10" d="M177.8-89.2c0,.3,0,.5-.1.8l33.1,19.1c.9-.7,2-1.1,3.3-1.1s2.4.4,3.3,1.1l33.1-19.1c0-.2-.1-.5-.1-.8s0-.5.1-.8l-33.1-19.1c-.9.7-2,1.1-3.3,1.1s-2.4-.4-3.3-1.1l-33.1,19.1c.1.3.1.6.1.8Z"/>
                <path class="cls-10" d="M208.9-65.1c0-.3,0-.5.1-.8l-33.2-19.1c-.9.7-2,1.1-3.3,1.1h-1c-.8-.3-1.6-.6-2.3-1.1l-33.1,19.1c0,.2.1.5.1.8,0,2.2-1.4,4.1-3.3,4.9V-21.9c2,.8,3.3,2.7,3.3,4.9s0,.5-.1.8L169.2,2.9c.7-.5,1.4-.9,2.3-1v-.2h1c1.2,0,2.4.4,3.3,1.1l33.1-19.1c0-.2-.1-.5-.1-.8,0-2.2,1.4-4.1,3.3-4.9v-38.3c-1.9-.7-3.2-2.6-3.2-4.8Z"/>
                <path class="cls-7" d="M420.6-281.6h-3.4c0,.3,0,.5.1.8l-33.1,19.1c-.9-.7-2-1.1-3.3-1.1s-2.4.4-3.3,1.1l-33.1-19.1c0-.2.1-.5.1-.8h-10.7c0,.3,0,.5.1.8l-33.1,19.1c-.9-.7-2-1.1-3.3-1.1s-2.4.4-3.3,1.1l-33.1-19.1c0-.2.1-.5.1-.8h-10.7c0,.3,0,.5.1.8l-33.1,19.1c-.9-.7-2-1.1-3.3-1.1s-2.4.4-3.3,1.1l-33.1-19.1c0-.2.1-.5.1-.8h-10.6c0,.3,0,.5.1.8l-33.1,19.1c-.9-.7-2-1.1-3.3-1.1s-2.4.4-3.3,1.1l-33.1-19.1c0-.2,0-.5,0-.8h-10.7c0,.3,0,.5,0,.8l-33.1,19.1c-.9-.7-2-1.1-3.3-1.1s-2.4.4-3.3,1.1l-33.1-19.1c0-.2.1-.5.1-.8H.5c0,.3,0,.5.1.8l-33.1,19.1c-.9-.7-2-1.1-3.3-1.1s-2.4.4-3.3,1.1l-33.1-19.1c0-.2,0-.5,0-.8h-5.3v1.1h0v3.2h0v1c1.2,0,2.4-.4,3.3-1.1l33.1,19.1c0,.2,0,.5,0,.8,0,2.2,1.4,4.1,3.3,4.9v38.3c-2,.8-3.3,2.7-3.3,4.9s0,.5,0,.8l-33.1,19.1c-.9-.7-2-1.1-3.3-1.1v1h0v3.2h0v2.2h0v3.2h0v1c1.2,0,2.4-.4,3.3-1.1l33.1,19.1c0,.2,0,.5,0,.8,0,2.2,1.4,4.1,3.3,4.9v38.3c-2,.8-3.3,2.7-3.3,4.9s0,.5,0,.8l-33.1,19.1c-.9-.7-2-1.1-3.3-1.1v1h0v8.6h0v1c1.2,0,2.4-.4,3.3-1.1l33.1,19.1c0,.2,0,.5,0,.8,0,2.2,1.4,4.1,3.3,4.9V-21.7c-2,.8-3.3,2.7-3.3,4.9s0,.5,0,.8L-74.2,2.9c-.9-.7-2-1.1-3.3-1.1v4.2h0v2h0v1.3h0v2h0v1c1.2,0,2.4-.4,3.3-1.1l33.1,19.1c0,.2,0,.5,0,.8,0,2.2,1.4,4.1,3.3,4.9v38.3c-2,.8-3.3,2.7-3.3,4.9s0,.5,0,.8l-33.1,19.1c-.9-.7-2-1.1-3.3-1.1v9.6h0v1c1.2,0,2.4-.4,3.3-1.1l33.1,19.1c0,.2,0,.5,0,.8,0,2.2,1.4,4.1,3.3,4.9v38.3c-2,.8-3.3,2.7-3.3,4.9s0,.5,0,.8l-33.1,19.1c-.9-.7-2-1.1-3.3-1.1v10.6c1.2,0,2.4-.4,3.3-1.1l33.1,19.1c0,.2,0,.5,0,.8,0,2.2,1.4,4.1,3.3,4.9v38.3c-2,.8-3.3,2.7-3.3,4.9s0,.5,0,.8l-33.1,19.1c-.9-.7-2-1.1-3.3-1.1v10.6c1.2,0,2.4-.4,3.3-1.1l33.1,19.1c0,.2,0,.5,0,.8,0,2.2,1.4,4.1,3.3,4.9v38.1c-2,.8-3.3,2.7-3.3,4.9s0,.5,0,.8l-33.1,19.1c-.9-.7-2-1.1-3.3-1.1v1h0v3.2h0v1.1h0v1h0v3.3h0v1c1.2,0,2.4-.4,3.3-1.1l33.1,19.1c0,.2,0,.5,0,.8,0,2.2,1.4,4.1,3.3,4.9v38.3c-2,.8-3.3,2.7-3.3,4.9s0,.5,0,.8l-33.1,19c-.9-.7-2-1.1-3.3-1.1v1h0v3.2h0v2.2h0v3.2h0v1c1.2,0,2.4-.4,3.3-1.1l33.1,19.1c0,.2,0,.5,0,.8,0,2.2,1.4,4.1,3.3,4.9v38.3c-2,.8-3.3,2.7-3.3,4.9s0,.5,0,.8l-33.1,19.1c-.9-.7-2-1.1-3.3-1.1v10.6c1.2,0,2.4-.4,3.3-1.1l33.1,19.1c0,.2,0,.5,0,.8,0,2.2,1.4,4.1,3.3,4.9v38.3c-2,.8-3.3,2.7-3.3,4.9s0,.5,0,.8l-33.1,19.1c-.9-.7-2-1.1-3.3-1.1v5.3h5.3c0-.3,0-.5,0-.8l33.1-19.1c.9.7,2,1.1,3.3,1.1s2.4-.4,3.3-1.1L.5,680c0,.2,0,.5,0,.8h10.7c0-.3,0-.5-.1-.8l33.1-19.1c.9.7,2,1.1,3.3,1.1s2.4-.4,3.3-1.1l33.1,19.1c0,.2,0,.5,0,.8h10.7c0-.3,0-.5,0-.8l33.1-19.1c.9.7,2,1.1,3.3,1.1s2.4-.4,3.3-1.1l33.1,19.1c0,.2-.1.5-.1.8h10.6c0-.3,0-.5-.1-.8l33.1-19.1c.9.7,2,1.1,3.3,1.1s2.4-.4,3.3-1.1l33.1,19.1c0,.2-.1.5-.1.8h10.7c0-.3,0-.5-.1-.8l33.1-19.1c.9.7,2,1.1,3.3,1.1s2.4-.4,3.3-1.1l33.1,19.1c0,.2-.1.5-.1.8h10.7c0-.3,0-.5-.1-.8l33.1-19.1c.9.7,2,1.1,3.3,1.1s2.4-.4,3.3-1.1l33.1,19.1c0,.2-.1.5-.1.8h5.3v-5.3c-1.2,0-2.4.4-3.3,1.1l-33.1-19.1c0-.2.1-.5.1-.8,0-2.2-1.4-4.1-3.3-4.9v-38.3c2-.8,3.3-2.7,3.3-4.9s0-.5-.1-.8l33.1-19.1c.9.7,2,1.1,3.3,1.1v-4.2h0v-2.2h0v-4.2c-1.2,0-2.4.4-3.3,1.1l-33.1-19.1c0-.2.1-.5.1-.8,0-2.2-1.4-4.1-3.3-4.9v-38.3c2-.8,3.3-2.7,3.3-4.9s0-.5-.1-.8l33.1-19.1c.9.7,2,1.1,3.3,1.1v-1h0v-3.2h0v-2.2h0v-3.2h0v-1c-1.2,0-2.4.4-3.3,1.1l-33.1-19.1c0-.2.1-.5.1-.8,0-2.2-1.4-4.1-3.3-4.9v-38.3c2-.8,3.3-2.7,3.3-4.9s0-.5-.1-.8l33.1-19.1c.9.7,2,1.1,3.3,1.1v-1h0v-3.2h0v-1h0v-1h0v-3.3h0v-1c-1.2,0-2.4.4-3.3,1.1l-33.1-19.1c0-.2.1-.5.1-.8,0-2.2-1.4-4.1-3.3-4.9v-38.3c2-.8,3.3-2.7,3.3-4.9s0-.5-.1-.8l33.1-19.1c.9.7,2,1.1,3.3,1.1v-10.6c-1.2,0-2.4.4-3.3,1.1l-33.1-19.1c0-.2.1-.5.1-.8,0-2.2-1.4-4.1-3.3-4.9v-38.3c2-.8,3.3-2.7,3.3-4.9s0-.5-.1-.8l33.1-19.1c.9.7,2,1.1,3.3,1.1v-10.6c-1.2,0-2.4.4-3.3,1.1l-33.1-19.1c0-.2.1-.5.1-.8,0-2.2-1.4-4.1-3.3-4.9v-38.3c2-.8,3.3-2.7,3.3-4.9s0-.5-.1-.8l33.1-19.1c.9.7,2,1.1,3.3,1.1v-1h0v-3.2h0v-6.2c-1.2,0-2.4.4-3.3,1.1l-32.7-19.1c0-.2.1-.5.1-.8,0-2.2-1.4-4.1-3.3-4.9v-38.3c2-.8,3.3-2.7,3.3-4.9s0-.5-.1-.8l33.1-19.1c.9.7,2,1.1,3.3,1.1v-1h0v-2h0v-1.1h0v-2.2h0V1.8c-1.2,0-2.4.4-3.3,1.1l-33.1-19.1c0-.2.1-.5.1-.8,0-2.2-1.4-4.1-3.3-4.9v-38.3c2-.8,3.3-2.7,3.3-4.9s0-.5-.1-.8l33.1-19.1c.9.7,2,1.1,3.3,1.1v-1h0v-3.2h0v-2.2h0v-3.2h0v-1c-1.2,0-2.4.4-3.3,1.1l-33.1-19.1c0-.2.1-.5.1-.8,0-2.2-1.4-4.1-3.3-4.9v-38.3c2-.8,3.3-2.7,3.3-4.9s0-.5-.1-.8l33.1-19.1c.9.7,2,1.1,3.3,1.1v-1h0v-3.2h0v-2.2h0v-3.2h0v-1c-1.2,0-2.4.4-3.3,1.1l-33.1-19.1c0-.2.1-.5.1-.8,0-2.2-1.4-4.1-3.3-4.9v-38.3c2-.8,3.3-2.7,3.3-4.9s0-.5-.1-.8l33.1-19.1c.9.7,2,1.1,3.3,1.1v-1h0v-3.2h0v-1.1h-1.9v.2ZM417.3-186.2c0,.2-.1.5-.1.8s0,.5.1.8l-33.1,19.1c-.9-.7-2-1.1-3.3-1.1s-2.4.4-3.3,1.1l-33.1-19.1c0-.2.1-.5.1-.8s0-.5-.1-.8l33.1-19.1c.9.7,2,1.1,3.3,1.1s2.4-.4,3.3-1.1l33.1,19.1ZM417.2-89.9c0,.2-.1.5-.1.8s0,.5.1.8l-33.1,19.1c-.9-.7-2-1.1-3.3-1.1s-2.4.4-3.3,1.1l-33.1-19.1c0-.2.1-.5.1-.8s0-.5-.1-.8l33.1-19.1c.9.7,2,1.1,3.3,1.1s2.4-.4,3.3-1.1l33.1,19.1ZM416.8,6h0l.4.2v.8c0,.3,0,.5.1.8l-33.1,19.1c-.9-.7-2-1.1-3.3-1.1s-2.4.4-3.3,1.1l-33.2-19.1c0-.2.1-.5.1-.8v-.7l.4-.2h0l32.7-18.9c.9.7,2,1.1,3.3,1.1s2.4-.4,3.3-1.1l32.6,18.8ZM417.3,102.5c0,.2-.1.5-.1.8s0,.5.1.8l-33.1,19.1c-.9-.7-2-1.1-3.3-1.1s-2.4.4-3.3,1.1l-33.2-19.2c0-.2.1-.5.1-.8s0-.5-.1-.8l33.1-19.1c.9.7,2,1.1,3.3,1.1s2.4-.4,3.3-1.1l33.2,19.2ZM417.2,198.7c0,.2-.1.5-.1.8s0,.5.1.8l-33.1,19.1c-.9-.7-2-1.1-3.3-1.1s-2.4.4-3.3,1.1l-33.1-19.1c0-.2.1-.5.1-.8s0-.5-.1-.8l33.1-19.1c.9.7,2,1.1,3.3,1.1s2.4-.4,3.3-1.1l33.1,19.1ZM417.2,295c0,.2-.1.5-.1.8s0,.5.1.8l-33.1,19.1c-.9-.7-2-1.1-3.3-1.1s-2.4.4-3.3,1.1l-33.1-19.1c0-.2.1-.5.1-.8s0-.5-.1-.8l33.1-19.1c.9.7,2,1.1,3.3,1.1s2.4-.4,3.3-1.1l33.1,19.1ZM417.2,391.2v.8h0c0,.3,0,.5.1.8l-33.1,19.1c-.9-.7-2-1.1-3.3-1.1s-2.4.4-3.3,1.1l-33.1-19.1c0-.2.1-.5.1-.8h0v-.8l33.1-19.1c.9.7,2,1.1,3.3,1.1s2.4-.4,3.3-1.1l32.9,19.1ZM417.2,487.4c0,.2-.1.5-.1.8s0,.5.1.8l-33.1,19.1c-.9-.7-2-1.1-3.3-1.1s-2.4.4-3.3,1.1l-33.1-19.1c0-.2.1-.5.1-.8s0-.5-.1-.8l33.1-19.1c.9.7,2,1.1,3.3,1.1s2.4-.4,3.3-1.1l33.1,19.1ZM417.3,583.6c0,.2-.1.5-.1.8s0,.5.1.8l-33.1,19.1c-.9-.7-2-1.1-3.3-1.1s-2.4.4-3.3,1.1l-33.1-19.1c0-.2.1-.5.1-.8s0-.5-.1-.8l33.1-19.1c.9.7,2,1.1,3.3,1.1s2.4-.4,3.3-1.1l33.1,19.1ZM342.4,676.5c-.9-.7-2-1.1-3.3-1.1s-2.4.4-3.3,1.1l-33.1-19.1c0-.2.1-.5.1-.8,0-2.2-1.4-4.1-3.3-4.9v-38.3c2-.8,3.3-2.7,3.3-4.9s0-.5-.1-.8l33.1-19.1c.9.7,2,1.1,3.3,1.1s2.4-.4,3.3-1.1l33.1,19.1c0,.2-.1.5-.1.8,0,2.2,1.4,4.1,3.3,4.9v38.3c-2,.8-3.3,2.7-3.3,4.9s0,.5.1.8l-33.1,19.1ZM259.1,676.5c-.9-.7-2-1.1-3.3-1.1s-2.4.4-3.3,1.1l-33.1-19.1c0-.2.1-.5.1-.8,0-2.2-1.4-4.1-3.3-4.9v-38.3c2-.8,3.3-2.7,3.3-4.9s0-.5-.1-.8l33.1-19.1c.9.7,2,1.1,3.3,1.1s2.4-.4,3.3-1.1l33.1,19.1c0,.2-.1.5-.1.8,0,2.2,1.4,4.1,3.3,4.9v38.3c-2,.8-3.3,2.7-3.3,4.9s0,.5.1.8l-33.1,19.1ZM175.8,676.5c-.9-.7-2-1.1-3.3-1.1h-1c-.8.3-1.6.6-2.3,1.1l-33.1-19.1c0-.2.1-.5.1-.8,0-2.2-1.4-4.1-3.3-4.9v-38.3c2-.8,3.3-2.7,3.3-4.9s0-.5-.1-.8l33.1-19.1c.7.5,1.4.9,2.3,1h0c0,0,1,0,1,0,1.2,0,2.4-.4,3.3-1.1l33.1,19.1c0,.2-.1.5-.1.8,0,2.2,1.4,4.1,3.3,4.9v38.3c-2,.8-3.3,2.7-3.3,4.9s0,.5.1.8l-33.1,19.1ZM92.4,676.5c-.9-.7-2-1.1-3.3-1.1s-2.4.4-3.3,1.1l-33.1-19.1c0-.2,0-.5,0-.8,0-2.2-1.4-4.1-3.3-4.9v-38.3c2-.8,3.3-2.7,3.3-4.9s0-.5,0-.8l33.1-19.1c.9.7,2,1.1,3.3,1.1s2.4-.4,3.3-1.1l33.1,19.1c0,.2,0,.5,0,.8,0,2.2,1.4,4.1,3.3,4.9v38.3c-2,.8-3.3,2.7-3.3,4.9s0,.5,0,.8l-33.1,19.1ZM9.1,676.5c-.9-.7-2-1.1-3.3-1.1s-2.4.4-3.3,1.1l-33.1-19.1c0-.2.1-.5.1-.8,0-2.2-1.4-4.1-3.3-4.9v-38.3c2-.8,3.3-2.7,3.3-4.9s0-.5-.1-.8l33.1-19.1c.9.7,2,1.1,3.3,1.1s2.4-.4,3.3-1.1l33.1,19.1c0,.2,0,.5,0,.8,0,2.2,1.4,4.1,3.3,4.9v38.3c-2,.8-3.3,2.7-3.3,4.9s0,.5,0,.8l-33.1,19.1ZM-72.3,585.2c0-.2,0-.5,0-.8s0-.5,0-.8l33.1-19.1c.9.7,2,1.1,3.3,1.1s2.4-.4,3.3-1.1L.5,583.6c0,.2,0,.5,0,.8s0,.5,0,.8l-33.1,19.1c-.9-.7-2-1.1-3.3-1.1s-2.4.4-3.3,1.1l-33.1-19.1ZM-72.3,488.9c0-.2,0-.5,0-.8s0-.5,0-.8l33.1-19.1c.9.7,2,1.1,3.3,1.1s2.4-.4,3.3-1.1L.5,487.3c0,.2,0,.5,0,.8s0,.5,0,.8l-33.1,19.1c-.9-.7-2-1.1-3.3-1.1s-2.4.4-3.3,1.1l-33.1-19.1ZM-72.3,392.7c0-.2,0-.5,0-.8h0v-.8l33.1-19.1c.9.7,2,1.1,3.3,1.1s2.4-.4,3.3-1.1L.6,391.1v.8h0c0,.3,0,.5.1.8l-33.1,19.1c-.9-.7-2-1.1-3.3-1.1s-2.4.4-3.3,1.1l-33.3-19.1ZM-72.3,296.5c0-.2,0-.5,0-.8s0-.5,0-.8l33.1-19.1c.9.7,2,1.1,3.3,1.1s2.4-.4,3.3-1.1L.6,295c0,.2-.1.5-.1.8s0,.5.1.8l-33.1,19.1c-.9-.7-2-1.1-3.3-1.1s-2.4.4-3.3,1.1l-33.2-19.2ZM-72.3,200.3c0-.2,0-.5,0-.8s0-.5,0-.8l33.1-19.1c.9.7,2,1.1,3.3,1.1s2.4-.4,3.3-1.1L.5,198.7c0,.2,0,.5,0,.8s0,.5,0,.8l-33.1,19.1c-.9-.7-2-1.1-3.3-1.1s-2.4.4-3.3,1.1l-33.1-19.1ZM-72.3,104c0-.2,0-.5,0-.8s0-.5,0-.8l33.1-19.1c.9.7,2,1.1,3.3,1.1s2.4-.4,3.3-1.1L.5,102.4c0,.2,0,.5,0,.8s0,.5,0,.8l-33.1,19.1c-.9-.7-2-1.1-3.3-1.1s-2.4.4-3.3,1.1l-33.1-19.1ZM-72.3,7.8c0-.2,0-.5,0-.8v-.7l.4-.2h0L-39.1-12.8c.9.7,2,1.1,3.3,1.1s2.4-.4,3.3-1.1L.2,6H.2l.4.2v.8c0,.3,0,.5.1.8l-33.1,19.1c-.9-.7-2-1.1-3.3-1.1s-2.4.4-3.3,1.1L-72.3,7.8ZM-72.3-88.4c0-.2,0-.5,0-.8s0-.5,0-.8l33.1-19.1c.9.7,2,1.1,3.3,1.1s2.4-.4,3.3-1.1L.6-89.9c0,.2-.1.5-.1.8s0,.5.1.8l-33.1,19.1c-.9-.7-2-1.1-3.3-1.1s-2.4.4-3.3,1.1l-33.2-19.2ZM-72.3-184.6c0-.2,0-.5,0-.8s0-.5,0-.8l33.1-19.1c.9.7,2,1.1,3.3,1.1s2.4-.4,3.3-1.1L.5-186.2c0,.2,0,.5,0,.8s0,.5,0,.8l-33.1,19.1c-.9-.7-2-1.1-3.3-1.1s-2.4.4-3.3,1.1l-33.1-19.1ZM2.6-277.5c.9.7,2,1.1,3.3,1.1s2.4-.4,3.3-1.1l33.1,19.1c0,.2,0,.5,0,.8,0,2.2,1.4,4.1,3.3,4.9v38.3c-2,.8-3.3,2.7-3.3,4.9s0,.5,0,.8l-33.2,19.1c-.9-.7-2-1.1-3.3-1.1s-2.4.4-3.3,1.1l-33.1-19.1c0-.2.1-.5.1-.8,0-2.2-1.4-4.1-3.3-4.9v-38.3c2-.8,3.3-2.7,3.3-4.9s0-.5-.1-.8l33.2-19.1ZM85.9-277.5c.9.7,2,1.1,3.3,1.1s2.4-.4,3.3-1.1l33.1,19.1c0,.2,0,.5,0,.8,0,2.2,1.4,4.1,3.3,4.9v38.3c-2,.8-3.3,2.7-3.3,4.9s0,.5,0,.8l-33.1,19.1c-.9-.7-2-1.1-3.3-1.1s-2.4.4-3.3,1.1l-33.1-19.1c0-.2,0-.5,0-.8,0-2.2-1.4-4.1-3.3-4.9v-38.3c2-.8,3.3-2.7,3.3-4.9s0-.5,0-.8l33.1-19.1ZM169.2-277.5c.7.5,1.4.9,2.3,1h0c0,.1,1,.1,1,.1,1.2,0,2.4-.4,3.3-1.1l33.1,19.1c0,.2-.1.5-.1.8,0,2.2,1.4,4.1,3.3,4.9v38.3c-2,.8-3.3,2.7-3.3,4.9s0,.5.1.8l-33.1,19.1c-.4-.3-.8-.5-1.2-.7-.6-.3-1.3-.4-2.1-.4h-1c-.4.2-.7.3-1.1.4-.4.2-.8.4-1.2.7l-33.1-19.1c0-.2.1-.5.1-.8,0-2.2-1.4-4.1-3.3-4.9v-38.3c2-.8,3.3-2.7,3.3-4.9s0-.5-.1-.8l33.1-19.1ZM252.6-277.5c.9.7,2,1.1,3.3,1.1s2.4-.4,3.3-1.1l33.1,19.1c0,.2-.1.5-.1.8,0,2.2,1.4,4.1,3.3,4.9v38.3c-2,.8-3.3,2.7-3.3,4.9s0,.5.1.8l-33.1,19.1c-.9-.7-2-1.1-3.3-1.1s-2.4.4-3.3,1.1l-33.1-19.1c0-.2.1-.5.1-.8,0-2.2-1.4-4.1-3.3-4.9v-38.3c2-.8,3.3-2.7,3.3-4.9s0-.5-.1-.8l33.1-19.1ZM335.9-277.5c.9.7,2,1.1,3.3,1.1s2.4-.4,3.3-1.1l33.1,19.1c0,.2-.1.5-.1.8,0,2.2,1.4,4.1,3.3,4.9v38.3c-2,.8-3.3,2.7-3.3,4.9s0,.5.1.8l-33.1,19.1c-.9-.7-2-1.1-3.3-1.1s-2.4.4-3.3,1.1l-33.1-19.1c0-.2.1-.5.1-.8,0-2.2-1.4-4.1-3.3-4.9v-38.3c2-.8,3.3-2.7,3.3-4.9s0-.5-.1-.8l33.1-19.1ZM375.6-162.1c0,.2-.1.5-.1.8,0,2.2,1.4,4.1,3.3,4.9v38.3c-2,.8-3.3,2.7-3.3,4.9s0,.5.1.8l-33.1,19.1c-.9-.7-2-1.1-3.3-1.1s-2.4.4-3.3,1.1l-33.1-19.1c0-.2.1-.5.1-.8,0-2.2-1.4-4.1-3.3-4.9v-38.3c2-.8,3.3-2.7,3.3-4.9s0-.5-.1-.8l33.1-19.1c.9.7,2,1.1,3.3,1.1s2.4-.4,3.3-1.1l33.1,19.1ZM375.6-65.9c0,.2-.1.5-.1.8,0,2.2,1.4,4.1,3.3,4.9V-21.9c-2,.8-3.3,2.7-3.3,4.9s0,.5.1.8l-33.2,19.1c-.9-.7-2-1.1-3.3-1.1s-2.4.4-3.3,1.1l-33.1-19.1c0-.2.1-.5.1-.8,0-2.2-1.4-4.1-3.3-4.9v-38.3c2-.8,3.3-2.7,3.3-4.9s0-.5-.1-.8l33.2-19.1c.9.7,2,1.1,3.3,1.1s2.4-.4,3.3-1.1l33.1,19.1ZM378.9,36v38.3c-2,.8-3.3,2.7-3.3,4.9s0,.5.1.8l-33.1,19.1c-.9-.7-2-1.1-3.3-1.1s-2.4.4-3.3,1.1l-33.2-19.1c0-.2.1-.5.1-.8,0-2.2-1.4-4.1-3.3-4.9v-38.3c2-.8,3.3-2.7,3.3-4.9s0-.5-.1-.8l33.1-19.1c.9.7,2,1.1,3.3,1.1s2.4-.4,3.3-1.1l33.1,19.1c0,.2-.1.5-.1.8,0,2.2,1.4,4.1,3.4,4.9ZM375.6,126.6c0,.2-.1.5-.1.8,0,2.2,1.4,4.1,3.3,4.9v38.3c-2,.8-3.3,2.7-3.3,4.9s0,.5.1.8l-33.1,19.1c-.9-.7-2-1.1-3.3-1.1s-2.4.4-3.3,1.1l-33.1-19.1c0-.2.1-.5.1-.8,0-2.2-1.4-4.1-3.3-4.9v-38.3c2-.8,3.3-2.7,3.3-4.9s0-.5-.1-.8l33.1-19.1c.9.7,2,1.1,3.3,1.1s2.4-.4,3.3-1.1l33.1,19.1ZM375.6,222.8c0,.2-.1.5-.1.8,0,2.2,1.4,4.1,3.3,4.9v38.3c-2,.8-3.3,2.7-3.3,4.9s0,.5.1.8l-33.1,19.1c-.9-.7-2-1.1-3.3-1.1s-2.4.4-3.3,1.1l-33.1-19.1c0-.2.1-.5.1-.8,0-2.2-1.4-4.1-3.3-4.9v-38.3c2-.8,3.3-2.7,3.3-4.9s0-.5-.1-.8l33.1-19.1c.9.7,2,1.1,3.3,1.1s2.4-.4,3.3-1.1l33.1,19.1ZM378.9,324.7v38.3c-2,.8-3.3,2.7-3.3,4.9s0,.5.1.8l-33.1,19.1c-.9-.7-2-1.1-3.3-1.1s-2.4.4-3.3,1.1l-33.1-19.1c0-.2.1-.5.1-.8,0-2.2-1.4-4.1-3.3-4.9v-38.3c2-.8,3.3-2.7,3.3-4.9s0-.5-.1-.8l33.1-19.1c.9.7,2,1.1,3.3,1.1s2.4-.4,3.3-1.1l33.1,19.1c0,.2-.1.5-.1.8-.1,2.2,1.3,4.1,3.3,4.9ZM378.9,420.9v38.3c-2,.8-3.3,2.7-3.3,4.9s0,.5.1.8l-33.3,19.1c-.9-.7-2-1.1-3.3-1.1s-2.4.4-3.3,1.1l-33.1-19.1c0-.2.1-.5.1-.8,0-2.2-1.4-4.1-3.3-4.9v-38.3c2-.8,3.3-2.7,3.3-4.9s0-.5-.1-.8l33.1-19.1c.9.7,2,1.1,3.3,1.1s2.4-.4,3.3-1.1l33.1,19.1c0,.2-.1.5-.1.8.1,2.2,1.5,4.2,3.5,4.9ZM375.6,511.5c0,.2-.1.5-.1.8,0,2.2,1.4,4.1,3.3,4.9v38.3c-2,.8-3.3,2.7-3.3,4.9s0,.5.1.8l-33.1,19.1c-.9-.7-2-1.1-3.3-1.1s-2.4.4-3.3,1.1l-33.1-19.1c0-.2.1-.5.1-.8,0-2.2-1.4-4.1-3.3-4.9v-38.3c2-.8,3.3-2.7,3.3-4.9s0-.5-.1-.8l33.1-19.1c.9.7,2,1.1,3.3,1.1s2.4-.4,3.3-1.1l33.1,19.1ZM300.8,604.3c-.9-.7-2-1.1-3.3-1.1s-2.4.4-3.3,1.1l-33.1-19.1c0-.2.1-.5.1-.8s0-.5-.1-.8l33.1-19.1c.9.7,2,1.1,3.3,1.1s2.4-.4,3.3-1.1l33.1,19.1c0,.2-.1.5-.1.8s0,.5.1.8l-33.1,19.1ZM217.4,604.3c-.9-.7-2-1.1-3.3-1.1s-2.4.4-3.3,1.1l-33.1-19.1c0-.2.1-.5.1-.8s0-.5-.1-.8l33.1-19.1c.9.7,2,1.1,3.3,1.1s2.4-.4,3.3-1.1l33.1,19.1c0,.2-.1.5-.1.8s0,.5.1.8l-33.1,19.1ZM134.1,604.3c-.9-.7-2-1.1-3.3-1.1s-2.4.4-3.3,1.1l-33.1-19.1c0-.2,0-.5,0-.8s0-.5,0-.8l33.1-19.1c.9.7,2,1.1,3.3,1.1s2.4-.4,3.3-1.1l33.1,19.1c0,.2-.1.5-.1.8s0,.5.1.8l-33.1,19.1ZM50.8,604.3c-.9-.7-2-1.1-3.3-1.1s-2.4.4-3.3,1.1l-33.1-19.1c0-.2.1-.5.1-.8s0-.5-.1-.8l33.1-19.1c.9.7,2,1.1,3.3,1.1s2.4-.4,3.3-1.1l33.1,19.1c0,.2,0,.5,0,.8s0,.5,0,.8l-33.1,19.1ZM44.2-205.3c.9.7,2,1.1,3.3,1.1s2.4-.4,3.3-1.1l33.1,19.1c0,.2,0,.5,0,.8s0,.5,0,.8l-33.1,19.1c-.9-.7-2-1.1-3.3-1.1s-2.4.4-3.3,1.1l-33.1-19.1c0-.2.1-.5.1-.8s0-.5-.1-.8l33.1-19.1ZM127.6-205.3c.9.7,2,1.1,3.3,1.1s2.4-.4,3.3-1.1l33.1,19.1c0,.2-.1.5-.1.8h0c0,.3,0,.5.1.8l-33.1,19.1c-.9-.7-2-1.1-3.3-1.1s-2.4.4-3.3,1.1l-33.1-19.1c0-.2,0-.5,0-.8s0-.5,0-.8l33.1-19.1ZM210.9-205.3c.9.7,2,1.1,3.3,1.1s2.4-.4,3.3-1.1l33.1,19.1c0,.2-.1.5-.1.8s0,.5.1.8l-33.1,19.1c-.9-.7-2-1.1-3.3-1.1s-2.4.4-3.3,1.1l-33.1-19.1c0-.2.1-.5.1-.8h0c0-.3,0-.5-.1-.8l33.1-19.1ZM294.2-205.3c.9.7,2,1.1,3.3,1.1s2.4-.4,3.3-1.1l33.1,19.1c0,.2-.1.5-.1.8s0,.5.1.8l-33.1,19.1c-.9-.7-2-1.1-3.3-1.1s-2.4.4-3.3,1.1l-33.1-19.1c0-.2.1-.5.1-.8s0-.5-.1-.8l33.1-19.1ZM11.1,488.9c0-.2.1-.5.1-.8s0-.5-.1-.8l33.1-19.1c.9.7,2,1.1,3.3,1.1s2.4-.4,3.3-1.1l33.1,19.1c0,.2,0,.5,0,.8s0,.5,0,.8l-33.1,19.1c-.9-.7-2-1.1-3.3-1.1s-2.4.4-3.3,1.1l-33.1-19.1ZM11.1,392.7c0-.2.1-.5.1-.8h0v-.8l33.1-19.1c.9.7,2,1.1,3.3,1.1s2.4-.4,3.3-1.1l33.1,19.1v.8h0c0,.3,0,.5,0,.8l-33.1,19.1c-.9-.7-2-1.1-3.3-1.1s-2.4.4-3.3,1.1l-33.3-19.1ZM11.1,296.5c0-.2.1-.5.1-.8s0-.5-.1-.8l33.1-19.1c.9.7,2,1.1,3.3,1.1s2.4-.4,3.3-1.1l33.1,19.2c0,.2,0,.5,0,.8s0,.5,0,.8l-33.1,19.1c-.9-.7-2-1.1-3.3-1.1s-2.4.4-3.3,1.1l-33.1-19.2ZM11.1,200.3c0-.2.1-.5.1-.8s0-.5-.1-.8l33.1-19.1c.9.7,2,1.1,3.3,1.1s2.4-.4,3.3-1.1l33.1,19.1c0,.2,0,.5,0,.8s0,.5,0,.8l-33.1,19.1c-.9-.7-2-1.1-3.3-1.1s-2.4.4-3.3,1.1l-33.1-19.1ZM11.1,104c0-.2.1-.5.1-.8s0-.5-.1-.8l33.1-19.1c.9.7,2,1.1,3.3,1.1s2.4-.4,3.3-1.1l33.1,19.1c0,.2,0,.5,0,.8s0,.5,0,.8l-33.1,19.1c-.9-.7-2-1.1-3.3-1.1s-2.4.4-3.3,1.1l-33.1-19.1ZM11.1,7.8c0-.2.1-.5.1-.8v-.7l.3-.3h0L44.2-12.9c.9.7,2,1.1,3.3,1.1s2.4-.4,3.3-1.1L83.5,6h0l.4.2v.8c0,.3,0,.5,0,.8l-33.2,19.1c-.9-.7-2-1.1-3.3-1.1s-2.4.4-3.3,1.1L11.1,7.8ZM11.1-88.4c0-.2.1-.5.1-.8s0-.5-.1-.8l33.1-19.1c.9.7,2,1.1,3.3,1.1s2.4-.4,3.3-1.1l33.1,19.1c0,.2,0,.5,0,.8s0,.5,0,.8l-33.1,19.1c-.9-.7-2-1.1-3.3-1.1s-2.4.4-3.3,1.1l-33.1-19.1ZM333.9-89.9c0,.2-.1.5-.1.8s0,.5.1.8l-33.1,19.1c-.9-.7-2-1.1-3.3-1.1s-2.4.4-3.3,1.1l-33.1-19.1c0-.2.1-.5.1-.8s0-.5-.1-.8l33.1-19.1c.9.7,2,1.1,3.3,1.1s2.4-.4,3.3-1.1l33.1,19.1ZM333.5,6h0l.4.2v.8c0,.3,0,.5.1.8l-33.1,19.1c-.9-.7-2-1.1-3.3-1.1s-2.4.4-3.3,1.1l-33.2-19.1c0-.2.1-.5.1-.8v-.7l.4-.2h0l32.7-18.9c.9.7,2,1.1,3.3,1.1s2.4-.4,3.3-1.1l32.6,18.8ZM333.9,102.5c0,.2-.1.5-.1.8s0,.5.1.8l-33.1,19.1c-.9-.7-2-1.1-3.3-1.1s-2.4.4-3.3,1.1l-33.1-19.2c0-.2.1-.5.1-.8s0-.5-.1-.8l33.1-19.1c.9.7,2,1.1,3.3,1.1s2.4-.4,3.3-1.1l33.1,19.2ZM333.9,198.7c0,.2-.1.5-.1.8s0,.5.1.8l-33.1,19.1c-.9-.7-2-1.1-3.3-1.1s-2.4.4-3.3,1.1l-33.1-19.1c0-.2.1-.5.1-.8s0-.5-.1-.8l33.1-19.1c.9.7,2,1.1,3.3,1.1s2.4-.4,3.3-1.1l33.1,19.1ZM333.9,295c0,.2-.1.5-.1.8s0,.5.1.8l-33.1,19.1c-.9-.7-2-1.1-3.3-1.1s-2.4.4-3.3,1.1l-33.1-19.1c0-.2.1-.5.1-.8s0-.5-.1-.8l33.1-19.1c.9.7,2,1.1,3.3,1.1s2.4-.4,3.3-1.1l33.1,19.1ZM333.9,391.2v.8h0c0,.3,0,.5.1.8l-33.1,19.1c-.9-.7-2-1.1-3.3-1.1s-2.4.4-3.3,1.1l-33.1-19.1c0-.2.1-.5.1-.8h0v-.8l33.1-19.1c.9.7,2,1.1,3.3,1.1s2.4-.4,3.3-1.1l32.9,19.1ZM333.9,487.4c0,.2-.1.5-.1.8s0,.5.1.8l-33.1,19.1c-.9-.7-2-1.1-3.3-1.1s-2.4.4-3.3,1.1l-33.1-19.1c0-.2.1-.5.1-.8s0-.5-.1-.8l33.1-19.1c.9.7,2,1.1,3.3,1.1s2.4-.4,3.3-1.1l33.1,19.1ZM259.1,580.2c-.9-.7-2-1.1-3.3-1.1s-2.4.4-3.3,1.1l-33.1-19.1c0-.2.1-.5.1-.8,0-2.2-1.4-4.1-3.3-4.9v-38.3c2-.8,3.3-2.7,3.3-4.9s0-.5-.1-.8l33.1-19.1c.9.7,2,1.1,3.3,1.1s2.4-.4,3.3-1.1l33.1,19.1c0,.2-.1.5-.1.8,0,2.2,1.4,4.1,3.3,4.9v38.3c-2,.8-3.3,2.7-3.3,4.9s0,.5.1.8l-33.1,19.1ZM175.8,580.2c-.9-.7-2-1.1-3.3-1.1h-1c-.8.3-1.6.6-2.3,1.1l-33.1-19.1c0-.2.1-.5.1-.8,0-2.2-1.4-4.1-3.3-4.9v-38.3c2-.8,3.3-2.7,3.3-4.9s0-.5-.1-.8l33.1-19.1c.7.5,1.4.9,2.3,1h0c0,.1,1,.1,1,.1,1.2,0,2.4-.4,3.3-1.1l33.1,19.1c0,.2-.1.5-.1.8,0,2.2,1.4,4.1,3.3,4.9v38.3c-2,.8-3.3,2.7-3.3,4.9s0,.5.1.8l-33.1,19.1ZM92.4,580.2c-.9-.7-2-1.1-3.3-1.1s-2.4.4-3.3,1.1l-33.1-19.1c0-.2,0-.5,0-.8,0-2.2-1.4-4.1-3.3-4.9v-38.3c2-.8,3.3-2.7,3.3-4.9s0-.5,0-.8l33.1-19.1c.9.7,2,1.1,3.3,1.1s2.4-.4,3.3-1.1l33.1,19.1c0,.2,0,.5,0,.8,0,2.2,1.4,4.1,3.3,4.9v38.3c-2,.8-3.3,2.7-3.3,4.9s0,.5,0,.8l-33.1,19.1ZM85.9-181.2c.9.7,2,1.1,3.3,1.1s2.4-.4,3.3-1.1l33.1,19.1c0,.2,0,.5,0,.8,0,2.2,1.4,4.1,3.3,4.9v38.3c-2,.8-3.3,2.7-3.3,4.9s0,.5,0,.8l-33.2,19.1c-.9-.7-2-1.1-3.3-1.1s-2.4.4-3.3,1.1l-33.1-19.1c0-.2,0-.5,0-.8,0-2.2-1.4-4.1-3.3-4.9v-38.3c2-.8,3.3-2.7,3.3-4.9s0-.5,0-.8l33.2-19.1ZM169.2-181.2c.4.3.8.5,1.2.7.3.1.7.2,1.1.3h0c0,.1,1,.1,1,.1.7,0,1.4-.1,2.1-.4.4-.2.8-.4,1.2-.7l33.1,19.1c0,.2-.1.5-.1.8,0,2.2,1.4,4.1,3.3,4.9v38.3c-2,.8-3.3,2.7-3.3,4.9s0,.5.1.8l-33.1,19.1c-.9-.7-2-1.1-3.3-1.1h-1c-.8.3-1.6.6-2.3,1.1l-33.1-19.1c0-.2.1-.5.1-.8,0-2.2-1.4-4.1-3.3-4.9v-38.3c2-.8,3.3-2.7,3.3-4.9s0-.5-.1-.8l33.1-19.1ZM252.6-181.2c.9.7,2,1.1,3.3,1.1s2.4-.4,3.3-1.1l33.1,19.1c0,.2-.1.5-.1.8,0,2.2,1.4,4.1,3.3,4.9v38.3c-2,.8-3.3,2.7-3.3,4.9s0,.5.1.8l-33.1,19.1c-.9-.7-2-1.1-3.3-1.1s-2.4.4-3.3,1.1l-33.1-19.1c0-.2.1-.5.1-.8,0-2.2-1.4-4.1-3.3-4.9v-38.3c2-.8,3.3-2.7,3.3-4.9s0-.5-.1-.8l33.1-19.1ZM52.8,464.9c0-.2,0-.5,0-.8,0-2.2-1.4-4.1-3.3-4.9v-38.3c2-.8,3.3-2.7,3.3-4.9s0-.5,0-.8l33.1-19.1c.9.7,2,1.1,3.3,1.1s2.4-.4,3.3-1.1l33.1,19.1c0,.2,0,.5,0,.8,0,2.2,1.4,4.1,3.3,4.9v38.3c-2,.8-3.3,2.7-3.3,4.9s0,.5,0,.8l-33.2,19.1c-.9-.7-2-1.1-3.3-1.1s-2.4.4-3.3,1.1l-33-19.1ZM49.5,363v-38.3c2-.8,3.3-2.7,3.3-4.9s0-.5,0-.8l33.1-19.1c.9.7,2,1.1,3.3,1.1s2.4-.4,3.3-1.1l33.1,19.1c0,.2,0,.5,0,.8,0,2.2,1.4,4.1,3.3,4.9v38.3c-2,.8-3.3,2.7-3.3,4.9s0,.5,0,.8l-33.1,19.1c-.9-.7-2-1.1-3.3-1.1s-2.4.4-3.3,1.1l-33.1-19.1c0-.2,0-.5,0-.8,0-2.2-1.4-4.1-3.3-4.9ZM52.8,272.4c0-.2,0-.5,0-.8,0-2.2-1.4-4.1-3.3-4.9v-38.3c2-.8,3.3-2.7,3.3-4.9s0-.5,0-.8l33.1-19.1c.9.7,2,1.1,3.3,1.1s2.4-.4,3.3-1.1l33.1,19.1c0,.2,0,.5,0,.8,0,2.2,1.4,4.1,3.3,4.9v38.3c-2,.8-3.3,2.7-3.3,4.9s0,.5,0,.8l-33.1,19.1c-.9-.7-2-1.1-3.3-1.1s-2.4.4-3.3,1.1l-33.1-19.1ZM52.8,176.2c0-.2,0-.5,0-.8,0-2.2-1.4-4.1-3.3-4.9v-38.3c2-.8,3.3-2.7,3.3-4.9s0-.5,0-.8l33.1-19.1c.9.7,2,1.1,3.3,1.1s2.4-.4,3.3-1.1l33.1,19.1c0,.2,0,.5,0,.8,0,2.2,1.4,4.1,3.3,4.9v38.3c-2,.8-3.3,2.7-3.3,4.9s0,.5,0,.8l-33.1,19.1c-.9-.7-2-1.1-3.3-1.1s-2.4.4-3.3,1.1l-33.1-19.1ZM52.8,80c0-.2,0-.5,0-.8,0-2.2-1.4-4.1-3.3-4.9v-38.3c2-.8,3.3-2.7,3.3-4.9s0-.5,0-.8l33.1-19.1c.9.7,2,1.1,3.3,1.1s2.4-.4,3.3-1.1l33.1,19.1c0,.2,0,.5,0,.8,0,2.2,1.4,4.1,3.3,4.9v38.3c-2,.8-3.3,2.7-3.3,4.9s0,.5,0,.8l-33.2,19.1c-.9-.7-2-1.1-3.3-1.1s-2.4.4-3.3,1.1l-33-19.1ZM52.8-16.2c0-.2,0-.5,0-.8,0-2.2-1.4-4.1-3.3-4.9v-38.3c2-.8,3.3-2.7,3.3-4.9s0-.5,0-.8l33.1-19.1c.9.7,2,1.1,3.3,1.1s2.4-.4,3.3-1.1l33.1,19.1c0,.2,0,.5,0,.8,0,2.2,1.4,4.1,3.3,4.9V-21.9c-2,.8-3.3,2.7-3.3,4.9s0,.5,0,.8L92.4,2.9c-.9-.7-2-1.1-3.3-1.1s-2.4.4-3.3,1.1l-33-19.1ZM217.4,508.1c-.9-.7-2-1.1-3.3-1.1s-2.4.4-3.3,1.1l-33.1-19.1c0-.2.1-.5.1-.8s0-.5-.1-.8l33.1-19.1c.9.7,2,1.1,3.3,1.1s2.4-.4,3.3-1.1l33.1,19.1c0,.2-.1.5-.1.8s0,.5.1.8l-33.1,19.1ZM134.1,508.1c-.9-.7-2-1.1-3.3-1.1s-2.4.4-3.3,1.1l-33.1-19.1c0-.2,0-.5,0-.8s0-.5,0-.8l33.1-19.1c.9.7,2,1.1,3.3,1.1s2.4-.4,3.3-1.1l33.1,19.1c0,.2-.1.5-.1.8s0,.5.1.8l-33.1,19.1ZM127.6-109.1c.9.7,2,1.1,3.3,1.1s2.4-.4,3.3-1.1l33.1,19.1c0,.2-.1.5-.1.8s0,.5.1.8l-33.1,19.1c-.9-.7-2-1.1-3.3-1.1s-2.4.4-3.3,1.1l-33.2-19.1c0-.2,0-.5,0-.8s0-.5,0-.8l33.2-19.1ZM210.9-109.1c.9.7,2,1.1,3.3,1.1s2.4-.4,3.3-1.1l33.1,19.1c0,.2-.1.5-.1.8s0,.5.1.8l-33.1,19.1c-.9-.7-2-1.1-3.3-1.1s-2.4.4-3.3,1.1l-33.1-19.1c0-.2.1-.5.1-.8s0-.5-.1-.8l33.1-19.1ZM250.2,6h0l.4.2v.8c0,.3,0,.5.1.8l-33.1,19.1c-.9-.7-2-1.1-3.3-1.1s-2.4.4-3.3,1.1l-33.2-19.1c0-.2.1-.5.1-.8v-.7l.4-.2h0l32.7-18.9c.9.7,2,1.1,3.3,1.1s2.4-.4,3.3-1.1l32.6,18.8ZM250.6,102.5c0,.2-.1.5-.1.8s0,.5.1.8l-33.1,19.1c-.9-.7-2-1.1-3.3-1.1s-2.4.4-3.3,1.1l-33.1-19.2c0-.2.1-.5.1-.8s0-.5-.1-.8l33.1-19.1c.9.7,2,1.1,3.3,1.1s2.4-.4,3.3-1.1l33.1,19.2ZM250.6,198.7c0,.2-.1.5-.1.8s0,.5.1.8l-33.1,19.1c-.9-.7-2-1.1-3.3-1.1s-2.4.4-3.3,1.1l-33.1-19.1c0-.2.1-.5.1-.8s0-.5-.1-.8l33.1-19.1c.9.7,2,1.1,3.3,1.1s2.4-.4,3.3-1.1l33.1,19.1ZM250.6,295c0,.2-.1.5-.1.8s0,.5.1.8l-33.1,19.1c-.9-.7-2-1.1-3.3-1.1s-2.4.4-3.3,1.1l-33.1-19.1c0-.2.1-.5.1-.8s0-.5-.1-.8l33.1-19.1c.9.7,2,1.1,3.3,1.1s2.4-.4,3.3-1.1l33.1,19.1ZM250.5,391.2v.8h0c0,.3,0,.5.1.8l-33.1,19.1c-.9-.7-2-1.1-3.3-1.1s-2.4.4-3.3,1.1l-33.1-19.1c0-.2.1-.5.1-.8h0v-.8l33.1-19.1c.9.7,2,1.1,3.3,1.1s2.4-.4,3.3-1.1l32.9,19.1ZM94.4,392.7c0-.2,0-.5,0-.8h0v-.8l33.1-19.1c.9.7,2,1.1,3.3,1.1s2.4-.4,3.3-1.1l33.1,19.1v.8h0c0,.3,0,.5.1.8l-33.1,19.1c-.9-.7-2-1.1-3.3-1.1s-2.4.4-3.3,1.1l-33.3-19.1ZM94.4,296.5c0-.2,0-.5,0-.8s0-.5,0-.8l33.1-19.1c.9.7,2,1.1,3.3,1.1s2.4-.4,3.3-1.1l33.1,19.1c0,.2-.1.5-.1.8s0,.5.1.8l-33.1,19.1c-.9-.7-2-1.1-3.3-1.1s-2.4.4-3.3,1.1l-33.1-19.1ZM94.4,200.3c0-.2,0-.5,0-.8s0-.5,0-.8l33.1-19.1c.9.7,2,1.1,3.3,1.1s2.4-.4,3.3-1.1l33.1,19.1c0,.2-.1.5-.1.8s0,.5.1.8l-33.1,19.1c-.9-.7-2-1.1-3.3-1.1s-2.4.4-3.3,1.1l-33.1-19.1ZM94.4,104c0-.2,0-.5,0-.8s0-.5,0-.8l33.1-19.1c.9.7,2,1.1,3.3,1.1s2.4-.4,3.3-1.1l33.1,19.1c0,.2-.1.5-.1.8s0,.5.1.8l-33.1,19.1c-.9-.7-2-1.1-3.3-1.1s-2.4.4-3.3,1.1l-33.1-19.1ZM94.4,7.8c0-.2,0-.5,0-.8v-.7l.3-.3h0l32.7-18.9c.9.7,2,1.1,3.3,1.1s2.4-.4,3.3-1.1l32.7,18.9h0l.4.2v.8c0,.3,0,.5.1.8l-33.1,19.1c-.9-.7-2-1.1-3.3-1.1s-2.4.4-3.3,1.1L94.4,7.8ZM208.9,464.1c0,.3,0,.5.1.8l-33.2,19.1c-.9-.7-2-1.1-3.3-1.1h-1c-.8.3-1.6.6-2.3,1.1l-33.1-19.1c0-.2.1-.5.1-.8,0-2.2-1.4-4.1-3.3-4.9v-38.3c2-.8,3.3-2.7,3.3-4.9s0-.5-.1-.8l33.1-19.1c.7.5,1.4.9,2.3,1h0c0,.1,1,.1,1,.1,1.2,0,2.4-.4,3.3-1.1l33.1,19.1c0,.2-.1.5-.1.8,0,2.2,1.4,4.1,3.3,4.9v38.3c-1.9.8-3.2,2.7-3.2,4.9ZM208.9,367.9c0,.3,0,.5.1.8l-33.1,19.1c-.9-.7-2-1.1-3.3-1.1h-1c-.8.3-1.6.6-2.3,1.1l-33.1-19.1c0-.2.1-.5.1-.8,0-2.2-1.4-4.1-3.3-4.9v-38.3c2-.8,3.3-2.7,3.3-4.9s0-.5-.1-.8l33.1-19.1c.7.5,1.4.9,2.3,1h0c0,.1,1,.1,1,.1,1.2,0,2.4-.4,3.3-1.1l33.1,19.1c0,.2-.1.5-.1.8,0,2.2,1.4,4.1,3.3,4.9v38.3c-2,.8-3.3,2.7-3.3,4.9ZM208.9,271.7c0,.3,0,.5.1.8l-33.1,19.1c-.9-.7-2-1.1-3.3-1.1h-1c-.8.3-1.6.6-2.3,1.1l-33.1-19.1c0-.2.1-.5.1-.8,0-2.2-1.4-4.1-3.3-4.9v-38.3c2-.8,3.3-2.7,3.3-4.9s0-.5-.1-.8l33.1-19.1c.7.5,1.4.9,2.3,1h0c0,.1,1,.1,1,.1,1.2,0,2.4-.4,3.3-1.1l33.1,19.1c0,.2-.1.5-.1.8,0,2.2,1.4,4.1,3.3,4.9v38.3c-2,.7-3.3,2.6-3.3,4.9ZM208.9,175.4c0,.3,0,.5.1.8l-33.1,19.1c-.9-.7-2-1.1-3.3-1.1h-1c-.8.3-1.6.6-2.3,1.1l-33.1-19.1c0-.2.1-.5.1-.8,0-2.2-1.4-4.1-3.3-4.9v-38.3c2-.8,3.3-2.7,3.3-4.9s0-.5-.1-.8l33.1-19.1c.7.5,1.4.9,2.3,1h0c0,0,1,0,1,0,1.2,0,2.4-.4,3.3-1.1l33.1,19.1c0,.2-.1.5-.1.8,0,2.2,1.4,4.1,3.3,4.9v38.3c-2,.8-3.3,2.7-3.3,4.9ZM208.9,79.2c0,.3,0,.5.1.8l-33.1,19.1c-.9-.7-2-1.1-3.3-1.1h-1c-.8.3-1.6.6-2.3,1.1l-33.2-19.1c0-.2.1-.5.1-.8,0-2.2-1.4-4.1-3.3-4.9v-38.3c2-.8,3.3-2.7,3.3-4.9s0-.5-.1-.8l33.1-19.1c.7.5,1.4.9,2.3,1h0c0,.1,1,.1,1,.1,1.2,0,2.4-.4,3.3-1.1l33.1,19.1c0,.2-.1.5-.1.8,0,2.2,1.4,4.1,3.3,4.9v38.3c-1.9.8-3.2,2.7-3.2,4.9ZM208.9-17c0,.3,0,.5.1.8L175.8,2.9c-.9-.7-2-1.1-3.3-1.1h-1c-.8.3-1.6.6-2.3,1.1l-33.1-19.1c0-.2.1-.5.1-.8,0-2.2-1.4-4.1-3.3-4.9v-38.3c2-.8,3.3-2.7,3.3-4.9s0-.5-.1-.8l33.1-19.1c.7.5,1.4.9,2.3,1h0c0,0,1,0,1,0,1.2,0,2.4-.4,3.3-1.1l33.1,19.1c0,.2-.1.5-.1.8,0,2.2,1.4,4.1,3.3,4.9V-21.9c-1.9.8-3.2,2.7-3.2,4.9ZM292.2,464.1c0,.3,0,.5.1.8l-33.2,19.1c-.9-.7-2-1.1-3.3-1.1s-2.4.4-3.3,1.1l-33.1-19.1c0-.2.1-.5.1-.8,0-2.2-1.4-4.1-3.3-4.9v-38.3c2-.8,3.3-2.7,3.3-4.9s0-.5-.1-.8l33.1-19.1c.9.7,2,1.1,3.3,1.1s2.4-.4,3.3-1.1l33.1,19.1c0,.2-.1.5-.1.8,0,2.2,1.4,4.1,3.3,4.9v38.3c-1.8.8-3.2,2.7-3.2,4.9ZM292.2,367.9c0,.3,0,.5.1.8l-33.1,19.1c-.9-.7-2-1.1-3.3-1.1s-2.4.4-3.3,1.1l-33.1-19.1c0-.2.1-.5.1-.8,0-2.2-1.4-4.1-3.3-4.9v-38.3c2-.8,3.3-2.7,3.3-4.9s0-.5-.1-.8l33.1-19.1c.9.7,2,1.1,3.3,1.1s2.4-.4,3.3-1.1l33.1,19.1c0,.2-.1.5-.1.8,0,2.2,1.4,4.1,3.3,4.9v38.3c-1.9.8-3.3,2.7-3.3,4.9ZM292.2,271.7c0,.3,0,.5.1.8l-33.1,19.1c-.9-.7-2-1.1-3.3-1.1s-2.4.4-3.3,1.1l-33.1-19.1c0-.2.1-.5.1-.8,0-2.2-1.4-4.1-3.3-4.9v-38.3c2-.8,3.3-2.7,3.3-4.9s0-.5-.1-.8l33.1-19.1c.9.7,2,1.1,3.3,1.1s2.4-.4,3.3-1.1l33.1,19.1c0,.2-.1.5-.1.8,0,2.2,1.4,4.1,3.3,4.9v38.3c-1.9.7-3.3,2.6-3.3,4.9ZM292.2,175.4c0,.3,0,.5.1.8l-33.1,19.1c-.9-.7-2-1.1-3.3-1.1s-2.4.4-3.3,1.1l-33.1-19.1c0-.2.1-.5.1-.8,0-2.2-1.4-4.1-3.3-4.9v-38.3c2-.8,3.3-2.7,3.3-4.9s0-.5-.1-.8l33.1-19.1c.9.7,2,1.1,3.3,1.1s2.4-.4,3.3-1.1l33.1,19.1c0,.2-.1.5-.1.8,0,2.2,1.4,4.1,3.3,4.9v38.3c-1.9.8-3.3,2.7-3.3,4.9ZM292.2,79.2c0,.3,0,.5.1.8l-33.1,19.1c-.9-.7-2-1.1-3.3-1.1s-2.4.4-3.3,1.1l-33.2-19.1c0-.2.1-.5.1-.8,0-2.2-1.4-4.1-3.3-4.9v-38.3c2-.8,3.3-2.7,3.3-4.9s0-.5-.1-.8l33.1-19.1c.9.7,2,1.1,3.3,1.1s2.4-.4,3.3-1.1l33.1,19.1c0,.2-.1.5-.1.8,0,2.2,1.4,4.1,3.3,4.9v38.3c-1.8.8-3.2,2.7-3.2,4.9ZM292.2-17c0,.3,0,.5.1.8l-33.2,19.1c-.9-.7-2-1.1-3.3-1.1s-2.4.4-3.3,1.1l-33.1-19.1c0-.2.1-.5.1-.8,0-2.2-1.4-4.1-3.3-4.9v-38.3c2-.8,3.3-2.7,3.3-4.9s0-.5-.1-.8l33.2-19.1c.9.7,2,1.1,3.3,1.1s2.4-.4,3.3-1.1l33.1,19.1c0,.2-.1.5-.1.8,0,2.2,1.4,4.1,3.3,4.9V-21.9c-1.9.7-3.3,2.7-3.3,4.9ZM-30.5-161.3c0-.3,0-.5-.1-.8L2.5-181.2c.9.7,2,1.1,3.3,1.1s2.4-.4,3.3-1.1l33.1,19.1c0,.2,0,.5,0,.8,0,2.2,1.4,4.1,3.3,4.9v38.3c-2,.8-3.3,2.7-3.3,4.9s0,.5,0,.8l-33.1,19.1c-.9-.7-2-1.1-3.3-1.1s-2.4.4-3.3,1.1l-33.1-19.1c0-.2.1-.5.1-.8,0-2.2-1.4-4.1-3.3-4.9v-38.3c1.9-.8,3.3-2.7,3.3-4.9ZM-30.5-65.1c0-.3,0-.5-.1-.8L2.6-85c.9.7,2,1.1,3.3,1.1s2.4-.4,3.3-1.1l33.1,19.1c0,.2,0,.5,0,.8,0,2.2,1.4,4.1,3.3,4.9V-21.9c-2,.8-3.3,2.7-3.3,4.9s0,.5,0,.8L9.1,2.9c-.9-.7-2-1.1-3.3-1.1s-2.4.4-3.3,1.1L-30.6-16.2c0-.2.1-.5.1-.8,0-2.2-1.4-4.1-3.3-4.9v-38.3c1.9-.8,3.3-2.7,3.3-4.9ZM-30.5,31.1c0-.3,0-.5-.1-.8L2.6,11.2c.9.7,2,1.1,3.3,1.1s2.4-.4,3.3-1.1l33.1,19.1c0,.2,0,.5,0,.8,0,2.2,1.4,4.1,3.3,4.9v38.3c-2,.8-3.3,2.7-3.3,4.9s0,.5,0,.8l-33.2,19.1c-.9-.7-2-1.1-3.3-1.1s-2.4.4-3.3,1.1l-33.1-19.1c0-.2.1-.5.1-.8,0-2.2-1.4-4.1-3.3-4.9v-38.3c1.9-.8,3.3-2.7,3.3-4.9ZM-30.5,127.3c0-.3,0-.5-.1-.8L2.5,107.4c.9.7,2,1.1,3.3,1.1s2.4-.4,3.3-1.1l33.1,19.1c0,.2,0,.5,0,.8,0,2.2,1.4,4.1,3.3,4.9v38.3c-2,.8-3.3,2.7-3.3,4.9s0,.5,0,.8l-33.1,19.1c-.9-.7-2-1.1-3.3-1.1s-2.4.4-3.3,1.1l-33.1-19.1c0-.2.1-.5.1-.8,0-2.2-1.4-4.1-3.3-4.9v-38.3c1.9-.7,3.3-2.6,3.3-4.9ZM-30.5,223.6c0-.3,0-.5-.1-.8L2.5,203.7c.9.7,2,1.1,3.3,1.1s2.4-.4,3.3-1.1l33.1,19.1c0,.2,0,.5,0,.8,0,2.2,1.4,4.1,3.3,4.9v38.3c-2,.8-3.3,2.7-3.3,4.9s0,.5,0,.8l-33.1,19.1c-.9-.7-2-1.1-3.3-1.1s-2.4.4-3.3,1.1l-33.1-19.1c0-.2.1-.5.1-.8,0-2.2-1.4-4.1-3.3-4.9v-38.3c1.9-.8,3.3-2.7,3.3-4.9ZM-30.5,319.8c0-.3,0-.5-.1-.8l33.1-19.1c.9.7,2,1.1,3.3,1.1s2.4-.4,3.3-1.1l33.2,19.1c0,.2,0,.5,0,.8,0,2.2,1.4,4.1,3.3,4.9v38.3c-2,.8-3.3,2.7-3.3,4.9s0,.5,0,.8l-33.2,19.1c-.9-.7-2-1.1-3.3-1.1s-2.4.4-3.3,1.1l-33.1-19.1c0-.2.1-.5.1-.8,0-2.2-1.4-4.1-3.3-4.9v-38.3c1.9-.8,3.3-2.7,3.3-4.9ZM-30.5,416c0-.3,0-.5-.1-.8l33.1-19.1c.9.7,2,1.1,3.3,1.1s2.4-.4,3.3-1.1l33.1,19.1c0,.2,0,.5,0,.8,0,2.2,1.4,4.1,3.3,4.9v38.3c-2,.8-3.3,2.7-3.3,4.9s0,.5,0,.8l-33.1,19.1c-.9-.7-2-1.1-3.3-1.1s-2.4.4-3.3,1.1l-33.1-19.1c0-.2.1-.5.1-.8,0-2.2-1.4-4.1-3.3-4.9v-38.3c1.9-.7,3.3-2.7,3.3-4.9ZM-30.5,512.2c0-.3,0-.5-.1-.8l33.1-19.1c.9.7,2,1.1,3.3,1.1s2.4-.4,3.3-1.1l33.1,19.1c0,.2,0,.5,0,.8,0,2.2,1.4,4.1,3.3,4.9v38.3c-2,.8-3.3,2.7-3.3,4.9s0,.5,0,.8l-33.1,19.1c-.9-.7-2-1.1-3.3-1.1s-2.4.4-3.3,1.1l-33.1-19.1c0-.2.1-.5.1-.8,0-2.2-1.4-4.1-3.3-4.9v-38.3c1.9-.7,3.3-2.6,3.3-4.9Z"/>
                <path class="cls-10" d="M210.9,372.1l-33.1,19.1v.8h72.7v-.8l-33.1-19.1c-.9.7-2,1.1-3.3,1.1s-2.3-.4-3.2-1.1Z"/>
                <path class="cls-10" d="M208.9,319.8c0-.3,0-.5.1-.8l-33.1-19.1c-.9.7-2,1.1-3.3,1.1h-1c-.8-.3-1.6-.6-2.3-1.1l-33.2,19.1c0,.2.1.5.1.8,0,2.2-1.4,4.1-3.3,4.9v38.3c2,.8,3.3,2.7,3.3,4.9s0,.5-.1.8l33.1,19.1c.7-.5,1.4-.9,2.3-1h0c0-.1,1-.1,1-.1,1.2,0,2.4.4,3.3,1.1l33.1-19.1c0-.2-.1-.5-.1-.8,0-2.2,1.4-4.1,3.3-4.9v-38.3c-1.9-.8-3.2-2.7-3.2-4.9Z"/>
                <path class="cls-10" d="M210.9,179.6l-33.1,19.1c0,.2.1.5.1.8s0,.5-.1.8l33.1,19.1c.9-.7,2-1.1,3.3-1.1s2.4.4,3.3,1.1l33.1-19.1c0-.2-.1-.5-.1-.8s0-.5.1-.8l-33.1-19.1c-.9.7-2,1.1-3.3,1.1-1.3,0-2.4-.4-3.3-1.1Z"/>
                <path class="cls-10" d="M292.2,127.3c0-.3,0-.5.1-.8l-33.1-19.1c-.9.7-2,1.1-3.3,1.1s-2.4-.4-3.3-1.1l-33.1,19.1c0,.2.1.5.1.8,0,2.2-1.4,4.1-3.3,4.9v38.3c2,.8,3.3,2.7,3.3,4.9s0,.5-.1.8l33.1,19.1c.9-.7,2-1.1,3.3-1.1s2.4.4,3.3,1.1l33.1-19.1c0-.2-.1-.5-.1-.8,0-2.2,1.4-4.1,3.3-4.9v-38.3c-1.9-.7-3.3-2.6-3.3-4.9Z"/>
                <path class="cls-10" d="M208.9,127.3c0-.3,0-.5.1-.8l-33.1-19.1c-.9.7-2,1.1-3.3,1.1h-1c-.8-.3-1.6-.6-2.3-1.1l-33.1,19.1c0,.2.1.5.1.8,0,2.2-1.4,4.1-3.3,4.9v38.3c2,.8,3.3,2.7,3.3,4.9s0,.5-.1.8l33.1,19.1c.7-.5,1.4-.9,2.3-1h0c0-.1,1-.1,1-.1,1.2,0,2.4.4,3.3,1.1l33.1-19.1c0-.2-.1-.5-.1-.8,0-2.2,1.4-4.1,3.3-4.9v-38.3c-2-.7-3.3-2.6-3.3-4.9Z"/>
                <path class="cls-10" d="M208.9,223.6c0-.3,0-.5.1-.8l-33.1-19.1c-.9.7-2,1.1-3.3,1.1h-1c-.8-.3-1.6-.6-2.3-1.1l-33.1,19.1c0,.2.1.5.1.8,0,2.2-1.4,4.1-3.3,4.9v38.3c2,.8,3.3,2.7,3.3,4.9s0,.5-.1.8l33.1,19.1c.7-.5,1.4-.9,2.3-1h0c0-.1,1-.1,1-.1,1.2,0,2.4.4,3.3,1.1l33.1-19.1c0-.2-.1-.5-.1-.8,0-2.2,1.4-4.1,3.3-4.9v-38.3c-2-.8-3.3-2.7-3.3-4.9Z"/>
                <path class="cls-10" d="M294.2,275.8l-33.1,19.2c0,.2.1.5.1.8s0,.5-.1.8l33.1,19.1c.9-.7,2-1.1,3.3-1.1s2.4.4,3.3,1.1l33.1-19.1c0-.2-.1-.5-.1-.8s0-.5.1-.8l-33.1-19.1c-.9.7-2,1.1-3.3,1.1s-2.4-.5-3.3-1.2Z"/>
                <path class="cls-10" d="M210.9,275.8l-33.1,19.2c0,.2.1.5.1.8s0,.5-.1.8l33.1,19.1c.9-.7,2-1.1,3.3-1.1s2.4.4,3.3,1.1l33.1-19.1c0-.2-.1-.5-.1-.8s0-.5.1-.8l-33.1-19.1c-.9.7-2,1.1-3.3,1.1s-2.4-.5-3.3-1.2Z"/>
                <path class="cls-10" d="M210.9,83.4l-33.1,19.1c0,.2.1.5.1.8s0,.5-.1.8l33.1,19.1c.9-.7,2-1.1,3.3-1.1s2.4.4,3.3,1.1l33.1-19.1c0-.2-.1-.5-.1-.8s0-.5.1-.8l-33.1-19.1c-.9.7-2,1.1-3.3,1.1s-2.4-.4-3.3-1.1Z"/>
                <path class="cls-10" d="M294.2,372.1l-33.1,19.1v.8h72.7v-.8l-33.1-19.1c-.9.7-2,1.1-3.3,1.1s-2.3-.4-3.2-1.1Z"/>
                <path class="cls-10" d="M292.2,223.6c0-.3,0-.5.1-.8l-33.1-19.1c-.9.7-2,1.1-3.3,1.1s-2.4-.4-3.3-1.1l-33.1,19.1c0,.2.1.5.1.8,0,2.2-1.4,4.1-3.3,4.9v38.3c2,.8,3.3,2.7,3.3,4.9s0,.5-.1.8l33.1,19.1c.9-.7,2-1.1,3.3-1.1s2.4.4,3.3,1.1l33.1-19.1c0-.2-.1-.5-.1-.8,0-2.2,1.4-4.1,3.3-4.9v-38.3c-1.9-.8-3.3-2.7-3.3-4.9Z"/>
                <path class="cls-10" d="M294.2,179.6l-33.1,19.1c0,.2.1.5.1.8s0,.5-.1.8l33.1,19.1c.9-.7,2-1.1,3.3-1.1s2.4.4,3.3,1.1l33.1-19.1c0-.2-.1-.5-.1-.8s0-.5.1-.8l-33.1-19.1c-.9.7-2,1.1-3.3,1.1-1.2,0-2.4-.4-3.3-1.1Z"/>
                <path class="cls-10" d="M292.2,319.8c0-.3,0-.5.1-.8l-33.1-19.1c-.9.7-2,1.1-3.3,1.1s-2.4-.4-3.3-1.1l-33.2,19.1c0,.2.1.5.1.8,0,2.2-1.4,4.1-3.3,4.9v38.3c2,.8,3.3,2.7,3.3,4.9s0,.5-.1.8l33.1,19.1c.9-.7,2-1.1,3.3-1.1s2.4.4,3.3,1.1l33.1-19.1c0-.2-.1-.5-.1-.8,0-2.2,1.4-4.1,3.3-4.9v-38.3c-1.8-.8-3.2-2.7-3.2-4.9Z"/>
                <path class="cls-10" d="M208.9,31.1c0-.3,0-.5.1-.8l-33.1-19.1c-.9.7-2,1.1-3.3,1.1h-1c-.8-.3-1.6-.6-2.3-1.1l-33.1,19.1c0,.2.1.5.1.8,0,2.2-1.4,4.1-3.3,4.9v38.3c2,.8,3.3,2.7,3.3,4.9s0,.5-.1.8l33.1,19.1c.7-.5,1.4-.9,2.3-1h0c0-.1,1-.1,1-.1,1.2,0,2.4.4,3.3,1.1l33-19.1c0-.2-.1-.5-.1-.8,0-2.2,1.4-4.1,3.3-4.9v-38.3c-1.9-.8-3.2-2.7-3.2-4.9Z"/>
                <path class="cls-10" d="M294.2,83.4l-33.1,19.1c0,.2.1.5.1.8s0,.5-.1.8l33.1,19.1c.9-.7,2-1.1,3.3-1.1s2.4.4,3.3,1.1l33.1-19.1c0-.2-.1-.5-.1-.8s0-.5.1-.8l-33.1-19.1c-.9.7-2,1.1-3.3,1.1s-2.4-.4-3.3-1.1Z"/>
                <path class="cls-10" d="M342.4,11.2c-.9.7-2,1.1-3.3,1.1s-2.4-.4-3.3-1.1l-33.1,19.1c0,.2.1.5.1.8,0,2.2-1.4,4.1-3.3,4.9v38.3c2,.8,3.3,2.7,3.3,4.9s0,.5-.1.8l33.1,19.1c.9-.7,2-1.1,3.3-1.1s2.4.4,3.3,1.1l33.2-19.1c0-.2-.1-.5-.1-.8,0-2.2,1.4-4.1,3.3-4.9v-38.3c-2-.8-3.3-2.7-3.3-4.9s0-.5.1-.8l-33.2-19.1Z"/>
                <path class="cls-10" d="M386.1,222.8c0,.2.1.5.1.8,0,2.2-1.4,4.1-3.3,4.9v38.3c2,.8,3.3,2.7,3.3,4.9s0,.5-.1.8l33.1,19.1c.9-.7,2-1.1,3.3-1.1v-85.6c-1.2,0-2.4-.4-3.3-1.1l-33.1,19Z"/>
                <path class="cls-10" d="M377.6,275.8l-33.2,19.2c0,.2.1.5.1.8s0,.5-.1.8l33.1,19.1c.9-.7,2-1.1,3.3-1.1s2.4.4,3.3,1.1l33.1-19.1c0-.2-.1-.5-.1-.8s0-.5.1-.8l-33.1-19.1c-.9.7-2,1.1-3.3,1.1s-2.3-.5-3.2-1.2Z"/>
                <path class="cls-10" d="M386.1,319c0,.2.1.5.1.8,0,2.2-1.4,4.1-3.3,4.9v38.3c2,.8,3.3,2.7,3.3,4.9s0,.5-.1.8l33.1,19.1c.9-.7,2-1.1,3.3-1.1v-85.7c-1.2,0-2.4-.4-3.3-1.1l-33.1,19.1Z"/>
                <path class="cls-10" d="M377.6,179.6l-33.1,19.1c0,.2.1.5.1.8s0,.5-.1.8l33.1,19.1c.9-.7,2-1.1,3.3-1.1s2.4.4,3.3,1.1l33.1-19.1c0-.2-.1-.5-.1-.8s0-.5.1-.8l-33.1-19.1c-.9.7-2,1.1-3.3,1.1-1.3,0-2.4-.4-3.3-1.1Z"/>
                <path class="cls-10" d="M386.1,30.3c0,.2.1.5.1.8,0,2.2-1.4,4.1-3.3,4.9v38.3c2,.8,3.3,2.7,3.3,4.9s0,.5-.1.8l33.1,19.1c.9-.7,2-1.1,3.3-1.1V12.4c-1.2,0-2.4-.4-3.3-1.1l-33.1,19Z"/>
                <path class="cls-10" d="M386.1,126.6c0,.2.1.5.1.8,0,2.2-1.4,4.1-3.3,4.9v38.3c2,.8,3.3,2.7,3.3,4.9s0,.5-.1.8l33.1,19.1c.9-.7,2-1.1,3.3-1.1v-85.6c-1.2,0-2.4-.4-3.3-1.1l-33.1,19Z"/>
                <path class="cls-10" d="M292.2,31.1c0-.3,0-.5.1-.8l-33.1-19.1c-.9.7-2,1.1-3.3,1.1s-2.4-.4-3.3-1.1l-33.1,19.1c0,.2.1.5.1.8,0,2.2-1.4,4.1-3.3,4.9v38.3c2,.8,3.3,2.7,3.3,4.9s0,.5-.1.8l33.1,19.1c.9-.7,2-1.1,3.3-1.1s2.4.4,3.3,1.1l33.1-19.1c0-.2-.1-.5-.1-.8,0-2.2,1.4-4.1,3.3-4.9v-38.3c-1.9-.7-3.3-2.7-3.3-4.9Z"/>
                <path class="cls-10" d="M377.6,83.4l-33.1,19.1c0,.2.1.5.1.8s0,.5-.1.8l33.1,19.1c.9-.7,2-1.1,3.3-1.1s2.4.4,3.3,1.1l33.1-19.1c0-.2-.1-.5-.1-.8s0-.5.1-.8l-33.1-19.1c-.9.7-2,1.1-3.3,1.1s-2.4-.4-3.3-1.1Z"/>
                <path class="cls-10" d="M342.4,299.9c-.9.7-2,1.1-3.3,1.1s-2.4-.4-3.3-1.1l-33,19.1c0,.2.1.5.1.8,0,2.2-1.4,4.1-3.3,4.9v38.3c2,.8,3.3,2.7,3.3,4.9s0,.5-.1.8l33.1,19.1c.9-.7,2-1.1,3.3-1.1s2.4.4,3.3,1.1l33.1-19.1c0-.2-.1-.5-.1-.8,0-2.2,1.4-4.1,3.3-4.9v-38.3c-2-.8-3.3-2.7-3.3-4.9s0-.5.1-.8l-33.2-19.1Z"/>
                <path class="cls-10" d="M377.6,372.1l-33.1,19.1v.8h72.7v-.8l-33.1-19.1c-.9.7-2,1.1-3.3,1.1s-2.3-.4-3.2-1.1Z"/>
                <path class="cls-10" d="M335.9,203.7l-33.1,19.1c0,.2.1.5.1.8,0,2.2-1.4,4.1-3.3,4.9v38.3c2,.8,3.3,2.7,3.3,4.9s0,.5-.1.8l33.1,19.1c.9-.7,2-1.1,3.3-1.1s2.4.4,3.3,1.1l33.1-19.1c0-.2-.1-.5-.1-.8,0-2.2,1.4-4.1,3.3-4.9v-38.3c-2-.8-3.3-2.7-3.3-4.9s0-.5.1-.8l-33.1-19.1c-.9.7-2,1.1-3.3,1.1-1.3,0-2.4-.4-3.3-1.1Z"/>
                <path class="cls-10" d="M335.9,107.4l-33.1,19.1c0,.2.1.5.1.8,0,2.2-1.4,4.1-3.3,4.9v38.3c2,.8,3.3,2.7,3.3,4.9s0,.5-.1.8l33.1,19.1c.9-.7,2-1.1,3.3-1.1s2.4.4,3.3,1.1l33.1-19.1c0-.2-.1-.5-.1-.8,0-2.2,1.4-4.1,3.3-4.9v-38.3c-2-.8-3.3-2.7-3.3-4.9s0-.5.1-.8l-33.1-19.1c-.9.7-2,1.1-3.3,1.1-1.3.1-2.4-.3-3.3-1.1Z"/>
                <path class="cls-10" d="M-41.1,561.1c0-.2,0-.5,0-.8,0-2.2,1.4-4.1,3.3-4.9v-38.3c-2-.8-3.3-2.7-3.3-4.9s0-.5,0-.8l-33.1-19.1c-.9.7-2,1.1-3.3,1.1v85.6c1.2,0,2.4.4,3.3,1.1l33.1-19Z"/>
                <path class="cls-10" d="M-41.1,464.9c0-.2,0-.5,0-.8,0-2.2,1.4-4.1,3.3-4.9v-38.3c-2-.8-3.3-2.7-3.3-4.9s0-.5,0-.8l-33.1-19.1c-.9.7-2,1.1-3.3,1.1v85.6c1.2,0,2.4.4,3.3,1.1l33.1-19Z"/>
                <path class="cls-10" d="M-41.1,657.3c0-.2,0-.5,0-.8,0-2.2,1.4-4.1,3.3-4.9v-38.3c-2-.8-3.3-2.7-3.3-4.9s0-.5,0-.8l-33.1-19.1c-.9.7-2,1.1-3.3,1.1v85.6c1.2,0,2.4.4,3.3,1.1l33.1-19Z"/>
                <path class="cls-10" d="M125.5,656.6c0-2.2,1.4-4.1,3.3-4.9v-38.3c-2-.8-3.3-2.7-3.3-4.9s0-.5,0-.8l-33.1-19.1c-.9.7-2,1.1-3.3,1.1s-2.4-.4-3.3-1.1l-33.1,19.1c0,.2,0,.5,0,.8,0,2.2-1.4,4.1-3.3,4.9v38.3c2,.8,3.3,2.7,3.3,4.9s0,.5,0,.8l33.1,19.1c.9-.7,2-1.1,3.3-1.1s2.4.4,3.3,1.1l33.1-19.1c0-.3,0-.6,0-.8Z"/>
                <path class="cls-10" d="M-32.6,660.7c-.9.7-2,1.1-3.3,1.1s-2.4-.4-3.3-1.1l-33.1,19.1c0,.2,0,.5,0,.8H.5c0-.3,0-.5.1-.8l-33.2-19.1Z"/>
                <path class="cls-10" d="M50.8,660.7c-.9.7-2,1.1-3.3,1.1s-2.4-.4-3.3-1.1l-33.1,19.1c0,.2.1.5.1.8h72.7c0-.3,0-.5,0-.8l-33.2-19.1Z"/>
                <path class="cls-10" d="M50.8,411.8l33.1-19.1c0-.2,0-.5,0-.8H11.1c0,.3,0,.5-.1.8l33.1,19.1c.9-.7,2-1.1,3.3-1.1,1.3,0,2.5.4,3.4,1.1Z"/>
                <path class="cls-10" d="M167.2,584.4c0-.3,0-.5.1-.8l-33.1-19.1c-.9.7-2,1.1-3.3,1.1s-2.4-.4-3.3-1.1l-33.1,19.1c0,.2,0,.5,0,.8s0,.5,0,.8l33.1,19.1c.9-.7,2-1.1,3.3-1.1s2.4.4,3.3,1.1l33.1-19.1c-.1-.3-.1-.5-.1-.8Z"/>
                <path class="cls-10" d="M42.2,656.6c0-2.2,1.4-4.1,3.3-4.9v-38.3c-2-.8-3.3-2.7-3.3-4.9s0-.5,0-.8l-33.2-19.1c-.9.7-2,1.1-3.3,1.1s-2.4-.4-3.3-1.1l-33.1,19.1c0,.2.1.5.1.8,0,2.2-1.4,4.1-3.3,4.9v38.3c2,.8,3.3,2.7,3.3,4.9s0,.5-.1.8l33.1,19.1c.9-.7,2-1.1,3.3-1.1s2.4.4,3.3,1.1l33.1-19.1c0-.3,0-.6,0-.8Z"/>
                <path class="cls-10" d="M83.9,584.4c0-.3,0-.5,0-.8l-33.1-19.1c-.9.7-2,1.1-3.3,1.1s-2.4-.4-3.3-1.1l-33.1,19.1c0,.2.1.5.1.8s0,.5-.1.8l33.1,19.1c.9-.7,2-1.1,3.3-1.1s2.4.4,3.3,1.1l33.1-19.1c0-.3,0-.5,0-.8Z"/>
                <path class="cls-10" d="M50.8,508.1l33.1-19.1c0-.2,0-.5,0-.8s0-.5,0-.8l-33.1-19.1c-.9.7-2,1.1-3.3,1.1s-2.4-.4-3.3-1.1l-33.1,19.1c0,.2.1.5.1.8s0,.5-.1.8l33.1,19.1c.9-.7,2-1.1,3.3-1.1,1.2-.1,2.4.4,3.3,1.1Z"/>
                <path class="cls-10" d="M125.5,560.3c0-2.2,1.4-4.1,3.3-4.9v-38.3c-2-.8-3.3-2.7-3.3-4.9s0-.5,0-.8l-33.1-19.1c-.9.7-2,1.1-3.3,1.1s-2.4-.4-3.3-1.1l-33.1,19.1c0,.2,0,.5,0,.8,0,2.2-1.4,4.1-3.3,4.9v38.3c2,.8,3.3,2.7,3.3,4.9s0,.5,0,.8l33.1,19.1c.9-.7,2-1.1,3.3-1.1s2.4.4,3.3,1.1l33.1-19.1c0-.2,0-.5,0-.8Z"/>
                <path class="cls-10" d="M134.1,411.8l33.1-19.1c0-.2-.1-.5-.1-.8h-72.6c0,.3,0,.5,0,.8l33.1,19.1c.9-.7,2-1.1,3.3-1.1,1.3,0,2.4.4,3.3,1.1Z"/>
                <path class="cls-10" d="M134.1,660.7c-.9.7-2,1.1-3.3,1.1s-2.4-.4-3.3-1.1l-33.1,19.1c0,.2,0,.5,0,.8h72.7c0-.3,0-.5.1-.8l-33.2-19.1Z"/>
                <path class="cls-10" d="M167.2,488.2c0-.3,0-.5.1-.8l-33.1-19.1c-.9.7-2,1.1-3.3,1.1s-2.4-.4-3.3-1.1l-33.1,19.1c0,.2,0,.5,0,.8s0,.5,0,.8l33.1,19.1c.9-.7,2-1.1,3.3-1.1s2.4.4,3.3,1.1l33.1-19.1c-.1-.3-.1-.6-.1-.8Z"/>
                <path class="cls-10" d="M-32.6,411.8L.5,392.7c0-.2,0-.5,0-.8h-72.7c0,.3,0,.5,0,.8l33.1,19.1c.9-.7,2-1.1,3.3-1.1,1.4,0,2.5.4,3.4,1.1Z"/>
                <path class="cls-10" d="M-32.6,508.1L.5,489c0-.2,0-.5,0-.8s0-.5,0-.8l-33.1-19.1c-.9.7-2,1.1-3.3,1.1s-2.4-.4-3.3-1.1l-33.1,19.1c0,.2,0,.5,0,.8s0,.5,0,.8l33.1,19.1c.9-.7,2-1.1,3.3-1.1,1.3-.1,2.4.4,3.3,1.1Z"/>
                <path class="cls-10" d="M-32.6,604.3L.5,585.2c0-.2,0-.5,0-.8s0-.5,0-.8l-33.1-19.1c-.9.7-2,1.1-3.3,1.1s-2.4-.4-3.3-1.1l-33.1,19.1c0,.2,0,.5,0,.8s0,.5,0,.8l33.1,19.1c.9-.7,2-1.1,3.3-1.1,1.3-.1,2.4.4,3.3,1.1Z"/>
                <path class="cls-10" d="M-30.5,464.1c0,.3,0,.5-.1.8l33.2,19.1c.9-.7,2-1.1,3.3-1.1s2.4.4,3.3,1.1l33.1-19.1c0-.2,0-.5,0-.8,0-2.2,1.4-4.1,3.3-4.9v-38.3c-2-.8-3.3-2.7-3.3-4.9s0-.5,0-.8l-33.2-19.1c-.9.7-2,1.1-3.3,1.1s-2.4-.4-3.3-1.1l-33.1,19.1c0,.2.1.5.1.8,0,2.2-1.4,4.1-3.3,4.9v38.3c1.9.8,3.3,2.7,3.3,4.9Z"/>
                <path class="cls-10" d="M92.4,484l33.1-19.1c0-.2,0-.5,0-.8,0-2.2,1.4-4.1,3.3-4.9v-38.3c-2-.8-3.3-2.7-3.3-4.9s0-.5,0-.8l-33.1-19.1c-.9.7-2,1.1-3.3,1.1s-2.4-.4-3.3-1.1l-33.1,19.1c0,.2,0,.5,0,.8,0,2.2-1.4,4.1-3.3,4.9v38.3c2,.8,3.3,2.7,3.3,4.9s0,.5,0,.8l33.2,19.1c.9-.7,2-1.1,3.3-1.1s2.3.4,3.2,1.1Z"/>
                <path class="cls-10" d="M-30.5,560.3c0,.3,0,.5-.1.8l33.1,19.1c.9-.7,2-1.1,3.3-1.1s2.4.4,3.3,1.1l33.1-19.1c0-.2,0-.5,0-.8,0-2.2,1.4-4.1,3.3-4.9v-38.3c-2-.8-3.3-2.7-3.3-4.9s0-.5,0-.8l-33.1-19.1c-.9.7-2,1.1-3.3,1.1s-2.4-.4-3.3-1.1l-33.1,19.1c0,.2.1.5.1.8,0,2.2-1.4,4.1-3.3,4.9v38.3c1.9.8,3.3,2.7,3.3,4.9Z"/>
                <path class="cls-10" d="M342.4,396.1c-.9.7-2,1.1-3.3,1.1s-2.4-.4-3.3-1.1l-33.1,19.1c0,.2.1.5.1.8,0,2.2-1.4,4.1-3.3,4.9v38.3c2,.8,3.3,2.7,3.3,4.9s0,.5-.1.8l33.1,19.1c.9-.7,2-1.1,3.3-1.1s2.4.4,3.3,1.1l33.1-19.1c0-.2-.1-.5-.1-.8,0-2.2,1.4-4.1,3.3-4.9v-38.3c-2-.8-3.3-2.7-3.3-4.9s0-.5.1-.8l-33.1-19.1Z"/>
                <path class="cls-10" d="M386.1,607.7c0,.2.1.5.1.8,0,2.2-1.4,4.1-3.3,4.9v38.3c2,.8,3.3,2.7,3.3,4.9s0,.5-.1.8l33.1,19.1c.9-.7,2-1.1,3.3-1.1v-85.6c-1.2,0-2.4-.4-3.3-1.1l-33.1,19Z"/>
                <path class="cls-10" d="M208.9,416c0-.3,0-.5.1-.8l-33.1-19.1c-.9.7-2,1.1-3.3,1.1h-1c-.8-.3-1.6-.6-2.3-1.1l-33.1,19.1c0,.2.1.5.1.8,0,2.2-1.4,4.1-3.3,4.9v38.3c2,.8,3.3,2.7,3.3,4.9s0,.5-.1.8l33.1,19.1c.7-.5,1.4-.9,2.3-1h0c0-.1,1-.1,1-.1,1.2,0,2.4.4,3.3,1.1l33.1-19.1c0-.2-.1-.5-.1-.8,0-2.2,1.4-4.1,3.3-4.9v-38.3c-2-.7-3.3-2.7-3.3-4.9Z"/>
                <path class="cls-10" d="M208.9,560.3c0-2.2,1.4-4.1,3.3-4.9v-38.3c-2-.8-3.3-2.7-3.3-4.9s0-.5.1-.8l-33.1-19.1c-.9.7-2,1.1-3.3,1.1h-1c-.8-.3-1.6-.6-2.3-1.1l-33.1,19.1c0,.2.1.5.1.8,0,2.2-1.4,4.1-3.3,4.9v38.3c2,.8,3.3,2.7,3.3,4.9s0,.5-.1.8l33.1,19.1c.7-.5,1.4-.9,2.3-1h0c0,0,1,0,1,0,1.2,0,2.4.4,3.3,1.1l33.1-19.1c-.1-.2-.1-.5-.1-.8Z"/>
                <path class="cls-10" d="M292.2,416c0-.3,0-.5.1-.8l-33.1-19.1c-.9.7-2,1.1-3.3,1.1s-2.4-.4-3.3-1.1l-33.1,19.1c0,.2.1.5.1.8,0,2.2-1.4,4.1-3.3,4.9v38.3c2,.8,3.3,2.7,3.3,4.9s0,.5-.1.8l33.1,19.1c.9-.7,2-1.1,3.3-1.1s2.4.4,3.3,1.1l33.1-19.1c0-.2-.1-.5-.1-.8,0-2.2,1.4-4.1,3.3-4.9v-38.3c-1.9-.7-3.3-2.7-3.3-4.9Z"/>
                <path class="cls-10" d="M375.5,656.6c0-2.2,1.4-4.1,3.3-4.9v-38.3c-2-.8-3.3-2.7-3.3-4.9s0-.5.1-.8l-33.1-19.1c-.9.7-2,1.1-3.3,1.1s-2.4-.4-3.3-1.1l-33.1,19.1c0,.2.1.5.1.8,0,2.2-1.4,4.1-3.3,4.9v38.3c2,.8,3.3,2.7,3.3,4.9s0,.5-.1.8l33.1,19.1c.9-.7,2-1.1,3.3-1.1s2.4.4,3.3,1.1l33.1-19.1c-.1-.3-.1-.6-.1-.8Z"/>
                <path class="cls-10" d="M217.4,660.7c-.9.7-2,1.1-3.3,1.1s-2.4-.4-3.3-1.1l-33.1,19.1c0,.2.1.5.1.8h72.7c0-.3,0-.5.1-.8l-33.2-19.1Z"/>
                <path class="cls-10" d="M208.9,656.6c0-2.2,1.4-4.1,3.3-4.9v-38.3c-2-.8-3.3-2.7-3.3-4.9s0-.5.1-.8l-33.1-19.1c-.9.7-2,1.1-3.3,1.1h-1c-.8-.3-1.6-.6-2.3-1.1l-33.1,19.1c0,.2.1.5.1.8,0,2.2-1.4,4.1-3.3,4.9v38.3c2,.8,3.3,2.7,3.3,4.9s0,.5-.1.8l33.1,19.1c.7-.5,1.4-.9,2.3-1h0c0,0,1,0,1,0,1.2,0,2.4.4,3.3,1.1l33.1-19.1c-.1-.3-.1-.6-.1-.8Z"/>
                <path class="cls-10" d="M292.2,656.6c0-2.2,1.4-4.1,3.3-4.9v-38.3c-2-.8-3.3-2.7-3.3-4.9s0-.5.1-.8l-33.1-19.1c-.9.7-2,1.1-3.3,1.1s-2.4-.4-3.3-1.1l-33.1,19.1c0,.2.1.5.1.8,0,2.2-1.4,4.1-3.3,4.9v38.3c2,.8,3.3,2.7,3.3,4.9s0,.5-.1.8l33.1,19.1c.9-.7,2-1.1,3.3-1.1s2.4.4,3.3,1.1l33.1-19.1c-.1-.3-.1-.6-.1-.8Z"/>
                <path class="cls-10" d="M300.8,660.7c-.9.7-2,1.1-3.3,1.1s-2.4-.4-3.3-1.1l-33.1,19.1c0,.2.1.5.1.8h72.7c0-.3,0-.5.1-.8l-33.2-19.1Z"/>
                <path class="cls-10" d="M384.1,660.7c-.9.7-2,1.1-3.3,1.1s-2.4-.4-3.3-1.1l-33.1,19.1c0,.2.1.5.1.8h72.7c0-.3,0-.5.1-.8l-33.2-19.1Z"/>
                <path class="cls-10" d="M333.9,584.4c0-.3,0-.5.1-.8l-33.1-19.1c-.9.7-2,1.1-3.3,1.1s-2.4-.4-3.3-1.1l-33.1,19.1c0,.2.1.5.1.8s0,.5-.1.8l33.1,19.1c.9-.7,2-1.1,3.3-1.1s2.4.4,3.3,1.1l33.1-19.1c-.1-.3-.1-.5-.1-.8Z"/>
                <path class="cls-10" d="M386.1,511.5c0,.2.1.5.1.8,0,2.2-1.4,4.1-3.3,4.9v38.3c2,.8,3.3,2.7,3.3,4.9s0,.5-.1.8l33.1,19.1c.9-.7,2-1.1,3.3-1.1v-85.6c-1.2,0-2.4-.4-3.3-1.1l-33.1,19Z"/>
                <path class="cls-10" d="M386.1,415.2c0,.2.1.5.1.8,0,2.2-1.4,4.1-3.3,4.9v38.3c2,.8,3.3,2.7,3.3,4.9s0,.5-.1.8l33.1,19.1c.9-.7,2-1.1,3.3-1.1v-85.6c-1.2,0-2.4-.4-3.3-1.1l-33.1,19Z"/>
                <path class="cls-10" d="M377.6,564.5l-33.1,19.1c0,.2.1.5.1.8s0,.5-.1.8l33.1,19.1c.9-.7,2-1.1,3.3-1.1s2.4.4,3.3,1.1l33.1-19.1c0-.2-.1-.5-.1-.8s0-.5.1-.8l-33.1-19.1c-.9.7-2,1.1-3.3,1.1-1.3.1-2.4-.4-3.3-1.1Z"/>
                <path class="cls-10" d="M377.6,468.3l-33.1,19.1c0,.2.1.5.1.8s0,.5-.1.8l33.1,19.1c.9-.7,2-1.1,3.3-1.1s2.4.4,3.3,1.1l33.1-19.1c0-.2-.1-.5-.1-.8s0-.5.1-.8l-33.1-19.1c-.9.7-2,1.1-3.3,1.1s-2.4-.4-3.3-1.1Z"/>
                <path class="cls-10" d="M250.5,488.2c0-.3,0-.5.1-.8l-33.1-19.1c-.9.7-2,1.1-3.3,1.1s-2.4-.4-3.3-1.1l-33.1,19.1c0,.2.1.5.1.8s0,.5-.1.8l33.1,19.1c.9-.7,2-1.1,3.3-1.1s2.4.4,3.3,1.1l33.1-19.1c-.1-.3-.1-.6-.1-.8Z"/>
                <path class="cls-10" d="M250.5,584.4c0-.3,0-.5.1-.8l-33.1-19.1c-.9.7-2,1.1-3.3,1.1s-2.4-.4-3.3-1.1l-33.1,19.1c0,.2.1.5.1.8s0,.5-.1.8l33.1,19.1c.9-.7,2-1.1,3.3-1.1s2.4.4,3.3,1.1l33.1-19.1c-.1-.3-.1-.5-.1-.8Z"/>
                <path class="cls-10" d="M294.2,468.3l-33.1,19.1c0,.2.1.5.1.8s0,.5-.1.8l33.1,19.1c.9-.7,2-1.1,3.3-1.1s2.4.4,3.3,1.1l33.1-19.1c0-.2-.1-.5-.1-.8s0-.5.1-.8l-33.1-19.1c-.9.7-2,1.1-3.3,1.1s-2.4-.4-3.3-1.1Z"/>
                <path class="cls-10" d="M335.9,492.3l-33.1,19.1c0,.2.1.5.1.8,0,2.2-1.4,4.1-3.3,4.9v38.3c2,.8,3.3,2.7,3.3,4.9s0,.5-.1.8l33.1,19.1c.9-.7,2-1.1,3.3-1.1s2.4.4,3.3,1.1l33.1-19.1c0-.2-.1-.5-.1-.8,0-2.2,1.4-4.1,3.3-4.9v-38.3c-2-.8-3.3-2.7-3.3-4.9s0-.5.1-.8l-33.1-19.1c-.9.7-2,1.1-3.3,1.1-1.3,0-2.4-.3-3.3-1.1Z"/>
                <path class="cls-10" d="M292.2,560.3c0-2.2,1.4-4.1,3.3-4.9v-38.3c-2-.8-3.3-2.7-3.3-4.9s0-.5.1-.8l-33.1-19.1c-.9.7-2,1.1-3.3,1.1s-2.4-.4-3.3-1.1l-33.1,19.1c0,.2.1.5.1.8,0,2.2-1.4,4.1-3.3,4.9v38.3c2,.8,3.3,2.7,3.3,4.9s0,.5-.1.8l33.1,19.1c.9-.7,2-1.1,3.3-1.1s2.4.4,3.3,1.1l33.1-19.1c-.1-.2-.1-.5-.1-.8Z"/>
                <path class="cls-10" d="M177.8,392c0,.3,0,.5-.1.8l33.1,19.1c.9-.7,2-1.1,3.3-1.1s2.4.4,3.3,1.1l33.1-19.1c0-.2-.1-.5-.1-.8h-72.6Z"/>
                <path class="cls-10" d="M261.1,392c0,.3,0,.5-.1.8l33.1,19.1c.9-.7,2-1.1,3.3-1.1s2.4.4,3.3,1.1l33.1-19.1c0-.2-.1-.5-.1-.8h-72.6Z"/>
                <path class="cls-10" d="M344.5,392c0,.3,0,.5-.1.8l33.1,19.1c.9-.7,2-1.1,3.3-1.1s2.4.4,3.3,1.1l33.1-19.1c0-.2-.1-.5-.1-.8h-72.6Z"/>
              </g>
            </g>
          </g>
          <path class="cls-5" d="M173,33.5l144.2,83.2v166.6l-144.2,83.2L28.8,283.3V116.7L173,33.5M173,0L-.2,100v200l173.2,100,173.2-100V100L173,0Z"/>
          <path class="cls-12" d="M173,0L-.2,100v200l173.2,100,173.2-100V100L173,0Z"/>
          <path class="cls-3" d="M173,15l160.2,92.5v185l-160.2,92.5L12.8,292.5V107.5L173,15M173,0L-.2,100v200l173.2,100,173.2-100V100L173,0Z"/>
          <path class="cls-4" d="M173,12.7l162.2,93.6v187.3l-162.2,93.7L10.8,293.6V106.4L173,12.7M173,0L-.2,100v200l173.2,100,173.2-100V100L173,0Z"/>
          <g class="cls-6">
            <path class="cls-11" d="M63.6,141.7c-4,0-8.1,2.6-8.1,5.2s3.6,6.5,7.3,4.7c6.3-3,7.2-3.3,7.2-5.9s-2.3-4-6.4-4ZM75.4,130.2c-5.4,0-10.1,3.4-10.1,6.6s4.6,7.3,9.8,5.8c4.3-1.2,6.1-3,9.8-5.8,2.5-2-4-6.6-9.5-6.6ZM91.8,136.1c-2.2,0-4.7.2-5,2.2-.2,2.6,2,1.8,5,1.8s6,1.3,6-.5-3.6-3.4-6-3.5ZM260.4,148.8c-5.2-.4-10.6,2.7-11,6.3-.3,3.6,3.9,9.4,8.8,7.4,8.3-3.4,9.5-3.7,9.8-7.4.3-3.6-2.5-5.8-7.6-6.3h0Z"/>
            <path class="cls-11" d="M276.7,134.3c-6.9-.6-13.2,3.5-13.6,8s5,10.6,11.7,9.1c5.6-1.2,8.1-3.4,13.1-7,3.4-2.4-4.4-9.5-11.2-10.1ZM296.7,144.3c-2.8-.3-6-.3-6.5,2.4-.7,3.6,2.2,2.7,6,3,3.8.4,7.4,2.6,7.7,0,.2-2.6-4.2-5-7.2-5.4Z"/>
            <path class="cls-11" d="M202.3,199c-5.1-.5-10.5,2.7-10.8,6.3s3.9,9.3,8.7,7.3c8.3-3.4,9.5-3.8,9.8-7.4s-2.5-5.8-7.7-6.2h0ZM218.6,184.3c-6.9-.6-13.2,3.6-13.6,8-.3,4.5,5,10.7,11.8,9.1,5.6-1.2,8-3.4,13-7,3.5-2.5-4.4-9.6-11.2-10.1ZM238.7,194.2c-2.9-.3-6-.3-6.5,2.4-.7,3.6,2.2,2.8,6,3,3.8.4,7.4,2.6,7.6,0s-4.1-5-7.1-5.4Z"/>
          </g>
          <g class="cls-6">
            <path class="cls-9" d="M170.4,152.1c-5.6,0-8.9-1.2-10.6-4-1.6-2.5-1.6-5.8-1.5-10.1v-12.3h-9.8c-.7,0-1.5,0-2.2-.3-3.9-1.3-4.4-5.4-4.4-9.2v-9.3c.1-2.3,1.1-5,5.9-5s6.1,2.2,6.1,6.8v2.4h4.4v-44.7c0-4.1,5.7-9.4,12-9.4h4.2c6.7,0,12.1,5.4,12.1,12.1v20.1h4v-6.2c0-6.3,3.2-9.7,9-9.7s9.1,3.4,9.1,9.7l-.4,16.1c0,6.3-3.5,8.6-6.4,9.4h-.2c-1,.3-2,.4-3.2.4h-11.9v32.6c.1,3,.2,5.9-2,8-1.8,1.9-5,2.7-10,2.7h-4.2Z"/>
            <path class="cls-9" d="M0,0"/>
          </g>
          <g class="cls-6">
            <path class="cls-2" d="M199.8,103.4c-1.4,0-5.2,1-7.7-1v-11.8h-7v-21.6c0-6-5.2-9.9-8.3-10.2-.4,3.2,0,87.4,0,89s-1.5,1.9-1.8,1.8c-7.4.5-9-.3-13.5-3-1-1.3-.7-23.6-.7-23.6-.9-.2-3-.3-4.4-.3h-4l-7,.2c0,1.4,4.4,1.3,6,1.3h8.3v13.2c0,8.5-.3,13.3,10.7,13.3h4c11.8,0,10.7-4.8,10.7-10.7v-32.7h13.4c1,0,2,0,2.8-.3h.2c3.5-1,5.3-3.7,5.3-8l.3-17.4c0-4.3-4.9-7.6-5.4-6-1.8,5.7,1.4,27.7-1.9,27.9h0Z"/>
          </g>
          <g class="cls-6">
            <path class="cls-8" d="M146.5,102.8h-1.2v18.4h14.2v-1.2h-13v-17.2Z"/>
            <path class="cls-8" d="M150.2,116.4v-13.8h-1.2v15h10.6v-1.2h-9.4ZM196.1,73.8h1.2v22.8h-1.2v-22.8ZM202.4,74.4h1.2v28.4h-1.2v-28.4Z"/>
            <path class="cls-8" d="M185,101.7h18.4v1.2h-18.4v-1.2ZM185,95.4h11.7v1.2h-11.7v-1.2Z"/>
            <path class="cls-8" d="M171.9,56.9h1.5v95.8h-1.5V56.9ZM164.1,56.9h1.5v95.8h-1.5V56.9ZM179.1,56.9h1.5v95.8h-1.5V56.9Z"/>
          </g>
        </g>
      </g>
    </g>
  </g>
</svg>