<?xml version="1.0" encoding="UTF-8"?>
<svg xmlns="http://www.w3.org/2000/svg" xmlns:xlink="http://www.w3.org/1999/xlink" version="1.1" viewBox="0 0 346 400">
  <defs>
    <style>
      .cls-1 {
        fill: none;
      }

      .cls-2 {
        fill: #918e5a;
      }

      .cls-3 {
        fill: #d0e7c2;
        stroke: #d0e7c2;
        stroke-miterlimit: 10;
      }

      .cls-4 {
        fill: #877d52;
      }

      .cls-4, .cls-5, .cls-6, .cls-7 {
        display: none;
      }

      .cls-8 {
        fill: #4d491a;
      }

      .cls-5 {
        fill: #151313;
      }

      .cls-9 {
        fill: #b5b57c;
      }

      .cls-10 {
        fill: #030000;
      }

      .cls-11 {
        fill: #d1b886;
      }

      .cls-12 {
        fill: #87ff65;
      }

      .cls-6 {
        fill: url(#linear-gradient);
      }

      .cls-13 {
        clip-path: url(#clippath);
      }
    </style>
    <clipPath id="clippath">
      <polygon class="cls-1" points="-.2 100 -.2 300 173 400 346.2 300 346.2 100 173 0 -.2 100"/>
    </clipPath>
    <linearGradient id="linear-gradient" x1="173" y1="120" x2="173" y2="-280" gradientTransform="translate(0 280)" gradientUnits="userSpaceOnUse">
      <stop offset="0" stop-color="#ded09e"/>
      <stop offset=".2" stop-color="#d8cb9a"/>
      <stop offset=".5" stop-color="#cfc393"/>
      <stop offset=".7" stop-color="#877d52"/>
    </linearGradient>
  </defs>
  <!-- Generator: Adobe Illustrator 28.7.5, SVG Export Plug-In . SVG Version: 1.2.0 Build 176)  -->
  <g>
    <g id="Layer_1">
      <g id="Hexagons">
        <g id="Desert">
          <g class="cls-7">
            <g class="cls-13">
              <g>
                <path class="cls-10" d="M330.2-635.8c1.6.6,2.9,1.9,3.5,3.5v-46.2h-3.5v42.7Z"/>
                <path class="cls-10" d="M283.9-814.3h34.6c.8-2.2,3-3.8,5.5-3.8s5.9,2.6,5.9,5.9-2.6,5.9-5.9,5.9-4.7-1.6-5.5-3.8h-4.1v32.6c2.2.8,3.8,3,3.8,5.5s-2.6,5.9-5.9,5.9-5.9-2.6-5.9-5.9,1.6-4.7,3.8-5.5v-32.6h-28.4c-1.2,0-2.1-.9-2.1-2.1v-9.3h-29.9c-.8,2.2-3,3.8-5.5,3.8s-5.9-2.6-5.9-5.9,2.6-5.9,5.9-5.9,4.7,1.6,5.5,3.8h29.9v-24.9h-80.2v25.5c2.2.8,3.8,3,3.8,5.5s-2.6,5.9-5.9,5.9-5.9-2.6-5.9-5.9,1.6-4.7,3.8-5.5v-25.5h-66.3v8.1c2.2.8,3.8,3,3.8,5.5s-2.6,5.9-5.9,5.9-5.9-2.6-5.9-5.9,1.6-4.7,3.8-5.5v-8.1h-49.4v15.5c2.2.8,3.8,3,3.8,5.5s-2.6,5.9-5.9,5.9-5.9-2.6-5.9-5.9,1.6-4.7,3.8-5.5v-15.5h-27.5v69.7h32v-16.9c-2.2-.8-3.8-3-3.8-5.5s2.6-5.9,5.9-5.9,5.9,2.6,5.9,5.9-1.6,4.7-3.8,5.5v57c2.2.8,3.8,3,3.8,5.5s-2.6,5.9-5.9,5.9-5.9-2.6-5.9-5.9,1.6-4.7,3.8-5.5v-36h-32v21.9c2.2.8,3.8,3,3.8,5.5s-2.6,5.9-5.9,5.9-5.9-2.6-5.9-5.9,1.6-4.7,3.8-5.5v-56.1H-.5c-.8,2.2-3,3.8-5.5,3.8s-5.9-2.6-5.9-5.9,2.6-5.9,5.9-5.9,4.7,1.6,5.5,3.8h40v-35.5H-12.3v7c0,1.2-.9,2.1-2.1,2.1h-21.4v43.7c2.2.8,3.8,3,3.8,5.5s-2.6,5.9-5.9,5.9-5.9-2.6-5.9-5.9,1.6-4.7,3.8-5.5v-43.7h-26.6c-.8,2.2-3,3.8-5.5,3.8s-5.9-2.6-5.9-5.9,2.6-5.9,5.9-5.9,4.7,1.6,5.5,3.8h26.6v-4.9h-61.8v63.5h22.4c1.2,0,2.1.9,2.1,2.1v32.7c2.2.8,3.8,3,3.8,5.5s-2.6,5.9-5.9,5.9-5.9-2.6-5.9-5.9,1.6-4.7,3.8-5.5v-30.6h-55.8c-.9,2.4-3.2,4.2-5.9,4.2s-6.2-2.8-6.2-6.2,2.8-6.2,6.2-6.2,5,1.7,5.9,4.2h31.3v-63.5h-60.4v10.2h23.8c.8-2.2,3-3.8,5.5-3.8s5.9,2.6,5.9,5.9-2.6,5.9-5.9,5.9-4.7-1.6-5.5-3.8h-23.8v153.6h15.8v-21.2c-2.2-.8-3.8-3-3.8-5.5s2.6-5.9,5.9-5.9,5.9,2.6,5.9,5.9-1.6,4.7-3.8,5.5v21.2h25.3v-32.8c-2.2-.8-3.8-3-3.8-5.5s2.6-5.9,5.9-5.9,5.9,2.6,5.9,5.9-1.6,4.7-3.8,5.5v32.8h5.8c.8-2.2,3-3.8,5.5-3.8s5.9,2.6,5.9,5.9-2.6,5.9-5.9,5.9-4.7-1.6-5.5-3.8h-55.3v46.2c.2.6.3,1.3.3,2s-.1,1.4-.3,2v74.2c2.4,0,4.5,1.6,5.3,3.8h15.9v-58.4c-2.2-.8-3.8-3-3.8-5.5s2.6-5.9,5.9-5.9,5.9,2.6,5.9,5.9-1.6,4.7-3.8,5.5v58.4h27.9c.8-2.2,3-3.8,5.5-3.8s5.9,2.6,5.9,5.9-2.6,5.9-5.9,5.9-4.7-1.6-5.5-3.8h-9.2v40.2c2.2.8,3.8,3,3.8,5.5s-2.6,5.9-5.9,5.9-5.9-2.6-5.9-5.9,1.6-4.7,3.8-5.5v-40.2h-34.5c-.8,2.2-2.9,3.7-5.3,3.8v65.5h.3c.8-2.2,3-3.8,5.5-3.8s5.9,2.6,5.9,5.9-2.6,5.9-5.9,5.9-4.7-1.6-5.5-3.8h-.3v28.7h13.1c.8-2.2,3-3.8,5.5-3.8s5.9,2.6,5.9,5.9-2.6,5.9-5.9,5.9-4.7-1.6-5.5-3.8h-13.1v55.9h23.8c.8-2.2,3-3.8,5.5-3.8s5.9,2.6,5.9,5.9-2.6,5.9-5.9,5.9-4.7-1.6-5.5-3.8h-23.8v153.6h15.8v-21.2c-2.2-.8-3.8-3-3.8-5.5s2.6-5.9,5.9-5.9,5.9,2.6,5.9,5.9-1.6,4.7-3.8,5.5v21.2h25.3v-32.8c-2.2-.8-3.8-3-3.8-5.5s2.6-5.9,5.9-5.9,5.9,2.6,5.9,5.9-1.6,4.7-3.8,5.5v32.8h5.8c.8-2.2,3-3.8,5.5-3.8s5.9,2.6,5.9,5.9-2.6,5.9-5.9,5.9-4.7-1.6-5.5-3.8h-55.3v46.2c.2.6.3,1.3.3,2s-.1,1.4-.3,2v74.2c2.4,0,4.5,1.6,5.3,3.8h15.9v-58.4c-2.2-.8-3.8-3-3.8-5.5s2.6-5.9,5.9-5.9,5.9,2.6,5.9,5.9-1.6,4.7-3.8,5.5v58.4h27.9c.8-2.2,3-3.8,5.5-3.8s5.9,2.6,5.9,5.9-2.6,5.9-5.9,5.9-4.7-1.6-5.5-3.8h-9.2v40.2c2.2.8,3.8,3,3.8,5.5s-2.6,5.9-5.9,5.9-5.9-2.6-5.9-5.9,1.6-4.7,3.8-5.5v-40.2h-34.6c-.8,2.2-2.9,3.7-5.3,3.8V-19.9h.3c.8-2.2,3-3.8,5.5-3.8s5.9,2.6,5.9,5.9-2.6,5.9-5.9,5.9-4.7-1.6-5.5-3.8h-.3V13h13.1c.8-2.2,3-3.8,5.5-3.8s5.9,2.6,5.9,5.9-2.6,5.9-5.9,5.9-4.7-1.6-5.5-3.8h-13.1v55.9h23.8c.8-2.2,3-3.8,5.5-3.8s5.9,2.6,5.9,5.9-2.6,5.9-5.9,5.9-4.7-1.6-5.5-3.8h-23.8v153.6h15.8v-21.2c-2.2-.8-3.8-3-3.8-5.5s2.6-5.9,5.9-5.9,5.9,2.6,5.9,5.9-1.6,4.7-3.8,5.5v21.2h25.3v-32.8c-2.2-.8-3.8-3-3.8-5.5s2.6-5.9,5.9-5.9,5.9,2.6,5.9,5.9-1.6,4.7-3.8,5.5v32.8h5.8c.8-2.2,3-3.8,5.5-3.8s5.9,2.6,5.9,5.9-2.6,5.9-5.9,5.9-4.7-1.6-5.5-3.8h-55.3v46.2c.2.6.3,1.3.3,2s-.1,1.4-.3,2v73.7c2.4.1,4.5,1.6,5.3,3.8h15.9v-58.4c-2.2-.8-3.8-3-3.8-5.5s2.6-5.9,5.9-5.9,5.9,2.6,5.9,5.9-1.6,4.7-3.8,5.5v58.4h27.9c.8-2.2,3-3.8,5.5-3.8s5.9,2.6,5.9,5.9-2.6,5.9-5.9,5.9-4.7-1.6-5.5-3.8h-9.2v40.2c2.2.8,3.8,3,3.8,5.5s-2.6,5.9-5.9,5.9-5.9-2.6-5.9-5.9,1.6-4.7,3.8-5.5v-40.2h-34.6c-.8,2.2-2.9,3.7-5.3,3.8v65.5h.3c.8-2.2,3-3.8,5.5-3.8s5.9,2.6,5.9,5.9-2.6,5.9-5.9,5.9-4.7-1.6-5.5-3.8h-.3v28.7h13.1c.8-2.2,3-3.8,5.5-3.8s5.9,2.6,5.9,5.9-2.6,5.9-5.9,5.9-4.7-1.6-5.5-3.8h-13.1v45.6h60.4v-5.7c-2.2-.8-3.8-3-3.8-5.5s2.6-5.9,5.9-5.9,5.9,2.6,5.9,5.9-1.6,4.7-3.8,5.5v5.7h61.7v-40.1c-2.2-.8-3.8-3-3.8-5.5s2.6-5.9,5.9-5.9,5.9,2.6,5.9,5.9-1.6,4.7-3.8,5.5v40.1h19.3v-19.3c-2.2-.8-3.8-3-3.8-5.5s2.6-5.9,5.9-5.9,5.9,2.6,5.9,5.9-1.6,4.7-3.8,5.5v19.3h51.8v-1.2c-2.2-.8-3.8-3-3.8-5.5s2.6-5.9,5.9-5.9,5.9,2.6,5.9,5.9-1.6,4.7-3.8,5.5v1.2h27.6v-33.8c-2.2-.8-3.8-3-3.8-5.5s2.6-5.9,5.9-5.9,5.9,2.6,5.9,5.9-1.6,4.7-3.8,5.5v9.2h49.5v-5.8c-2.2-.8-3.8-3-3.8-5.5s2.6-5.9,5.9-5.9,5.9,2.6,5.9,5.9-1.6,4.7-3.8,5.5v30.4h66.4v-7h-21.9c-.8,2.2-3,3.8-5.5,3.8s-5.9-2.6-5.9-5.9,2.6-5.9,5.9-5.9,4.7,1.6,5.5,3.8h21.9v-32.6c-2.2-.8-3.8-3-3.8-5.5s2.6-5.9,5.9-5.9,5.9,2.6,5.9,5.9-1.6,4.7-3.8,5.5v43.8h80.2v-25.1c-2.2-.8-3.8-3-3.8-5.5s2.6-5.9,5.9-5.9,5.9,2.6,5.9,5.9-1.6,4.7-3.8,5.5v25.1h49.7v-45.7h-10.9v15.9c2.2.8,3.8,3,3.8,5.5s-2.6,5.9-5.9,5.9-5.9-2.6-5.9-5.9,1.6-4.7,3.8-5.5v-48.7h-34.8c-.8,2.2-3,3.8-5.5,3.8s-5.9-2.6-5.9-5.9,2.6-5.9,5.9-5.9,4.7,1.6,5.5,3.8h34.6v-34.3c-2.2-.8-3.8-3-3.8-5.5s2.6-5.9,5.9-5.9,5.9,2.6,5.9,5.9-1.6,4.7-3.8,5.5v34.3h10.9v-65.5h-.2c-3.3,0-5.9-2.6-5.9-5.9s2.6-5.9,5.9-5.9h.2v-74.2c-.8,2.3-3,3.9-5.6,3.9s-5.9-2.6-5.9-5.9,1.6-4.7,3.8-5.5v-42.7h-37.5c-1.2,0-2.1-.9-2.1-2.1v-23.3c-2.2-.8-3.8-3-3.8-5.5s2.6-5.9,5.9-5.9,5.9,2.6,5.9,5.9-1.6,4.7-3.8,5.5v21.2h43V76.8h-49.7v22h34.6c.8-2.2,3-3.8,5.5-3.8s5.9,2.6,5.9,5.9-2.6,5.9-5.9,5.9-4.7-1.6-5.5-3.8h-4.1v32.6c2.2.8,3.8,3,3.8,5.5s-2.6,5.9-5.9,5.9-5.9-2.6-5.9-5.9,1.6-4.7,3.8-5.5v-32.6h-28.4c-1.2,0-2.1-.9-2.1-2.1v-9.3h-29.9c-.8,2.2-3,3.8-5.5,3.8s-5.9-2.6-5.9-5.9,2.6-5.9,5.9-5.9,4.7,1.6,5.5,3.8h29.9v-50.1c-2.2-.8-3.8-3-3.8-5.5s2.6-5.9,5.9-5.9,5.9,2.6,5.9,5.9-1.6,4.7-3.8,5.5v35.3h49.7V16.8h-10.9v15.9c2.2.8,3.8,3,3.8,5.5s-2.6,5.9-5.9,5.9-5.9-2.6-5.9-5.9,1.6-4.7,3.8-5.5V-16h-34.5c-.8,2.2-3,3.8-5.5,3.8s-5.9-2.6-5.9-5.9,2.6-5.9,5.9-5.9,4.7,1.6,5.5,3.8h34.6v-34.3c-2.2-.8-3.8-3-3.8-5.5s2.6-5.9,5.9-5.9,5.9,2.6,5.9,5.9-1.6,4.7-3.8,5.5V-20.2h10.9v-65.5h-.2c-3.3,0-5.9-2.6-5.9-5.9s2.6-5.9,5.9-5.9h.2v-74.2c-.8,2.3-3,3.9-5.6,3.9s-5.9-2.6-5.9-5.9,1.6-4.7,3.8-5.5v-42.7h-37.5c-1.2,0-2.1-.9-2.1-2.1v-23.3c-2.2-.8-3.8-3-3.8-5.5s2.6-5.9,5.9-5.9,5.9,2.6,5.9,5.9-1.6,4.7-3.8,5.5v21.2h43v-153.6h-49.7v22h34.6c.8-2.2,3-3.8,5.5-3.8s5.9,2.6,5.9,5.9-2.6,5.9-5.9,5.9-4.7-1.6-5.5-3.8h-4.1v32.6c2.2.8,3.8,3,3.8,5.5s-2.6,5.9-5.9,5.9-5.9-2.6-5.9-5.9,1.6-4.7,3.8-5.5v-32.6h-28.4c-1.2,0-2.1-.9-2.1-2.1v-9.3h-29.9c-.8,2.2-3,3.8-5.5,3.8s-5.9-2.6-5.9-5.9,2.6-5.9,5.9-5.9,4.7,1.6,5.5,3.8h29.9v-24.9h0v-25.1c-2.2-.8-3.8-3-3.8-5.5s2.6-5.9,5.9-5.9,5.9,2.6,5.9,5.9-1.6,4.7-3.8,5.5v25.1h0v10.2h49.7v-55.9h-10.9v15.9c2.2.8,3.8,3,3.8,5.5s-2.6,5.9-5.9,5.9-5.9-2.6-5.9-5.9,1.6-4.7,3.8-5.5v-48.7h-34.5c-.8,2.2-3,3.8-5.5,3.8s-5.9-2.6-5.9-5.9,2.6-5.9,5.9-5.9,4.7,1.6,5.5,3.8h34.6v-34.3c-2.2-.8-3.8-3-3.8-5.5s2.6-5.9,5.9-5.9,5.9,2.6,5.9,5.9-1.6,4.7-3.8,5.5v34.3h10.9v-65.5h-.2c-3.3,0-5.9-2.6-5.9-5.9s2.6-5.9,5.9-5.9h.2v-74.2c-.8,2.3-3,3.9-5.6,3.9s-5.9-2.6-5.9-5.9,1.6-4.7,3.8-5.5v-42.7h-37.5c-1.2,0-2.1-.9-2.1-2.1v-23.3c-2.2-.8-3.8-3-3.8-5.5s2.6-5.9,5.9-5.9,5.9,2.6,5.9,5.9-1.6,4.7-3.8,5.5v21.2h43v-153.6h-49.7v21.9ZM116.7-796.4c2.5,0,4.7,1.6,5.5,3.8h34.3v-21.2c-2.2-.8-3.8-3-3.8-5.5s2.6-5.9,5.9-5.9,5.9,2.6,5.9,5.9-1.6,4.7-3.8,5.5v41.3h61.5v-15.9c-2.2-.8-3.8-3-3.8-5.5s2.6-5.9,5.9-5.9,5.9,2.6,5.9,5.9-1.6,4.7-3.8,5.5v15.9h13.9c.8-2.2,3-3.8,5.5-3.8s5.9,2.6,5.9,5.9-2.6,5.9-5.9,5.9-4.7-1.6-5.5-3.8h-47.4v29.9c2.2.8,3.8,3,3.8,5.5s-2.6,5.9-5.9,5.9-5.9-2.6-5.9-5.9,1.6-4.7,3.8-5.5v-29.9h-28v19.2c2.2.8,3.8,3,3.8,5.5s-2.6,5.9-5.9,5.9-5.9-2.6-5.9-5.9,1.6-4.7,3.8-5.5v-39.3h-34.3c-.8,2.2-3,3.8-5.5,3.8s-5.9-2.6-5.9-5.9c0-3.2,2.7-5.9,5.9-5.9ZM175.8-665.7c0,3.3-2.6,5.9-5.9,5.9s-5.9-2.6-5.9-5.9,1.6-4.7,3.8-5.5v-34h-21.2c-.8,2.2-3,3.8-5.5,3.8s-5.9-2.6-5.9-5.9,2.6-5.9,5.9-5.9,4.7,1.6,5.5,3.8h54.7c.8-2.2,3-3.8,5.5-3.8s5.9,2.6,5.9,5.9-2.6,5.9-5.9,5.9-4.7-1.6-5.5-3.8h-29.3v34c2.2.8,3.8,3,3.8,5.5ZM160.7-591c0,3.3-2.6,5.9-5.9,5.9s-5.9-2.6-5.9-5.9,1.6-4.7,3.8-5.5v-4.8h-83.7v74.9c2.2.8,3.8,3,3.8,5.5s-2.6,5.9-5.9,5.9-5.9-2.6-5.9-5.9,1.6-4.7,3.8-5.5v-12.5H22.1v51.9h36.8c.8-2.2,3-3.8,5.5-3.8s5.9,2.6,5.9,5.9-2.6,5.9-5.9,5.9-4.7-1.6-5.5-3.8H22.1v49c2.2.8,3.8,3,3.8,5.5s-2.6,5.9-5.9,5.9-5.9-2.6-5.9-5.9,1.6-4.7,3.8-5.5v-49H6.1c-.8,2.2-3,3.8-5.5,3.8s-5.9-2.6-5.9-5.9,2.6-5.9,5.9-5.9,4.7,1.6,5.5,3.8h11.8v-51.9H-21.1c-.9,2.4-3.2,4.2-5.9,4.2s-6.2-2.8-6.2-6.2,2.8-6.2,6.2-6.2,5,1.7,5.9,4.2h85.9v-58.2H24.5c-.9,2.4-3.2,4.2-5.9,4.2s-6.2-2.8-6.2-6.2,2.8-6.2,6.2-6.2,5,1.7,5.9,4.2h25.6v-15.9c-2.4-.9-4.2-3.2-4.2-5.9s2.8-6.2,6.2-6.2,6.2,2.8,6.2,6.2-1.7,5-4.2,5.9v15.9h56.5v-17.3c-2.2-.9-3.8-3.2-3.8-5.8s2.8-6.2,6.2-6.2,6.2,2.8,6.2,6.2-1.9,5.2-4.5,6v17.1h39.8c1.2,0,2.1.9,2.1,2.1v6.9c2.5.5,4.1,2.6,4.1,5.1ZM172.6-551.4c0,3.3-2.6,5.9-5.9,5.9s-5.9-2.6-5.9-5.9,1.6-4.7,3.8-5.5v-12.2h-56.2v32h17.9c.8-2.2,3-3.8,5.5-3.8s5.9,2.6,5.9,5.9-2.6,5.9-5.9,5.9-4.7-1.6-5.5-3.8h-17.9v70.3h60.9v-17.4h-23.4c-.8,2.2-3,3.8-5.5,3.8s-5.9-2.6-5.9-5.9,2.6-5.9,5.9-5.9,4.7,1.6,5.5,3.8h23.4v-13.9c-2.2-.8-3.8-3-3.8-5.5s2.6-5.9,5.9-5.9,5.9,2.6,5.9,5.9-1.6,4.7-3.8,5.5v13.9h21.9c.8-2.2,3-3.8,5.5-3.8s5.9,2.6,5.9,5.9-2.6,5.9-5.9,5.9-4.7-1.6-5.5-3.8h-21.9v19.5c0,1.2-.9,2.1-2.1,2.1h-65c-1.2,0-2.1-.9-2.1-2.1v-108.6h-6.8c-.8,2.2-3,3.8-5.5,3.8s-5.9-2.6-5.9-5.9,2.6-5.9,5.9-5.9,4.7,1.6,5.5,3.8h85.5c.7-2.5,3-4.3,5.7-4.3s5.9,2.6,5.9,5.9-2.6,5.9-5.9,5.9-4.4-1.4-5.3-3.3h-14.6v12.2c2.2.8,3.8,2.9,3.8,5.5ZM129-424.6v30.5h0v8.1c2.2.8,3.8,3,3.8,5.5s-2.6,5.9-5.9,5.9-5.9-2.6-5.9-5.9,1.6-4.7,3.8-5.5v-8.1h0v-20.5h-49.4v20.5h0v15.5c2.2.8,3.8,3,3.8,5.5s-2.6,5.9-5.9,5.9-5.9-2.6-5.9-5.9,1.6-4.7,3.8-5.5v-15.5h0v-33.8c-2.2-.8-3.8-3-3.8-5.5s2.6-5.9,5.9-5.9,5.9,2.6,5.9,5.9-1.6,4.7-3.8,5.5v9.2h49.5v-5.8c-2.2-.8-3.8-3-3.8-5.5s2.6-5.9,5.9-5.9,5.9,2.6,5.9,5.9-1.6,4.6-3.9,5.4ZM112.9-195.8c0,3.3-2.6,5.9-5.9,5.9s-5.9-2.6-5.9-5.9,1.6-4.7,3.8-5.5v-20.6H39.3c-.8,2.2-3,3.8-5.5,3.8s-5.9-2.6-5.9-5.9,2.6-5.9,5.9-5.9,4.7,1.6,5.5,3.8h22.6v-21.2c-2.3-.8-3.9-3-3.9-5.6s2.6-5.9,5.9-5.9,5.9,2.6,5.9,5.9-1.6,4.6-3.7,5.5v21.3h41c1.2,0,2.1.9,2.1,2.1v22.6c2.1.9,3.7,3,3.7,5.6ZM154.8-148.9c1.2,0,2.1.9,2.1,2.1v6.9c2.2.8,3.8,3,3.8,5.5s-2.6,5.9-5.9,5.9-5.9-2.6-5.9-5.9,1.6-4.7,3.8-5.5v-4.8h-83.7v74.9c2.2.8,3.8,3,3.8,5.5s-2.6,5.9-5.9,5.9-5.9-2.6-5.9-5.9,1.6-4.7,3.8-5.5v-12.5H22.1V-30.4h36.8c.8-2.2,3-3.8,5.5-3.8s5.9,2.6,5.9,5.9-2.6,5.9-5.9,5.9-4.7-1.6-5.5-3.8H22.1V22.8c2.2.8,3.8,3,3.8,5.5s-2.6,5.9-5.9,5.9-5.9-2.6-5.9-5.9,1.6-4.7,3.8-5.5V-26.2H6.1c-.8,2.2-3,3.8-5.5,3.8s-5.9-2.6-5.9-5.9,2.6-5.9,5.9-5.9,4.7,1.6,5.5,3.8h11.8v-51.9H-21.1c-.9,2.4-3.2,4.2-5.9,4.2s-6.2-2.8-6.2-6.2,2.8-6.2,6.2-6.2,5,1.7,5.9,4.2h85.9v-58.2H24.5c-.9,2.4-3.2,4.2-5.9,4.2s-6.2-2.8-6.2-6.2,2.8-6.2,6.2-6.2,5,1.7,5.9,4.2h25.6v-15.9c-2.4-.9-4.2-3.2-4.2-5.9s2.8-6.2,6.2-6.2,6.2,2.8,6.2,6.2-1.7,5-4.2,5.9v15.9h56.5v-17.3c-2.2-.9-3.8-3.2-3.8-5.8s2.8-6.2,6.2-6.2,6.2,2.8,6.2,6.2-1.9,5.2-4.5,6v17.1h40.1v-.4ZM175.8-209.1c0,3.3-2.6,5.9-5.9,5.9s-5.9-2.6-5.9-5.9,1.6-4.7,3.8-5.5v-34h-21.2c-.8,2.2-3,3.8-5.5,3.8s-5.9-2.6-5.9-5.9,2.6-5.9,5.9-5.9,4.7,1.6,5.5,3.8h54.7c.8-2.2,3-3.8,5.5-3.8s5.9,2.6,5.9,5.9-2.6,5.9-5.9,5.9-4.7-1.6-5.5-3.8h-29.3v34c2.2.8,3.8,2.9,3.8,5.5ZM172.6-94.9c0,3.3-2.6,5.9-5.9,5.9s-5.9-2.6-5.9-5.9,1.6-4.7,3.8-5.5v-12.2h-56.2v32h17.9c.8-2.2,3-3.8,5.5-3.8s5.9,2.6,5.9,5.9-2.6,5.9-5.9,5.9-4.7-1.6-5.5-3.8h-17.9V-6.1h60.9v-17.4h-23.4c-.8,2.2-3,3.8-5.5,3.8s-5.9-2.6-5.9-5.9,2.6-5.9,5.9-5.9,4.7,1.6,5.5,3.8h23.4v-13.9c-2.2-.8-3.8-3-3.8-5.5s2.6-5.9,5.9-5.9,5.9,2.6,5.9,5.9-1.6,4.7-3.8,5.5v13.9h21.9c.8-2.2,3-3.8,5.5-3.8s5.9,2.6,5.9,5.9-2.6,5.9-5.9,5.9-4.7-1.6-5.5-3.8h-21.9V-4c0,1.2-.9,2.1-2.1,2.1h-65c-1.2,0-2.1-.9-2.1-2.1v-108.6h-6.8c-.8,2.2-3,3.8-5.5,3.8s-5.9-2.6-5.9-5.9,2.6-5.9,5.9-5.9,4.7,1.6,5.5,3.8h85.5c.7-2.5,3-4.3,5.7-4.3s5.9,2.6,5.9,5.9-2.6,5.9-5.9,5.9-4.4-1.4-5.3-3.3h-14.6v12.2c2.2.8,3.8,3,3.8,5.5ZM129,32v38.6c2.2.8,3.8,3,3.8,5.5s-2.6,5.9-5.9,5.9-5.9-2.6-5.9-5.9,1.6-4.7,3.8-5.5v-28.6h-49.4v36c2.2.8,3.8,3,3.8,5.5s-2.6,5.9-5.9,5.9-5.9-2.6-5.9-5.9,1.6-4.7,3.8-5.5V28.6c-2.2-.8-3.8-3-3.8-5.5s2.6-5.9,5.9-5.9,5.9,2.6,5.9,5.9-1.6,4.7-3.8,5.5v9.2h49.5v-5.8c-2.2-.8-3.8-3-3.8-5.5s2.6-5.9,5.9-5.9,5.9,2.6,5.9,5.9-1.6,4.7-3.9,5.5ZM112.9,260.7c0,3.3-2.6,5.9-5.9,5.9s-5.9-2.6-5.9-5.9,1.6-4.7,3.8-5.5v-20.6H39.3c-.8,2.2-3,3.8-5.5,3.8s-5.9-2.6-5.9-5.9,2.6-5.9,5.9-5.9,4.7,1.6,5.5,3.8h22.6v-21.2c-2.3-.8-3.9-3-3.9-5.6s2.6-5.9,5.9-5.9,5.9,2.6,5.9,5.9-1.6,4.6-3.7,5.5v21.3h41c1.2,0,2.1.9,2.1,2.1v22.6c2.1.9,3.7,3.1,3.7,5.6ZM-25.5,318.3c0,3.3-2.6,5.9-5.9,5.9s-5.9-2.6-5.9-5.9,1.6-4.7,3.8-5.5v-48.2H13.1c.8-2.2,3-3.8,5.5-3.8s5.9,2.6,5.9,5.9-2.6,5.9-5.9,5.9-4.7-1.6-5.5-3.8H-29.4v44c2.3.8,3.9,2.9,3.9,5.5ZM-.5,102.1c-.8,2.2-3,3.8-5.5,3.8s-5.9-2.6-5.9-5.9,2.6-5.9,5.9-5.9,4.7,1.6,5.5,3.8h40v-36.6c-2.2-.8-3.8-3-3.8-5.5s2.6-5.9,5.9-5.9,5.9,2.6,5.9,5.9-1.6,4.7-3.8,5.5v70.9h32v-16.9c-2.2-.8-3.8-3-3.8-5.5s2.6-5.9,5.9-5.9,5.9,2.6,5.9,5.9-1.6,4.7-3.8,5.5v57c2.2.8,3.8,3,3.8,5.5s-2.6,5.9-5.9,5.9-5.9-2.6-5.9-5.9,1.6-4.7,3.8-5.5v-36h-32v21.9c2.2.8,3.8,3,3.8,5.5s-2.6,5.9-5.9,5.9-5.9-2.6-5.9-5.9,1.6-4.7,3.8-5.5v-56.1H-.5ZM-32,120.8c0,3.3-2.6,5.9-5.9,5.9s-5.9-2.6-5.9-5.9,1.6-4.7,3.8-5.5v-43.7h-26.6c-.8,2.2-3,3.8-5.5,3.8s-5.9-2.6-5.9-5.9,2.6-5.9,5.9-5.9,4.7,1.6,5.5,3.8h26.6V22.4c-2.2-.8-3.8-3-3.8-5.5s2.6-5.9,5.9-5.9,5.9,2.6,5.9,5.9-1.6,4.7-3.8,5.5v45h19.3v-24.2c-2.2-.8-3.8-3-3.8-5.5s2.6-5.9,5.9-5.9,5.9,2.6,5.9,5.9-1.6,4.7-3.8,5.5v26.3c0,1.2-.9,2.1-2.1,2.1h-21.4v43.7c2.2.8,3.8,3,3.8,5.5ZM-42.9-40.3c.8-2.2,3-3.8,5.5-3.8s5.9,2.6,5.9,5.9-2.6,5.9-5.9,5.9-4.7-1.6-5.5-3.8h-24.6V14.8c0,1.2-.9,2.1-2.1,2.1h-18.6c-.8,2.2-3,3.8-5.5,3.8s-5.9-2.6-5.9-5.9,2.6-5.9,5.9-5.9,4.7,1.6,5.5,3.8h16.5v-112c0-1.2.9-2.1,2.1-2.1h19.6c.9-2.4,3.2-4.2,5.9-4.2s6.2,2.8,6.2,6.2-2.8,6.2-6.2,6.2-5-1.7-5.9-4.2h-17.5v56.9h24.6v.2ZM-32-335.8c0,3.3-2.6,5.9-5.9,5.9s-5.9-2.6-5.9-5.9,1.6-4.7,3.8-5.5v-43.7h-26.6c-.8,2.2-3,3.8-5.5,3.8s-5.9-2.6-5.9-5.9,2.6-5.9,5.9-5.9,4.7,1.6,5.5,3.8h26.6v-4.9h0v-40.1c-2.2-.8-3.8-3-3.8-5.5s2.6-5.9,5.9-5.9,5.9,2.6,5.9,5.9-1.6,4.7-3.8,5.5v40.1h0v4.9h19.3v-4.9h0v-19.3c-2.2-.8-3.8-3-3.8-5.5s2.6-5.9,5.9-5.9,5.9,2.6,5.9,5.9-1.6,4.7-3.8,5.5v19.3h0v7c0,1.2-.9,2.1-2.1,2.1h-21.4v43.7c2.2.9,3.8,3,3.8,5.5ZM-42.9-496.9c.8-2.2,3-3.8,5.5-3.8s5.9,2.6,5.9,5.9-2.6,5.9-5.9,5.9-4.7-1.6-5.5-3.8h-24.6v50.9c0,1.2-.9,2.1-2.1,2.1h-18.6c-.8,2.2-3,3.8-5.5,3.8s-5.9-2.6-5.9-5.9,2.6-5.9,5.9-5.9,4.7,1.6,5.5,3.8h16.5v-111.9c0-1.2.9-2.1,2.1-2.1h19.6c.9-2.4,3.2-4.2,5.9-4.2s6.2,2.8,6.2,6.2-2.8,6.2-6.2,6.2-5-1.7-5.9-4.2h-17.5v56.9h24.6ZM-6-362.5c2.5,0,4.7,1.6,5.5,3.8h40v-35.5h0v-1.2c-2.2-.8-3.8-3-3.8-5.5s2.6-5.9,5.9-5.9,5.9,2.6,5.9,5.9-1.6,4.7-3.8,5.5v1.2h0v69.7h32v-16.9c-2.2-.8-3.8-3-3.8-5.5s2.6-5.9,5.9-5.9,5.9,2.6,5.9,5.9-1.6,4.7-3.8,5.5v57c2.2.8,3.8,3,3.8,5.5s-2.6,5.9-5.9,5.9-5.9-2.6-5.9-5.9,1.6-4.7,3.8-5.5v-36h-32v21.9c2.2.8,3.8,3,3.8,5.5s-2.6,5.9-5.9,5.9-5.9-2.6-5.9-5.9,1.6-4.7,3.8-5.5v-56.1H-.5c-.8,2.2-3,3.8-5.5,3.8s-5.9-2.6-5.9-5.9c-.1-3.1,2.6-5.8,5.9-5.8ZM18.7-195.8c3.3,0,5.9,2.6,5.9,5.9s-2.6,5.9-5.9,5.9-4.7-1.6-5.5-3.8H-29.3v44c2.2.8,3.8,3,3.8,5.5s-2.6,5.9-5.9,5.9-5.9-2.6-5.9-5.9,1.6-4.7,3.8-5.5v-48.2H13.1c.9-2.2,3-3.8,5.6-3.8ZM33.7-686.5c2.5,0,4.7,1.6,5.5,3.8h22.6v-21.2c-2.3-.8-3.9-3-3.9-5.6s2.6-5.9,5.9-5.9,5.9,2.6,5.9,5.9-1.6,4.6-3.7,5.5v21.3h41c1.2,0,2.1.9,2.1,2.1v22.6c2.2.8,3.8,3,3.8,5.5s-2.6,5.9-5.9,5.9-5.9-2.6-5.9-5.9,1.6-4.7,3.8-5.5v-20.6H39.3c-.8,2.2-3,3.8-5.5,3.8s-5.9-2.6-5.9-5.9c-.1-3.1,2.6-5.8,5.8-5.8ZM18.7-652.4c3.3,0,5.9,2.6,5.9,5.9s-2.6,5.9-5.9,5.9-4.7-1.6-5.5-3.8H-29.3v44c2.2.8,3.8,3,3.8,5.5s-2.6,5.9-5.9,5.9-5.9-2.6-5.9-5.9,1.6-4.7,3.8-5.5v-48.2H13.1c.9-2.2,3-3.8,5.6-3.8ZM-105.5-632.5c-3.3,0-5.9-2.6-5.9-5.9s2.6-5.9,5.9-5.9,4.7,1.6,5.5,3.8h32.3v-59.7h-10.7c-.8,2.2-3,3.8-5.5,3.8s-5.9-2.6-5.9-5.9,2.6-5.9,5.9-5.9,4.7,1.6,5.5,3.8h40.2v-36.9c-2.2-.8-3.8-3-3.8-5.5s2.6-5.9,5.9-5.9,5.9,2.6,5.9,5.9-1.6,4.7-3.8,5.5v18.1H1c.8-2.2,3-3.8,5.5-3.8s5.9,2.6,5.9,5.9-2.6,5.9-5.9,5.9-4.7-1.6-5.5-3.8h-35v27.9c2.2.8,3.8,3,3.8,5.5s-2.6,5.9-5.9,5.9-5.9-2.6-5.9-5.9,1.6-4.7,3.8-5.5v-9.2h-25.3v90.1c2.2.8,3.8,3,3.8,5.5s-2.6,5.9-5.9,5.9-5.9-2.6-5.9-5.9,1.6-4.7,3.8-5.5v-26.2h-32.3c-.8,2.3-3,3.9-5.5,3.9ZM-137.2-326.4c-.9,2.4-3.2,4.2-5.9,4.2s-6.2-2.8-6.2-6.2,2.8-6.2,6.2-6.2,5,1.7,5.9,4.2h31.3v-63.5h0v-5.7c-2.2-.8-3.8-3-3.8-5.5s2.6-5.9,5.9-5.9,5.9,2.6,5.9,5.9-1.6,4.7-3.8,5.5v5.7h0v63.5h22.4c1.2,0,2.1.9,2.1,2.1v32.7c2.2.8,3.8,3,3.8,5.5s-2.6,5.9-5.9,5.9-5.9-2.6-5.9-5.9,1.6-4.7,3.8-5.5v-30.6h-55.8v-.2ZM-105.5-176c-3.3,0-5.9-2.6-5.9-5.9s2.6-5.9,5.9-5.9,4.7,1.6,5.5,3.8h32.3v-59.7h-10.7c-.8,2.2-3,3.8-5.5,3.8s-5.9-2.6-5.9-5.9,2.6-5.9,5.9-5.9,4.7,1.6,5.5,3.8h40.2v-36.9c-2.2-.8-3.8-3-3.8-5.5s2.6-5.9,5.9-5.9,5.9,2.6,5.9,5.9-1.6,4.7-3.8,5.5v18.1H1c.8-2.2,3-3.8,5.5-3.8s5.9,2.6,5.9,5.9-2.6,5.9-5.9,5.9-4.7-1.6-5.5-3.8h-35v27.9c2.2.8,3.8,3,3.8,5.5s-2.6,5.9-5.9,5.9-5.9-2.6-5.9-5.9,1.6-4.7,3.8-5.5v-9.2h-25.3v90.1c2.2.8,3.8,3,3.8,5.5s-2.6,5.9-5.9,5.9-5.9-2.6-5.9-5.9,1.6-4.7,3.8-5.5v-26.2h-32.3c-.8,2.3-3,3.9-5.5,3.9ZM-137.2,130.2c-.9,2.4-3.2,4.2-5.9,4.2s-6.2-2.8-6.2-6.2,2.8-6.2,6.2-6.2,5,1.7,5.9,4.2h31.3V56.8c-2.2-.8-3.8-3-3.8-5.5s2.6-5.9,5.9-5.9,5.9,2.6,5.9,5.9-1.6,4.7-3.8,5.5v69.2h22.4c1.2,0,2.1.9,2.1,2.1v32.7c2.2.8,3.8,3,3.8,5.5s-2.6,5.9-5.9,5.9-5.9-2.6-5.9-5.9,1.6-4.7,3.8-5.5v-30.6h-55.8ZM-105.5,280.6c-3.3,0-5.9-2.6-5.9-5.9s2.6-5.9,5.9-5.9,4.7,1.6,5.5,3.8h32.3v-59.7h-10.7c-.8,2.2-3,3.8-5.5,3.8s-5.9-2.6-5.9-5.9,2.6-5.9,5.9-5.9,4.7,1.6,5.5,3.8h40.2v-36.9c-2.2-.8-3.8-3-3.8-5.5s2.6-5.9,5.9-5.9,5.9,2.6,5.9,5.9-1.6,4.7-3.8,5.5v18.2H1c.8-2.2,3-3.8,5.5-3.8s5.9,2.6,5.9,5.9-2.6,5.9-5.9,5.9-4.7-1.6-5.5-3.8h-35v27.9c2.2.8,3.8,3,3.8,5.5s-2.6,5.9-5.9,5.9-5.9-2.6-5.9-5.9,1.6-4.7,3.8-5.5v-9.2h-25.3v90.1c2.2.8,3.8,3,3.8,5.5s-2.6,5.9-5.9,5.9-5.9-2.6-5.9-5.9,1.6-4.7,3.8-5.5v-26.2h-32.3c-.8,2.2-3,3.8-5.5,3.8ZM-37.3,424.2c-2.5,0-4.7-1.6-5.5-3.8h-24.6v50.9c0,1.2-.9,2.1-2.1,2.1h-18.6c-.8,2.2-3,3.8-5.5,3.8s-5.9-2.6-5.9-5.9,2.6-5.9,5.9-5.9,4.7,1.6,5.5,3.8h16.5v-111.9c0-1.2.9-2.1,2.1-2.1h19.6c.9-2.4,3.2-4.2,5.9-4.2s6.2,2.8,6.2,6.2-2.8,6.2-6.2,6.2-5-1.7-5.9-4.2h-17.5v56.9h24.6c.8-2.2,3-3.8,5.5-3.8s5.9,2.6,5.9,5.9c0,3.4-2.7,6-5.9,6ZM69,311.9v74.9c2.2.8,3.8,3,3.8,5.5s-2.6,5.9-5.9,5.9-5.9-2.6-5.9-5.9,1.6-4.7,3.8-5.5v-12.5H22.1v51.9h36.8c.8-2.2,3-3.8,5.5-3.8s5.9,2.6,5.9,5.9-2.6,5.9-5.9,5.9-4.7-1.6-5.5-3.8H22.1v49c2.2.8,3.8,3,3.8,5.5s-2.6,5.9-5.9,5.9-5.9-2.6-5.9-5.9,1.6-4.7,3.8-5.5v-49H6.1c-.8,2.2-3,3.8-5.5,3.8s-5.9-2.6-5.9-5.9,2.6-5.9,5.9-5.9,4.7,1.6,5.5,3.8h11.8v-51.9H-21.1c-.9,2.4-3.2,4.2-5.9,4.2s-6.2-2.8-6.2-6.2,2.8-6.2,6.2-6.2,5,1.7,5.9,4.2h85.9v-58.2H24.5c-.9,2.4-3.2,4.2-5.9,4.2s-6.2-2.8-6.2-6.2,2.8-6.2,6.2-6.2,5,1.7,5.9,4.2h25.6v-15.9c-2.4-.9-4.2-3.2-4.2-5.9s2.8-6.2,6.2-6.2,6.2,2.8,6.2,6.2-1.7,5-4.2,5.9v15.9h56.5v-17.3c-2.2-.9-3.8-3.2-3.8-5.8s2.8-6.2,6.2-6.2,6.2,2.8,6.2,6.2-1.9,5.2-4.5,6v17.1h39.8c1.2,0,2.1.9,2.1,2.1v6.9c2.2.8,3.8,3,3.8,5.5s-2.6,5.9-5.9,5.9-5.9-2.6-5.9-5.9,1.6-4.7,3.8-5.5v-4.8h-83.4v-.4ZM175.8,247.4c0,3.3-2.6,5.9-5.9,5.9s-5.9-2.6-5.9-5.9,1.6-4.7,3.8-5.5v-34h-21.2c-.8,2.2-3,3.8-5.5,3.8s-5.9-2.6-5.9-5.9,2.6-5.9,5.9-5.9,4.7,1.6,5.5,3.8h54.7c.8-2.2,3-3.8,5.5-3.8s5.9,2.6,5.9,5.9-2.6,5.9-5.9,5.9-4.7-1.6-5.5-3.8h-29.3v34c2.2.9,3.8,3,3.8,5.5ZM200.9,436.9c-2.5,0-4.7-1.6-5.5-3.8h-21.9v19.5c0,1.2-.9,2.1-2.1,2.1h-65c-1.2,0-2.1-.9-2.1-2.1v-108.6h-6.8c-.8,2.2-3,3.8-5.5,3.8s-5.9-2.6-5.9-5.9,2.6-5.9,5.9-5.9,4.7,1.6,5.5,3.8h85.5c.7-2.5,3-4.3,5.7-4.3s5.9,2.6,5.9,5.9-2.6,5.9-5.9,5.9-4.4-1.4-5.3-3.3h-14.6v12.2c2.2.8,3.8,3,3.8,5.5s-2.6,5.9-5.9,5.9-5.9-2.6-5.9-5.9,1.6-4.7,3.8-5.5v-12.2h-56.2v32h17.9c.8-2.2,3-3.8,5.5-3.8s5.9,2.6,5.9,5.9-2.6,5.9-5.9,5.9-4.7-1.6-5.5-3.8h-17.9v70.3h60.9v-17.4h-23.4c-.8,2.2-3,3.8-5.5,3.8s-5.9-2.6-5.9-5.9,2.6-5.9,5.9-5.9,4.7,1.6,5.5,3.8h23.4v-13.9c-2.2-.8-3.8-3-3.8-5.5s2.6-5.9,5.9-5.9,5.9,2.6,5.9,5.9-1.6,4.7-3.8,5.5v13.9h21.9c.8-2.2,3-3.8,5.5-3.8s5.9,2.6,5.9,5.9c0,3.3-2.7,5.9-5.9,5.9ZM317.5,325c3.3,0,5.9,2.6,5.9,5.9s-2.6,5.9-5.9,5.9-4.7-1.6-5.5-3.8h-19v24.2c2.2.8,3.8,3,3.8,5.5s-2.6,5.9-5.9,5.9-5.9-2.6-5.9-5.9,1.6-4.7,3.8-5.5v-24.2h-19c-.8,2.2-3,3.8-5.5,3.8s-5.9-2.6-5.9-5.9,2.6-5.9,5.9-5.9,4.7,1.6,5.5,3.8h19v-26.6c-2.2-.8-3.8-3-3.8-5.5s2.6-5.9,5.9-5.9,5.9,2.6,5.9,5.9-1.6,4.7-3.8,5.5v26.6h19c.8-2.3,3-3.8,5.5-3.8ZM285.7,266.7c.8-2.2,3-3.8,5.5-3.8s5.9,2.6,5.9,5.9-2.6,5.9-5.9,5.9-4.7-1.6-5.5-3.8h-55.7v25.3h12.8c.8-2.2,3-3.8,5.5-3.8s5.9,2.6,5.9,5.9-2.6,5.9-5.9,5.9-4.7-1.6-5.5-3.8h-33.3v66.9h40.7c.8-2.2,3-3.8,5.5-3.8s5.9,2.6,5.9,5.9-2.6,5.9-5.9,5.9-4.7-1.6-5.5-3.8h-9.6v28.7h31c.8-2.2,3-3.8,5.5-3.8s5.9,2.6,5.9,5.9-2.6,5.9-5.9,5.9-4.7-1.6-5.5-3.8h-31v70.8c2.2.8,3.8,3,3.8,5.5s-2.6,5.9-5.9,5.9-5.9-2.6-5.9-5.9,1.6-4.7,3.8-5.5v-103.8h-26.9v7.8c2.2.8,3.8,3,3.8,5.5s-2.6,5.9-5.9,5.9-5.9-2.6-5.9-5.9,1.6-4.7,3.8-5.5v-78.9h-26.7c-1.2,0-2.1-.9-2.1-2.1v-22.7h-24.6c-.8,2.2-3,3.8-5.5,3.8s-5.9-2.6-5.9-5.9,2.6-5.9,5.9-5.9,4.7,1.6,5.5,3.8h35.6c.8-2.2,3-3.8,5.5-3.8s5.9,2.6,5.9,5.9-2.6,5.9-5.9,5.9-4.7-1.6-5.5-3.8h-6.8v20.6h45.1v-44c-2.2-.8-3.8-3-3.8-5.5s2.6-5.9,5.9-5.9,5.9,2.6,5.9,5.9-1.6,4.7-3.8,5.5v14.5h55.7ZM315.2,172.4c.8-2.2,3-3.8,5.5-3.8s5.9,2.6,5.9,5.9-2.6,5.9-5.9,5.9-4.7-1.6-5.5-3.8h-58.9v20.2c2.3.9,3.9,3.1,3.8,5.7-.1,3.3-2.9,5.8-6.1,5.7-3.3-.1-5.8-2.9-5.7-6.1.1-2.4,1.7-4.5,3.8-5.3v-20.2h-6.7c-.8,2.2-3,3.8-5.5,3.8s-5.9-2.6-5.9-5.9,2.6-5.9,5.9-5.9,4.7,1.6,5.5,3.8h69.8ZM240.3,140.7c.8-2.2,3-3.8,5.5-3.8s5.9,2.6,5.9,5.9-2.6,5.9-5.9,5.9-4.7-1.6-5.5-3.8h-47.4v29.9c2.2.8,3.8,3,3.8,5.5s-2.6,5.9-5.9,5.9-5.9-2.6-5.9-5.9,1.6-4.7,3.8-5.5v-29.9h-28v19.2c2.2.8,3.8,3,3.8,5.5s-2.6,5.9-5.9,5.9-5.9-2.6-5.9-5.9,1.6-4.7,3.8-5.5v-39.3h-34.3c-.8,2.2-3,3.8-5.5,3.8s-5.9-2.6-5.9-5.9,2.6-5.9,5.9-5.9,4.7,1.6,5.5,3.8h34.3v-21.2c-2.2-.8-3.8-3-3.8-5.5s2.6-5.9,5.9-5.9,5.9,2.6,5.9,5.9-1.6,4.7-3.8,5.5v41.3h61.5v-15.9c-2.2-.8-3.8-3-3.8-5.5s2.6-5.9,5.9-5.9,5.9,2.6,5.9,5.9-1.6,4.7-3.8,5.5v15.9h13.9ZM203.4,93.5c0,3.3-2.6,5.9-5.9,5.9s-5.9-2.6-5.9-5.9,1.6-4.7,3.8-5.5v-32.6h-21.9c-.8,2.2-3,3.8-5.5,3.8s-5.9-2.6-5.9-5.9,2.6-5.9,5.9-5.9,4.7,1.6,5.5,3.8h21.9V18.6c-2.2-.8-3.8-3-3.8-5.5s2.6-5.9,5.9-5.9,5.9,2.6,5.9,5.9-1.6,4.7-3.8,5.5v69.4c2.2.9,3.8,3,3.8,5.5ZM317.5-131.6c3.3,0,5.9,2.6,5.9,5.9s-2.6,5.9-5.9,5.9-4.7-1.6-5.5-3.8h-19v24.2c2.2.8,3.8,3,3.8,5.5s-2.6,5.9-5.9,5.9-5.9-2.6-5.9-5.9,1.6-4.7,3.8-5.5v-24.2h-19c-.8,2.2-3,3.8-5.5,3.8s-5.9-2.6-5.9-5.9,2.6-5.9,5.9-5.9,4.7,1.6,5.5,3.8h19v-26.6c-2.2-.8-3.8-3-3.8-5.5s2.6-5.9,5.9-5.9,5.9,2.6,5.9,5.9-1.6,4.7-3.8,5.5v26.6h19c.8-2.2,3-3.8,5.5-3.8ZM285.7-189.9c.8-2.2,3-3.8,5.5-3.8s5.9,2.6,5.9,5.9-2.6,5.9-5.9,5.9-4.7-1.6-5.5-3.8h-55.7v25.3h12.8c.8-2.2,3-3.8,5.5-3.8s5.9,2.6,5.9,5.9-2.6,5.9-5.9,5.9-4.7-1.6-5.5-3.8h-33.3v66.9h40.7c.8-2.2,3-3.8,5.5-3.8s5.9,2.6,5.9,5.9-2.6,5.9-5.9,5.9-4.7-1.6-5.5-3.8h-9.6v28.7h31c.8-2.2,3-3.8,5.5-3.8s5.9,2.6,5.9,5.9-2.6,5.9-5.9,5.9-4.7-1.6-5.5-3.8h-31V18.6c2.2.8,3.8,3,3.8,5.5s-2.6,5.9-5.9,5.9-5.9-2.6-5.9-5.9,1.6-4.7,3.8-5.5v-103.7h-26.9v7.8c2.2.8,3.8,3,3.8,5.5s-2.6,5.9-5.9,5.9-5.9-2.6-5.9-5.9,1.6-4.7,3.8-5.5v-78.9h-26.7c-1.2,0-2.1-.9-2.1-2.1v-22.7h-24.6c-.8,2.2-3,3.8-5.5,3.8s-5.9-2.6-5.9-5.9,2.6-5.9,5.9-5.9,4.7,1.6,5.5,3.8h35.6c.8-2.2,3-3.8,5.5-3.8s5.9,2.6,5.9,5.9-2.6,5.9-5.9,5.9-4.7-1.6-5.5-3.8h-6.8v20.6h45.1v-44c-2.2-.8-3.8-3-3.8-5.5s2.6-5.9,5.9-5.9,5.9,2.6,5.9,5.9-1.6,4.7-3.8,5.5v14.5h55.7ZM315.2-284.2c.8-2.2,3-3.8,5.5-3.8s5.9,2.6,5.9,5.9-2.6,5.9-5.9,5.9-4.7-1.6-5.5-3.8h-58.9v20.2c2.3.9,3.9,3.1,3.8,5.7-.1,3.3-2.9,5.8-6.1,5.7-3.3-.1-5.8-2.9-5.7-6.1.1-2.4,1.7-4.5,3.8-5.3v-20.2h-6.7c-.8,2.2-3,3.8-5.5,3.8s-5.9-2.6-5.9-5.9,2.6-5.9,5.9-5.9,4.7,1.6,5.5,3.8h69.8ZM240.3-315.8c.8-2.2,3-3.8,5.5-3.8s5.9,2.6,5.9,5.9-2.6,5.9-5.9,5.9-4.7-1.6-5.5-3.8h-47.4v29.9c2.2.8,3.8,3,3.8,5.5s-2.6,5.9-5.9,5.9-5.9-2.6-5.9-5.9,1.6-4.7,3.8-5.5v-29.9h-28v19.2c2.2.8,3.8,3,3.8,5.5s-2.6,5.9-5.9,5.9-5.9-2.6-5.9-5.9,1.6-4.7,3.8-5.5v-39.3h-34.3c-.8,2.2-3,3.8-5.5,3.8s-5.9-2.6-5.9-5.9,2.6-5.9,5.9-5.9,4.7,1.6,5.5,3.8h34.3v-21.2c-2.2-.8-3.8-3-3.8-5.5s2.6-5.9,5.9-5.9,5.9,2.6,5.9,5.9-1.6,4.7-3.8,5.5v41.3h61.5v-15.9c-2.2-.8-3.8-3-3.8-5.5s2.6-5.9,5.9-5.9,5.9,2.6,5.9,5.9-1.6,4.7-3.8,5.5v15.9h13.9ZM203.4-363c0,3.3-2.6,5.9-5.9,5.9s-5.9-2.6-5.9-5.9,1.6-4.7,3.8-5.5v-25.5h0v-7.1h-21.9c-.8,2.2-3,3.8-5.5,3.8s-5.9-2.6-5.9-5.9,2.6-5.9,5.9-5.9,4.7,1.6,5.5,3.8h21.9v-32.7c-2.2-.8-3.8-3-3.8-5.5s2.6-5.9,5.9-5.9,5.9,2.6,5.9,5.9-1.6,4.7-3.8,5.5v43.9h0v25.5c2.2.9,3.8,3,3.8,5.6ZM317.5-588.2c3.3,0,5.9,2.6,5.9,5.9s-2.6,5.9-5.9,5.9-4.7-1.6-5.5-3.8h-19v24.2c2.2.8,3.8,3,3.8,5.5s-2.6,5.9-5.9,5.9-5.9-2.6-5.9-5.9,1.6-4.7,3.8-5.5v-24.2h-19c-.8,2.2-3,3.8-5.5,3.8s-5.9-2.6-5.9-5.9,2.6-5.9,5.9-5.9,4.7,1.6,5.5,3.8h19v-26.6c-2.2-.8-3.8-3-3.8-5.5s2.6-5.9,5.9-5.9,5.9,2.6,5.9,5.9-1.6,4.7-3.8,5.5v26.6h19c.8-2.2,3-3.8,5.5-3.8ZM285.7-646.4c.8-2.2,3-3.8,5.5-3.8s5.9,2.6,5.9,5.9-2.6,5.9-5.9,5.9-4.7-1.6-5.5-3.8h-55.7v25.3h12.8c.8-2.2,3-3.8,5.5-3.8s5.9,2.6,5.9,5.9-2.6,5.9-5.9,5.9-4.7-1.6-5.5-3.8h-33.3v66.9h40.7c.8-2.2,3-3.8,5.5-3.8s5.9,2.6,5.9,5.9-2.6,5.9-5.9,5.9-4.7-1.6-5.5-3.8h-9.6v28.7h31c.8-2.2,3-3.8,5.5-3.8s5.9,2.6,5.9,5.9-2.6,5.9-5.9,5.9-4.7-1.6-5.5-3.8h-31v70.8c2.2.8,3.8,3,3.8,5.5s-2.6,5.9-5.9,5.9-5.9-2.6-5.9-5.9,1.6-4.7,3.8-5.5v-103.7h-26.9v7.8c2.2.8,3.8,3,3.8,5.5s-2.6,5.9-5.9,5.9-5.9-2.6-5.9-5.9,1.6-4.7,3.8-5.5v-78.9h-26.7c-1.2,0-2.1-.9-2.1-2.1v-22.7h-24.6c-.8,2.2-3,3.8-5.5,3.8s-5.9-2.6-5.9-5.9,2.6-5.9,5.9-5.9,4.7,1.6,5.5,3.8h35.6c.8-2.2,3-3.8,5.5-3.8s5.9,2.6,5.9,5.9-2.6,5.9-5.9,5.9-4.7-1.6-5.5-3.8h-6.8v20.6h45.1v-44c-2.2-.8-3.8-3-3.8-5.5s2.6-5.9,5.9-5.9,5.9,2.6,5.9,5.9-1.6,4.7-3.8,5.5v14.5h55.7ZM320.7-732.8c-2.5,0-4.7-1.6-5.5-3.8h-58.9v20.2c2.3.9,3.9,3.1,3.8,5.7-.1,3.3-2.9,5.8-6.1,5.7-3.3,0-5.8-2.9-5.7-6.1.1-2.4,1.7-4.5,3.8-5.3v-20.2h-6.7c-.8,2.2-3,3.8-5.5,3.8s-5.9-2.6-5.9-5.9,2.6-5.9,5.9-5.9,4.7,1.6,5.5,3.8h69.8c.8-2.2,3-3.8,5.5-3.8s5.9,2.6,5.9,5.9c.1,3.3-2.6,5.9-5.9,5.9Z"/>
                <rect class="cls-10" x="-35.8" y="-850.7" width="19.3" height="4.9"/>
                <rect class="cls-10" x="283.9" y="-850.7" width="49.7" height="10.2"/>
                <rect class="cls-10" x="322.8" y="-472.6" width="10.9" height="28.7"/>
                <path class="cls-12" d="M-137-832.5c3.3,0,5.9-2.6,5.9-5.9s-2.6-5.9-5.9-5.9-4.7,1.6-5.5,3.8h-23.8v4.2h23.8c.8,2.2,3,3.8,5.5,3.8Z"/>
                <path class="cls-12" d="M-100-636.4h32.3v26.2c-2.2.8-3.8,3-3.8,5.5s2.6,5.9,5.9,5.9,5.9-2.6,5.9-5.9-1.6-4.7-3.8-5.5v-90.1h25.3v9.2c-2.2.8-3.8,3-3.8,5.5s2.6,5.9,5.9,5.9,5.9-2.6,5.9-5.9-1.6-4.7-3.8-5.5v-27.9H1c.8,2.2,3,3.8,5.5,3.8s5.9-2.6,5.9-5.9-2.6-5.9-5.9-5.9-4.7,1.6-5.5,3.8h-35v-18.1c2.2-.8,3.8-3,3.8-5.5s-2.6-5.9-5.9-5.9-5.9,2.6-5.9,5.9,1.6,4.7,3.8,5.5v36.9h-40.2c-.8-2.2-3-3.8-5.5-3.8s-5.9,2.6-5.9,5.9,2.6,5.9,5.9,5.9,4.7-1.6,5.5-3.8h10.7v59.7h-32.3c-.8-2.2-3-3.8-5.5-3.8s-5.9,2.6-5.9,5.9,2.6,5.9,5.9,5.9c2.5,0,4.7-1.6,5.5-3.9Z"/>
                <path class="cls-12" d="M-137.2-787.1c-.9-2.4-3.2-4.2-5.9-4.2s-6.2,2.8-6.2,6.2,2.8,6.2,6.2,6.2,5-1.7,5.9-4.2h55.8v30.6c-2.2.8-3.8,3-3.8,5.5s2.6,5.9,5.9,5.9,5.9-2.6,5.9-5.9-1.6-4.7-3.8-5.5v-32.5c0-1.2-.9-2.1-2.1-2.1h-22.4v-63.5h-4.2v63.5h-31.3Z"/>
                <path class="cls-12" d="M-33.5-648.6v48.2c-2.2.8-3.8,3-3.8,5.5s2.6,5.9,5.9,5.9,5.9-2.6,5.9-5.9-1.6-4.7-3.8-5.5v-44H13.2c.8,2.2,3,3.8,5.5,3.8s5.9-2.6,5.9-5.9-2.6-5.9-5.9-5.9-4.7,1.6-5.5,3.8h-46.7Z"/>
                <path class="cls-12" d="M283.9-850.7h-4.2v24.9h-29.9c-.8-2.2-3-3.8-5.5-3.8s-5.9,2.6-5.9,5.9,2.6,5.9,5.9,5.9,4.7-1.6,5.5-3.8h29.9v9.3c0,1.2.9,2.1,2.1,2.1h28.4v32.6c-2.2.8-3.8,3-3.8,5.5s2.6,5.9,5.9,5.9,5.9-2.6,5.9-5.9-1.6-4.7-3.8-5.5v-32.6h4.1c.8,2.2,3,3.8,5.5,3.8s5.9-2.6,5.9-5.9-2.6-5.9-5.9-5.9-4.7,1.6-5.5,3.8h-34.6v-22h49.7v-4.2h-49.7v-10.1Z"/>
                <path class="cls-12" d="M-66.6-845.7c-.8-2.2-3-3.8-5.5-3.8s-5.9,2.6-5.9,5.9,2.6,5.9,5.9,5.9,4.7-1.6,5.5-3.8h26.6v43.7c-2.2.8-3.8,3-3.8,5.5s2.6,5.9,5.9,5.9,5.9-2.6,5.9-5.9-1.6-4.7-3.8-5.5v-43.7H-14.4c1.2,0,2.1-.9,2.1-2.1v-7h-4.2v4.9h-19.3v-4.9h-4.2v4.9h-26.6Z"/>
                <path class="cls-12" d="M67.4-829.7c0,3.3,2.6,5.9,5.9,5.9s5.9-2.6,5.9-5.9-1.6-4.7-3.8-5.5v-15.5h-4.2v15.5c-2.2.9-3.8,3-3.8,5.5Z"/>
                <path class="cls-12" d="M121-837c0,3.3,2.6,5.9,5.9,5.9s5.9-2.6,5.9-5.9-1.6-4.7-3.8-5.5v-8.1h-4.2v8.1c-2.2.8-3.8,2.9-3.8,5.5Z"/>
                <path class="cls-12" d="M191.6-819.6c0,3.3,2.6,5.9,5.9,5.9s5.9-2.6,5.9-5.9-1.6-4.7-3.8-5.5v-25.5h-4.2v25.5c-2.2.8-3.8,3-3.8,5.5Z"/>
                <path class="cls-12" d="M320.7-744.6c-2.5,0-4.7,1.6-5.5,3.8h-69.8c-.8-2.2-3-3.8-5.5-3.8s-5.9,2.6-5.9,5.9,2.6,5.9,5.9,5.9,4.7-1.6,5.5-3.8h6.7v20.2c-2.2.8-3.7,2.9-3.8,5.3-.1,3.3,2.4,6,5.7,6.1,3.3,0,6-2.4,6.1-5.7.1-2.6-1.5-4.9-3.8-5.7v-20.2h58.9c.8,2.2,3,3.8,5.5,3.8s5.9-2.6,5.9-5.9c.1-3.2-2.6-5.9-5.9-5.9Z"/>
                <path class="cls-12" d="M116.7-784.5c2.5,0,4.7-1.6,5.5-3.8h34.3v39.3c-2.2.8-3.8,3-3.8,5.5s2.6,5.9,5.9,5.9,5.9-2.6,5.9-5.9-1.6-4.7-3.8-5.5v-19.2h28v29.9c-2.2.8-3.8,3-3.8,5.5s2.6,5.9,5.9,5.9,5.9-2.6,5.9-5.9-1.6-4.7-3.8-5.5v-29.9h47.4c.8,2.2,3,3.8,5.5,3.8s5.9-2.6,5.9-5.9-2.6-5.9-5.9-5.9-4.7,1.6-5.5,3.8h-13.9v-15.9c2.2-.8,3.8-3,3.8-5.5s-2.6-5.9-5.9-5.9-5.9,2.6-5.9,5.9,1.6,4.7,3.8,5.5v15.9h-61.5v-41.3c2.2-.8,3.8-3,3.8-5.5s-2.6-5.9-5.9-5.9-5.9,2.6-5.9,5.9,1.6,4.7,3.8,5.5v21.2h-34.3c-.8-2.2-3-3.8-5.5-3.8s-5.9,2.6-5.9,5.9c0,3.2,2.7,5.9,5.9,5.9Z"/>
                <path class="cls-12" d="M-.5-815.2c-.8-2.2-3-3.8-5.5-3.8s-5.9,2.6-5.9,5.9,2.6,5.9,5.9,5.9,4.7-1.6,5.5-3.8h40v56.1c-2.2.8-3.8,3-3.8,5.5s2.6,5.9,5.9,5.9,5.9-2.6,5.9-5.9-1.6-4.7-3.8-5.5v-21.9h32v36c-2.2.8-3.8,3-3.8,5.5s2.6,5.9,5.9,5.9,5.9-2.6,5.9-5.9-1.6-4.7-3.8-5.5v-57c2.2-.8,3.8-3,3.8-5.5s-2.6-5.9-5.9-5.9-5.9,2.6-5.9,5.9,1.6,4.7,3.8,5.5v16.9h-32v-69.7h-4.2v35.5H-.5Z"/>
                <path class="cls-12" d="M-111-678.5c.8,2.2,3,3.8,5.5,3.8s5.9-2.6,5.9-5.9-2.6-5.9-5.9-5.9-4.7,1.6-5.5,3.8h-5.8v-32.8c2.2-.8,3.8-3,3.8-5.5s-2.6-5.9-5.9-5.9-5.9,2.6-5.9,5.9,1.6,4.7,3.8,5.5v32.8h-25.3v-21.2c2.2-.8,3.8-3,3.8-5.5s-2.6-5.9-5.9-5.9-5.9,2.6-5.9,5.9,1.6,4.7,3.8,5.5v21.2h-15.8v4.2h55.3Z"/>
                <path class="cls-12" d="M-166.3-632.3v4c.2-.6.3-1.3.3-2s-.1-1.3-.3-2Z"/>
                <path class="cls-12" d="M-147.7-435.9c3.3,0,5.9-2.6,5.9-5.9s-2.6-5.9-5.9-5.9-4.7,1.6-5.5,3.8h-13.1v4.2h13.1c.8,2.2,2.9,3.8,5.5,3.8Z"/>
                <path class="cls-12" d="M-160.5-468.8c3.3,0,5.9-2.6,5.9-5.9s-2.6-5.9-5.9-5.9-4.7,1.6-5.5,3.8h-.3v4.1h.3c.9,2.3,3,3.9,5.5,3.9Z"/>
                <path class="cls-12" d="M-161-546.1h34.6v40.2c-2.2.8-3.8,3-3.8,5.5s2.6,5.9,5.9,5.9,5.9-2.6,5.9-5.9-1.6-4.7-3.8-5.5v-40.2h9.2c.8,2.2,3,3.8,5.5,3.8s5.9-2.6,5.9-5.9-2.6-5.9-5.9-5.9-4.7,1.6-5.5,3.8h-28v-58.4c2.2-.8,3.8-3,3.8-5.5s-2.6-5.9-5.9-5.9-5.9,2.6-5.9,5.9,1.6,4.7,3.8,5.5v58.4h-15.8c-.8-2.2-2.9-3.7-5.3-3.8v11.8c2.4,0,4.5-1.7,5.3-3.8Z"/>
                <path class="cls-12" d="M183.4-569.1c1,2,3,3.3,5.3,3.3,3.3,0,5.9-2.6,5.9-5.9s-2.6-5.9-5.9-5.9-5,1.8-5.7,4.3h-85.6c-.8-2.2-3-3.8-5.5-3.8s-5.9,2.6-5.9,5.9,2.6,5.9,5.9,5.9,4.7-1.6,5.5-3.8h6.8v108.6c0,1.2.9,2.1,2.1,2.1h65c1.2,0,2.1-.9,2.1-2.1v-19.5h21.9c.8,2.2,3,3.8,5.5,3.8s5.9-2.6,5.9-5.9-2.6-5.9-5.9-5.9-4.7,1.6-5.5,3.8h-21.9v-13.9c2.2-.8,3.8-3,3.8-5.5s-2.6-5.9-5.9-5.9-5.9,2.6-5.9,5.9,1.6,4.7,3.8,5.5v13.9h-23.4c-.8-2.2-3-3.8-5.5-3.8s-5.9,2.6-5.9,5.9,2.6,5.9,5.9,5.9,4.7-1.6,5.5-3.8h23.4v17.4h-60.9v-70.3h17.9c.8,2.2,3,3.8,5.5,3.8s5.9-2.6,5.9-5.9-2.6-5.9-5.9-5.9-4.7,1.6-5.5,3.8h-17.9v-32h56.2v12.2c-2.2.8-3.8,3-3.8,5.5s2.6,5.9,5.9,5.9,5.9-2.6,5.9-5.9-1.6-4.7-3.8-5.5v-12.2h14.7Z"/>
                <path class="cls-12" d="M230-661c2.2-.8,3.8-3,3.8-5.5s-2.6-5.9-5.9-5.9-5.9,2.6-5.9,5.9,1.6,4.7,3.8,5.5v44h-45.1v-20.6h6.8c.8,2.2,3,3.8,5.5,3.8s5.9-2.6,5.9-5.9-2.6-5.9-5.9-5.9-4.7,1.6-5.5,3.8h-35.6c-.8-2.2-3-3.8-5.5-3.8s-5.9,2.6-5.9,5.9,2.6,5.9,5.9,5.9,4.7-1.6,5.5-3.8h24.6v22.7c0,1.2.9,2.1,2.1,2.1h26.7v78.9c-2.2.8-3.8,3-3.8,5.5s2.6,5.9,5.9,5.9,5.9-2.6,5.9-5.9-1.6-4.7-3.8-5.5v-7.8h26.9v103.7c-2.2.8-3.8,3-3.8,5.5s2.6,5.9,5.9,5.9,5.9-2.6,5.9-5.9-1.6-4.7-3.8-5.5v-70.8h31c.8,2.2,3,3.8,5.5,3.8s5.9-2.6,5.9-5.9-2.6-5.9-5.9-5.9-4.7,1.6-5.5,3.8h-31v-28.7h9.6c.8,2.2,3,3.8,5.5,3.8s5.9-2.6,5.9-5.9-2.6-5.9-5.9-5.9-4.7,1.6-5.5,3.8h-40.7v-66.9h33.3c.8,2.2,3,3.8,5.5,3.8s5.9-2.6,5.9-5.9-2.6-5.9-5.9-5.9-4.7,1.6-5.5,3.8h-12.8v-25.3h55.8c.8,2.2,3,3.8,5.5,3.8s5.9-2.6,5.9-5.9-2.6-5.9-5.9-5.9-4.7,1.6-5.5,3.8h-55.8v-14.5Z"/>
                <path class="cls-12" d="M154.8-605.5h-39.8v-17.1c2.6-.8,4.5-3.2,4.5-6s-2.8-6.2-6.2-6.2-6.2,2.8-6.2,6.2,1.6,4.8,3.8,5.8v17.3h-56.6v-15.9c2.4-.9,4.2-3.2,4.2-5.9s-2.8-6.2-6.2-6.2-6.2,2.8-6.2,6.2,1.7,5,4.2,5.9v15.9h-25.8c-.9-2.4-3.2-4.2-5.9-4.2s-6.2,2.8-6.2,6.2,2.8,6.2,6.2,6.2,5-1.7,5.9-4.2h40.3v58.2H-21.1c-.9-2.4-3.2-4.2-5.9-4.2s-6.2,2.8-6.2,6.2,2.8,6.2,6.2,6.2,5-1.7,5.9-4.2H17.9v51.9H6.1c-.8-2.2-3-3.8-5.5-3.8s-5.9,2.6-5.9,5.9,2.6,5.9,5.9,5.9,4.7-1.6,5.5-3.8h11.8v49c-2.2.8-3.8,3-3.8,5.5s2.6,5.9,5.9,5.9,5.9-2.6,5.9-5.9-1.6-4.7-3.8-5.5v-49h36.8c.8,2.2,3,3.8,5.5,3.8s5.9-2.6,5.9-5.9-2.6-5.9-5.9-5.9-4.7,1.6-5.5,3.8H22.1v-51.9h42.8v12.5c-2.2.8-3.8,3-3.8,5.5s2.6,5.9,5.9,5.9,5.9-2.6,5.9-5.9-1.6-4.7-3.8-5.5v-74.9h83.7v4.8c-2.2.8-3.8,3-3.8,5.5s2.6,5.9,5.9,5.9,5.9-2.6,5.9-5.9-1.6-4.7-3.8-5.5v-6.9c0-.7-1.1-1.7-2.2-1.7Z"/>
                <path class="cls-12" d="M322.8-511.1c2.2-.8,3.8-3,3.8-5.5s-2.6-5.9-5.9-5.9-5.9,2.6-5.9,5.9,1.6,4.7,3.8,5.5v34.3h-34.6c-.8-2.2-3-3.8-5.5-3.8s-5.9,2.6-5.9,5.9,2.6,5.9,5.9,5.9,4.7-1.6,5.5-3.8h34.6v48.7c-2.2.8-3.8,3-3.8,5.5s2.6,5.9,5.9,5.9,5.9-2.6,5.9-5.9-1.6-4.7-3.8-5.5v-15.9h10.9v-4.2h-10.9v-28.7h10.9v-4.1h-10.9v-34.3h0Z"/>
                <path class="cls-12" d="M290.6-682.7v-21.2c2.2-.8,3.8-3,3.8-5.5s-2.6-5.9-5.9-5.9-5.9,2.6-5.9,5.9,1.6,4.7,3.8,5.5v23.3c0,1.2.9,2.1,2.1,2.1h37.5v42.7c-2.2.8-3.8,3-3.8,5.5s2.6,5.9,5.9,5.9,4.7-1.6,5.6-3.9v-4c-.6-1.6-1.9-2.9-3.5-3.5v-42.7h3.5v-4.2h-43.1Z"/>
                <path class="cls-12" d="M-49.9-553.8c.9,2.4,3.2,4.2,5.9,4.2s6.2-2.8,6.2-6.2-2.8-6.2-6.2-6.2-5,1.7-5.9,4.2h-19.6c-1.2,0-2.1.9-2.1,2.1v111.9h-16.5c-.8-2.2-3-3.8-5.5-3.8s-5.9,2.6-5.9,5.9,2.6,5.9,5.9,5.9,4.7-1.6,5.5-3.8h18.6c1.2,0,2.1-.9,2.1-2.1v-50.9h24.6c.8,2.2,3,3.8,5.5,3.8s5.9-2.6,5.9-5.9-2.6-5.9-5.9-5.9-4.7,1.6-5.5,3.8h-24.6v-56.9h17.5Z"/>
                <path class="cls-12" d="M33.7-674.7c2.5,0,4.7-1.6,5.5-3.8h65.7v20.6c-2.2.8-3.8,3-3.8,5.5s2.6,5.9,5.9,5.9,5.9-2.6,5.9-5.9-1.6-4.7-3.8-5.5v-22.6c0-1.2-.9-2.1-2.1-2.1h-41v-21.3c2.2-.9,3.7-3,3.7-5.5s-2.6-5.9-5.9-5.9-5.9,2.6-5.9,5.9,1.6,4.7,3.9,5.6v21.2h-22.5c-.8-2.2-3-3.8-5.5-3.8s-5.9,2.6-5.9,5.9c-.1,3.2,2.6,5.8,5.8,5.8Z"/>
                <path class="cls-12" d="M201.3-705.2c.8,2.2,3,3.8,5.5,3.8s5.9-2.6,5.9-5.9-2.6-5.9-5.9-5.9-4.7,1.6-5.5,3.8h-54.7c-.8-2.2-3-3.8-5.5-3.8s-5.9,2.6-5.9,5.9,2.6,5.9,5.9,5.9,4.7-1.6,5.5-3.8h21.2v34c-2.2.8-3.8,3-3.8,5.5s2.6,5.9,5.9,5.9,5.9-2.6,5.9-5.9-1.6-4.7-3.8-5.5v-34h29.3Z"/>
                <path class="cls-12" d="M126.9-436c-3.3,0-5.9,2.6-5.9,5.9s1.6,4.7,3.8,5.5v5.8h-49.4v-9.2c2.2-.8,3.8-3,3.8-5.5s-2.6-5.9-5.9-5.9-5.9,2.6-5.9,5.9,1.6,4.7,3.8,5.5v33.8h0v15.5c-2.2.8-3.8,3-3.8,5.5s2.6,5.9,5.9,5.9,5.9-2.6,5.9-5.9-1.6-4.7-3.8-5.5v-15.5h0v-20.5h49.5v20.5h0v8.1c-2.2.8-3.8,3-3.8,5.5s2.6,5.9,5.9,5.9,5.9-2.6,5.9-5.9-1.6-4.7-3.8-5.5v-8.1h0v-30.5c2.2-.8,3.8-3,3.8-5.5s-2.7-5.8-6-5.8Z"/>
                <path class="cls-12" d="M327.6-548.2c0,3.3,2.6,5.9,5.9,5.9h.2v-11.8h-.2c-3.3,0-5.9,2.6-5.9,5.9Z"/>
                <path class="cls-12" d="M293-584.4v-26.6c2.2-.8,3.8-3,3.8-5.5s-2.6-5.9-5.9-5.9-5.9,2.6-5.9,5.9,1.6,4.7,3.8,5.5v26.6h-19c-.8-2.2-3-3.8-5.5-3.8s-5.9,2.6-5.9,5.9,2.6,5.9,5.9,5.9,4.7-1.6,5.5-3.8h19v24.2c-2.2.8-3.8,3-3.8,5.5s2.6,5.9,5.9,5.9,5.9-2.6,5.9-5.9-1.6-4.7-3.8-5.5v-24.2h19c.8,2.2,3,3.8,5.5,3.8s5.9-2.6,5.9-5.9-2.6-5.9-5.9-5.9-4.7,1.6-5.5,3.8h-19Z"/>
                <rect class="cls-10" x="322.8" y="-16" width="10.9" height="28.7"/>
                <path class="cls-10" d="M330.2-179.2c1.6.6,2.9,1.9,3.5,3.5v-46.2h-3.5v42.7Z"/>
                <path class="cls-12" d="M-137-375.9c3.3,0,5.9-2.6,5.9-5.9s-2.6-5.9-5.9-5.9-4.7,1.6-5.5,3.8h-23.8v4.2h23.8c.8,2.2,3,3.8,5.5,3.8Z"/>
                <path class="cls-12" d="M-100-179.8h32.3v26.2c-2.2.8-3.8,3-3.8,5.5s2.6,5.9,5.9,5.9,5.9-2.6,5.9-5.9-1.6-4.7-3.8-5.5v-90.1h25.3v9.2c-2.2.8-3.8,3-3.8,5.5s2.6,5.9,5.9,5.9,5.9-2.6,5.9-5.9-1.6-4.7-3.8-5.5v-27.9H1c.8,2.2,3,3.8,5.5,3.8s5.9-2.6,5.9-5.9-2.6-5.9-5.9-5.9-4.7,1.6-5.5,3.8h-35v-18.1c2.2-.8,3.8-3,3.8-5.5s-2.6-5.9-5.9-5.9-5.9,2.6-5.9,5.9,1.6,4.7,3.8,5.5v36.9h-40.2c-.8-2.2-3-3.8-5.5-3.8s-5.9,2.6-5.9,5.9,2.6,5.9,5.9,5.9,4.7-1.6,5.5-3.8h10.7v59.7h-32.3c-.8-2.2-3-3.8-5.5-3.8s-5.9,2.6-5.9,5.9,2.6,5.9,5.9,5.9c2.5,0,4.7-1.7,5.5-3.9Z"/>
                <path class="cls-12" d="M-81.4-295.8c-2.2.8-3.8,3-3.8,5.5s2.6,5.9,5.9,5.9,5.9-2.6,5.9-5.9-1.6-4.7-3.8-5.5v-32.7c0-1.2-.9-2.1-2.1-2.1h-22.4v-63.5h0v-5.7c2.2-.8,3.8-3,3.8-5.5s-2.6-5.9-5.9-5.9-5.9,2.6-5.9,5.9,1.6,4.7,3.8,5.5v5.7h0v63.5h-31.3c-.9-2.4-3.2-4.2-5.9-4.2s-6.2,2.8-6.2,6.2,2.8,6.2,6.2,6.2,5-1.7,5.9-4.2h55.8s0,30.8,0,30.8Z"/>
                <path class="cls-12" d="M-33.5-192v48.2c-2.2.8-3.8,3-3.8,5.5s2.6,5.9,5.9,5.9,5.9-2.6,5.9-5.9-1.6-4.7-3.8-5.5v-44H13.2c.8,2.2,3,3.8,5.5,3.8s5.9-2.6,5.9-5.9-2.6-5.9-5.9-5.9-4.7,1.6-5.5,3.8h-46.7Z"/>
                <path class="cls-12" d="M199.6-394.1v-43.9c2.2-.8,3.8-3,3.8-5.5s-2.6-5.9-5.9-5.9-5.9,2.6-5.9,5.9,1.6,4.7,3.8,5.5v32.6h-21.9c-.8-2.2-3-3.8-5.5-3.8s-5.9,2.6-5.9,5.9,2.6,5.9,5.9,5.9,4.7-1.6,5.5-3.8h21.9v7.1h0v25.5c-2.2.8-3.8,3-3.8,5.5s2.6,5.9,5.9,5.9,5.9-2.6,5.9-5.9-1.6-4.7-3.8-5.5v-25.5h0Z"/>
                <path class="cls-12" d="M283.9-394.1h0v-25.1c2.2-.8,3.8-3,3.8-5.5s-2.6-5.9-5.9-5.9-5.9,2.6-5.9,5.9,1.6,4.7,3.8,5.5v25.1h0v24.9h-29.9c-.8-2.2-3-3.8-5.5-3.8s-5.9,2.6-5.9,5.9,2.6,5.9,5.9,5.9,4.7-1.6,5.5-3.8h29.9v9.3c0,1.2.9,2.1,2.1,2.1h28.4v32.6c-2.2.8-3.8,3-3.8,5.5s2.6,5.9,5.9,5.9,5.9-2.6,5.9-5.9-1.6-4.7-3.8-5.5v-32.6h4.1c.8,2.2,3,3.8,5.5,3.8s5.9-2.6,5.9-5.9-2.6-5.9-5.9-5.9-4.7,1.6-5.5,3.8h-34.6v-22h49.7v-4.2h-49.7v-10.1Z"/>
                <path class="cls-12" d="M226.4-331.7c2.2-.8,3.8-3,3.8-5.5s-2.6-5.9-5.9-5.9-5.9,2.6-5.9,5.9,1.6,4.7,3.8,5.5v15.9h-61.5v-41.3c2.2-.8,3.8-3,3.8-5.5s-2.6-5.9-5.9-5.9-5.9,2.6-5.9,5.9,1.6,4.7,3.8,5.5v21.2h-34.3c-.8-2.2-3-3.8-5.5-3.8s-5.9,2.6-5.9,5.9,2.6,5.9,5.9,5.9,4.7-1.6,5.5-3.8h34.3v39.3c-2.2.8-3.8,3-3.8,5.5s2.6,5.9,5.9,5.9,5.9-2.6,5.9-5.9-1.6-4.7-3.8-5.5v-19.2h28v29.9c-2.2.8-3.8,3-3.8,5.5s2.6,5.9,5.9,5.9,5.9-2.6,5.9-5.9-1.6-4.7-3.8-5.5v-29.9h47.4c.8,2.2,3,3.8,5.5,3.8s5.9-2.6,5.9-5.9-2.6-5.9-5.9-5.9-4.7,1.6-5.5,3.8h-13.9v-15.9Z"/>
                <path class="cls-12" d="M-14.4-385c1.2,0,2.1-.9,2.1-2.1v-7h0v-19.3c2.2-.8,3.8-3,3.8-5.5s-2.6-5.9-5.9-5.9-5.9,2.6-5.9,5.9,1.6,4.7,3.8,5.5v19.3h0v4.9h-19.3v-4.9h0v-40.1c2.2-.8,3.8-3,3.8-5.5s-2.6-5.9-5.9-5.9-5.9,2.6-5.9,5.9,1.6,4.7,3.8,5.5v40.1h0v4.9h-26.6c-.8-2.2-3-3.8-5.5-3.8s-5.9,2.6-5.9,5.9,2.6,5.9,5.9,5.9,4.7-1.6,5.5-3.8h26.6v43.7c-2.2.8-3.8,3-3.8,5.5s2.6,5.9,5.9,5.9,5.9-2.6,5.9-5.9-1.6-4.7-3.8-5.5v-43.7H-14.4Z"/>
                <path class="cls-12" d="M239.9-288c-3.3,0-5.9,2.6-5.9,5.9s2.6,5.9,5.9,5.9,4.7-1.6,5.5-3.8h6.7v20.2c-2.2.8-3.7,2.9-3.8,5.3-.1,3.3,2.4,6,5.7,6.1s6-2.4,6.1-5.7c.1-2.6-1.5-4.9-3.8-5.7v-20.2h58.9c.8,2.2,3,3.8,5.5,3.8s5.9-2.6,5.9-5.9-2.6-5.9-5.9-5.9-4.7,1.6-5.5,3.8h-69.8c-.8-2.2-3-3.8-5.5-3.8Z"/>
                <path class="cls-12" d="M-6-350.6c2.5,0,4.7-1.6,5.5-3.8h40v56.1c-2.2.8-3.8,3-3.8,5.5s2.6,5.9,5.9,5.9,5.9-2.6,5.9-5.9-1.6-4.7-3.8-5.5v-21.9h32v36c-2.2.8-3.8,3-3.8,5.5s2.6,5.9,5.9,5.9,5.9-2.6,5.9-5.9-1.6-4.7-3.8-5.5v-57c2.2-.8,3.8-3,3.8-5.5s-2.6-5.9-5.9-5.9-5.9,2.6-5.9,5.9,1.6,4.7,3.8,5.5v16.9h-32v-69.7h0v-1.2c2.2-.8,3.8-3,3.8-5.5s-2.6-5.9-5.9-5.9-5.9,2.6-5.9,5.9,1.6,4.7,3.8,5.5v1.2h0v35.5H-.5c-.8-2.2-3-3.8-5.5-3.8s-5.9,2.6-5.9,5.9c-.1,3.1,2.6,5.8,5.9,5.8Z"/>
                <path class="cls-12" d="M-111-221.9c.8,2.2,3,3.8,5.5,3.8s5.9-2.6,5.9-5.9-2.6-5.9-5.9-5.9-4.7,1.6-5.5,3.8h-5.8v-32.8c2.2-.8,3.8-3,3.8-5.5s-2.6-5.9-5.9-5.9-5.9,2.6-5.9,5.9,1.6,4.7,3.8,5.5v32.8h-25.3v-21.2c2.2-.8,3.8-3,3.8-5.5s-2.6-5.9-5.9-5.9-5.9,2.6-5.9,5.9,1.6,4.7,3.8,5.5v21.2h-15.8v4.2h55.3Z"/>
                <path class="cls-12" d="M-166.3-175.7v4c.2-.6.3-1.3.3-2s-.1-1.4-.3-2Z"/>
                <path class="cls-12" d="M-147.7,20.6c3.3,0,5.9-2.6,5.9-5.9s-2.6-5.9-5.9-5.9-4.7,1.6-5.5,3.8h-13.1v4.2h13.1c.8,2.2,2.9,3.8,5.5,3.8Z"/>
                <path class="cls-12" d="M-160.5-12.2c3.3,0,5.9-2.6,5.9-5.9s-2.6-5.9-5.9-5.9-4.7,1.6-5.5,3.8h-.3v4.1h.3c.9,2.3,3,3.9,5.5,3.9Z"/>
                <path class="cls-12" d="M-161-89.6h34.6v40.2c-2.2.8-3.8,3-3.8,5.5s2.6,5.9,5.9,5.9,5.9-2.6,5.9-5.9-1.6-4.7-3.8-5.5v-40.2h9.2c.8,2.2,3,3.8,5.5,3.8s5.9-2.6,5.9-5.9-2.6-5.9-5.9-5.9-4.7,1.6-5.5,3.8h-28v-58.4c2.2-.8,3.8-3,3.8-5.5s-2.6-5.9-5.9-5.9-5.9,2.6-5.9,5.9,1.6,4.7,3.8,5.5v58.4h-15.8c-.8-2.2-2.9-3.7-5.3-3.8v11.8c2.4,0,4.5-1.6,5.3-3.8Z"/>
                <path class="cls-12" d="M183.4-112.6c1,2,3,3.3,5.3,3.3,3.3,0,5.9-2.6,5.9-5.9s-2.6-5.9-5.9-5.9-5,1.8-5.7,4.3h-85.6c-.8-2.2-3-3.8-5.5-3.8s-5.9,2.6-5.9,5.9,2.6,5.9,5.9,5.9,4.7-1.6,5.5-3.8h6.8V-4c0,1.2.9,2.1,2.1,2.1h65c1.2,0,2.1-.9,2.1-2.1v-19.5h21.9c.8,2.2,3,3.8,5.5,3.8s5.9-2.6,5.9-5.9-2.6-5.9-5.9-5.9-4.7,1.6-5.5,3.8h-21.9v-13.9c2.2-.8,3.8-3,3.8-5.5s-2.6-5.9-5.9-5.9-5.9,2.6-5.9,5.9,1.6,4.7,3.8,5.5v13.9h-23.4c-.8-2.2-3-3.8-5.5-3.8s-5.9,2.6-5.9,5.9,2.6,5.9,5.9,5.9,4.7-1.6,5.5-3.8h23.4V-6.1h-60.9v-70.3h17.9c.8,2.2,3,3.8,5.5,3.8s5.9-2.6,5.9-5.9-2.6-5.9-5.9-5.9-4.7,1.6-5.5,3.8h-17.9v-32h56.2v12.2c-2.2.8-3.8,3-3.8,5.5s2.6,5.9,5.9,5.9,5.9-2.6,5.9-5.9-1.6-4.7-3.8-5.5v-12.2h14.7Z"/>
                <path class="cls-12" d="M230-204.4c2.2-.8,3.8-3,3.8-5.5s-2.6-5.9-5.9-5.9-5.9,2.6-5.9,5.9,1.6,4.7,3.8,5.5v44h-45.1v-20.6h6.8c.8,2.2,3,3.8,5.5,3.8s5.9-2.6,5.9-5.9-2.6-5.9-5.9-5.9-4.7,1.6-5.5,3.8h-35.6c-.8-2.2-3-3.8-5.5-3.8s-5.9,2.6-5.9,5.9,2.6,5.9,5.9,5.9,4.7-1.6,5.5-3.8h24.6v22.7c0,1.2.9,2.1,2.1,2.1h26.7v78.9c-2.2.8-3.8,3-3.8,5.5s2.6,5.9,5.9,5.9,5.9-2.6,5.9-5.9-1.6-4.7-3.8-5.5v-7.8h26.9V18.6c-2.2.8-3.8,3-3.8,5.5s2.6,5.9,5.9,5.9,5.9-2.6,5.9-5.9-1.6-4.7-3.8-5.5V-52.2h31c.8,2.2,3,3.8,5.5,3.8s5.9-2.6,5.9-5.9-2.6-5.9-5.9-5.9-4.7,1.6-5.5,3.8h-31v-28.7h9.6c.8,2.2,3,3.8,5.5,3.8s5.9-2.6,5.9-5.9-2.6-5.9-5.9-5.9-4.7,1.6-5.5,3.8h-40.7v-66.9h33.3c.8,2.2,3,3.8,5.5,3.8s5.9-2.6,5.9-5.9-2.6-5.9-5.9-5.9-4.7,1.6-5.5,3.8h-12.8v-25.3h55.8c.8,2.2,3,3.8,5.5,3.8s5.9-2.6,5.9-5.9-2.6-5.9-5.9-5.9-4.7,1.6-5.5,3.8h-55.8v-14.5Z"/>
                <path class="cls-12" d="M199.6,18.6c2.2-.8,3.8-3,3.8-5.5s-2.6-5.9-5.9-5.9-5.9,2.6-5.9,5.9,1.6,4.7,3.8,5.5v32.6h-21.9c-.8-2.2-3-3.8-5.5-3.8s-5.9,2.6-5.9,5.9,2.6,5.9,5.9,5.9,4.7-1.6,5.5-3.8h21.9v32.6c-2.2.8-3.8,3-3.8,5.5s2.6,5.9,5.9,5.9,5.9-2.6,5.9-5.9-1.6-4.7-3.8-5.5V18.6Z"/>
                <path class="cls-12" d="M322.8-54.5c2.2-.8,3.8-3,3.8-5.5s-2.6-5.9-5.9-5.9-5.9,2.6-5.9,5.9,1.6,4.7,3.8,5.5V-20.2h-34.6c-.8-2.2-3-3.8-5.5-3.8s-5.9,2.6-5.9,5.9,2.6,5.9,5.9,5.9,4.7-1.6,5.5-3.8h34.6v48.7c-2.2.8-3.8,3-3.8,5.5s2.6,5.9,5.9,5.9,5.9-2.6,5.9-5.9-1.6-4.7-3.8-5.5v-15.9h10.9v-4.2h-10.9v-28.6h10.9v-4.2h-10.9v-34.3h0Z"/>
                <path class="cls-12" d="M290.6-226.1v-21.2c2.2-.8,3.8-3,3.8-5.5s-2.6-5.9-5.9-5.9-5.9,2.6-5.9,5.9,1.6,4.7,3.8,5.5v23.3c0,1.2.9,2.1,2.1,2.1h37.5v42.7c-2.2.8-3.8,3-3.8,5.5s2.6,5.9,5.9,5.9,4.7-1.6,5.6-3.9v-4c-.6-1.6-1.9-2.9-3.5-3.5v-42.7h3.5v-4.2h-43.1Z"/>
                <path class="cls-12" d="M107-226.1h-41v-21.3c2.2-.9,3.7-3,3.7-5.5s-2.6-5.9-5.9-5.9-5.9,2.6-5.9,5.9,1.6,4.7,3.9,5.6v21.2h-22.5c-.8-2.2-3-3.8-5.5-3.8s-5.9,2.6-5.9,5.9,2.6,5.9,5.9,5.9,4.7-1.6,5.5-3.8h65.7v20.6c-2.2.8-3.8,3-3.8,5.5s2.6,5.9,5.9,5.9,5.9-2.6,5.9-5.9-1.6-4.7-3.8-5.5v-22.7c0-1.2-1-2.1-2.2-2.1Z"/>
                <path class="cls-12" d="M-49.9-97.2c.9,2.4,3.2,4.2,5.9,4.2s6.2-2.8,6.2-6.2-2.8-6.2-6.2-6.2-5,1.7-5.9,4.2h-19.6c-1.2,0-2.1.9-2.1,2.1V12.6h-16.5c-.8-2.2-3-3.8-5.5-3.8s-5.9,2.6-5.9,5.9,2.6,5.9,5.9,5.9,4.7-1.6,5.5-3.8h18.6c1.2,0,2.1-.9,2.1-2.1v-50.9h24.6c.8,2.2,3,3.8,5.5,3.8s5.9-2.6,5.9-5.9-2.6-5.9-5.9-5.9-4.7,1.6-5.5,3.8h-24.6v-56.9h17.5Z"/>
                <path class="cls-12" d="M201.3-248.6c.8,2.2,3,3.8,5.5,3.8s5.9-2.6,5.9-5.9-2.6-5.9-5.9-5.9-4.7,1.6-5.5,3.8h-54.7c-.8-2.2-3-3.8-5.5-3.8s-5.9,2.6-5.9,5.9,2.6,5.9,5.9,5.9,4.7-1.6,5.5-3.8h21.2v34c-2.2.8-3.8,3-3.8,5.5s2.6,5.9,5.9,5.9,5.9-2.6,5.9-5.9-1.6-4.7-3.8-5.5v-34h29.3Z"/>
                <path class="cls-12" d="M126.9,20.6c-3.3,0-5.9,2.6-5.9,5.9s1.6,4.7,3.8,5.5v5.8h-49.4v-9.2c2.2-.8,3.8-3,3.8-5.5s-2.6-5.9-5.9-5.9-5.9,2.6-5.9,5.9,1.6,4.7,3.8,5.5v49.4c-2.2.8-3.8,3-3.8,5.5s2.6,5.9,5.9,5.9,5.9-2.6,5.9-5.9-1.6-4.7-3.8-5.5v-36h49.5v28.6c-2.2.8-3.8,3-3.8,5.5s2.6,5.9,5.9,5.9,5.9-2.6,5.9-5.9-1.6-4.7-3.8-5.5v-38.6c2.2-.8,3.8-3,3.8-5.5s-2.7-5.9-6-5.9Z"/>
                <path class="cls-12" d="M327.6-91.6c0,3.3,2.6,5.9,5.9,5.9h.2v-11.8h-.2c-3.3,0-5.9,2.6-5.9,5.9Z"/>
                <path class="cls-12" d="M293-127.8v-26.6c2.2-.8,3.8-3,3.8-5.5s-2.6-5.9-5.9-5.9-5.9,2.6-5.9,5.9,1.6,4.7,3.8,5.5v26.6h-19c-.8-2.2-3-3.8-5.5-3.8s-5.9,2.6-5.9,5.9,2.6,5.9,5.9,5.9,4.7-1.6,5.5-3.8h19v24.2c-2.2.8-3.8,3-3.8,5.5s2.6,5.9,5.9,5.9,5.9-2.6,5.9-5.9-1.6-4.7-3.8-5.5v-24.2h19c.8,2.2,3,3.8,5.5,3.8s5.9-2.6,5.9-5.9-2.6-5.9-5.9-5.9-4.7,1.6-5.5,3.8h-19Z"/>
                <path class="cls-12" d="M119.5-171.9c0-3.4-2.8-6.2-6.2-6.2s-6.2,2.8-6.2,6.2,1.6,4.8,3.8,5.8v17.3h-56.6v-15.9c2.4-.9,4.2-3.2,4.2-5.9s-2.8-6.2-6.2-6.2-6.2,2.8-6.2,6.2,1.7,5,4.2,5.9v15.9h-25.8c-.9-2.4-3.2-4.2-5.9-4.2s-6.2,2.8-6.2,6.2,2.8,6.2,6.2,6.2,5-1.7,5.9-4.2h40.3v58.2H-21.1c-.9-2.4-3.2-4.2-5.9-4.2s-6.2,2.8-6.2,6.2,2.8,6.2,6.2,6.2,5-1.7,5.9-4.2H17.9V-30.7H6.1c-.8-2.2-3-3.8-5.5-3.8s-5.9,2.6-5.9,5.9,2.6,5.9,5.9,5.9,4.7-1.6,5.5-3.8h11.8V22.5c-2.2.8-3.8,3-3.8,5.5s2.6,5.9,5.9,5.9,5.9-2.6,5.9-5.9-1.6-4.7-3.8-5.5V-26.5h36.8c.8,2.2,3,3.8,5.5,3.8s5.9-2.6,5.9-5.9-2.6-5.9-5.9-5.9-4.7,1.6-5.5,3.8H22.1v-51.9h42.8v12.5c-2.2.8-3.8,3-3.8,5.5s2.6,5.9,5.9,5.9,5.9-2.6,5.9-5.9-1.6-4.7-3.8-5.5v-74.9h83.7v4.8c-2.2.8-3.8,3-3.8,5.5s2.6,5.9,5.9,5.9,5.9-2.6,5.9-5.9-1.6-4.7-3.8-5.5v-6.9c0-1.2-.9-2.1-2.1-2.1h-39.9v-16.8c2.6-.7,4.5-3.1,4.5-5.9Z"/>
                <path class="cls-10" d="M330.2,277.3c1.6.6,2.9,1.9,3.5,3.5v-46.2h-3.5v42.7Z"/>
                <rect class="cls-10" x="322.8" y="440.5" width="10.9" height="28.7"/>
                <rect class="cls-10" x="75.4" y="498.5" width="49.5" height="20.5"/>
                <path class="cls-12" d="M-137,80.6c3.3,0,5.9-2.6,5.9-5.9s-2.6-5.9-5.9-5.9-4.7,1.6-5.5,3.8h-23.8v4.2h23.8c.8,2.3,3,3.8,5.5,3.8Z"/>
                <path class="cls-12" d="M-81.4,160.8c-2.2.8-3.8,3-3.8,5.5s2.6,5.9,5.9,5.9,5.9-2.6,5.9-5.9-1.6-4.7-3.8-5.5v-32.7c0-1.2-.9-2.1-2.1-2.1h-22.4V56.8c2.2-.8,3.8-3,3.8-5.5s-2.6-5.9-5.9-5.9-5.9,2.6-5.9,5.9,1.6,4.7,3.8,5.5v69.2h-31.3c-.9-2.4-3.2-4.2-5.9-4.2s-6.2,2.8-6.2,6.2,2.8,6.2,6.2,6.2,5-1.7,5.9-4.2h55.8s0,30.8,0,30.8Z"/>
                <path class="cls-12" d="M-67.6,303c-2.2.8-3.8,3-3.8,5.5s2.6,5.9,5.9,5.9,5.9-2.6,5.9-5.9-1.6-4.7-3.8-5.5v-90.1h25.3v9.2c-2.2.8-3.8,3-3.8,5.5s2.6,5.9,5.9,5.9,5.9-2.6,5.9-5.9-1.6-4.7-3.8-5.5v-27.9H1c.8,2.2,3,3.8,5.5,3.8s5.9-2.6,5.9-5.9-2.6-5.9-5.9-5.9-4.7,1.6-5.5,3.8h-35v-18.1c2.2-.8,3.8-3,3.8-5.5s-2.6-5.9-5.9-5.9-5.9,2.6-5.9,5.9,1.6,4.7,3.8,5.5v36.9h-40.2c-.8-2.2-3-3.8-5.5-3.8s-5.9,2.6-5.9,5.9,2.6,5.9,5.9,5.9,4.7-1.6,5.5-3.8h10.7v59.7h-32.3c-.8-2.2-3-3.8-5.5-3.8s-5.9,2.6-5.9,5.9,2.6,5.9,5.9,5.9,4.7-1.6,5.5-3.8h32.3v26.1h0Z"/>
                <path class="cls-12" d="M13.1,268.7c.8,2.2,3,3.8,5.5,3.8s5.9-2.6,5.9-5.9-2.6-5.9-5.9-5.9-4.7,1.6-5.5,3.8h-46.6v48.2c-2.2.8-3.8,3-3.8,5.5s2.6,5.9,5.9,5.9,5.9-2.6,5.9-5.9-1.6-4.7-3.8-5.5v-44H13.1Z"/>
                <path class="cls-12" d="M283.9,62.5v-25.2c2.2-.8,3.8-3,3.8-5.5s-2.6-5.9-5.9-5.9-5.9,2.6-5.9,5.9,1.6,4.7,3.8,5.5v50h-29.9c-.8-2.2-3-3.8-5.5-3.8s-5.9,2.6-5.9,5.9,2.6,5.9,5.9,5.9,4.7-1.6,5.5-3.8h29.9v9.3c0,1.2.9,2.1,2.1,2.1h28.4v32.6c-2.2.8-3.8,3-3.8,5.5s2.6,5.9,5.9,5.9,5.9-2.6,5.9-5.9-1.6-4.7-3.8-5.5v-32.5h4.1c.8,2.2,3,3.8,5.5,3.8s5.9-2.6,5.9-5.9-2.6-5.9-5.9-5.9-4.7,1.6-5.5,3.8h-34.6v-22h49.7v-4.2h-49.7v-10.1Z"/>
                <path class="cls-12" d="M226.4,124.9c2.2-.8,3.8-3,3.8-5.5s-2.6-5.9-5.9-5.9-5.9,2.6-5.9,5.9,1.6,4.7,3.8,5.5v15.9h-61.5v-41.4c2.2-.8,3.8-3,3.8-5.5s-2.6-5.9-5.9-5.9-5.9,2.6-5.9,5.9,1.6,4.7,3.8,5.5v21.2h-34.3c-.8-2.2-3-3.8-5.5-3.8s-5.9,2.6-5.9,5.9,2.6,5.9,5.9,5.9,4.7-1.6,5.5-3.8h34.3v39.3c-2.2.8-3.8,3-3.8,5.5s2.6,5.9,5.9,5.9,5.9-2.6,5.9-5.9-1.6-4.7-3.8-5.5v-19.2h28v29.9c-2.2.8-3.8,3-3.8,5.5s2.6,5.9,5.9,5.9,5.9-2.6,5.9-5.9-1.6-4.7-3.8-5.5v-29.9h47.4c.8,2.2,3,3.8,5.5,3.8s5.9-2.6,5.9-5.9-2.6-5.9-5.9-5.9-4.7,1.6-5.5,3.8h-13.9v-15.8Z"/>
                <path class="cls-12" d="M-14.4,71.6c1.2,0,2.1-.9,2.1-2.1v-26.3c2.2-.8,3.8-3,3.8-5.5s-2.6-5.9-5.9-5.9-5.9,2.6-5.9,5.9,1.6,4.7,3.8,5.5v24.2h-19.3V22.4c2.2-.8,3.8-3,3.8-5.5s-2.6-5.9-5.9-5.9-5.9,2.6-5.9,5.9,1.6,4.7,3.8,5.5v45h-26.6c-.8-2.2-3-3.8-5.5-3.8s-5.9,2.6-5.9,5.9,2.6,5.9,5.9,5.9,4.7-1.6,5.5-3.8h26.6v43.7c-2.2.8-3.8,3-3.8,5.5s2.6,5.9,5.9,5.9,5.9-2.6,5.9-5.9-1.6-4.7-3.8-5.5v-43.7H-14.4Z"/>
                <path class="cls-12" d="M239.9,168.5c-3.3,0-5.9,2.6-5.9,5.9s2.6,5.9,5.9,5.9,4.7-1.6,5.5-3.8h6.7v20.2c-2.2.8-3.7,2.9-3.8,5.3-.1,3.3,2.4,6,5.7,6.1s6-2.4,6.1-5.7c.1-2.6-1.5-4.9-3.8-5.7v-20.2h58.9c.8,2.2,3,3.8,5.5,3.8s5.9-2.6,5.9-5.9-2.6-5.9-5.9-5.9-4.7,1.6-5.5,3.8h-69.8c-.8-2.2-3-3.8-5.5-3.8Z"/>
                <path class="cls-12" d="M39.5,158.2c-2.2.8-3.8,3-3.8,5.5s2.6,5.9,5.9,5.9,5.9-2.6,5.9-5.9-1.6-4.7-3.8-5.5v-21.9h32v36c-2.2.8-3.8,3-3.8,5.5s2.6,5.9,5.9,5.9,5.9-2.6,5.9-5.9-1.6-4.7-3.8-5.5v-57c2.2-.8,3.8-3,3.8-5.5s-2.6-5.9-5.9-5.9-5.9,2.6-5.9,5.9,1.6,4.7,3.8,5.5v16.9h-32V61.3c2.2-.8,3.8-3,3.8-5.5s-2.6-5.9-5.9-5.9-5.9,2.6-5.9,5.9,1.6,4.7,3.8,5.5v36.7H-.5c-.8-2.2-3-3.8-5.5-3.8s-5.9,2.6-5.9,5.9,2.6,5.9,5.9,5.9,4.7-1.6,5.5-3.8h40v56Z"/>
                <path class="cls-12" d="M-111,234.6c.8,2.2,3,3.8,5.5,3.8s5.9-2.6,5.9-5.9-2.6-5.9-5.9-5.9-4.7,1.6-5.5,3.8h-5.8v-32.8c2.2-.8,3.8-3,3.8-5.5s-2.6-5.9-5.9-5.9-5.9,2.6-5.9,5.9,1.6,4.7,3.8,5.5v32.8h-25.3v-21.2c2.2-.8,3.8-3,3.8-5.5s-2.6-5.9-5.9-5.9-5.9,2.6-5.9,5.9,1.6,4.7,3.8,5.5v21.2h-15.8v4.2h55.3Z"/>
                <path class="cls-12" d="M-166.3,280.9v4c.2-.6.3-1.3.3-2s-.1-1.4-.3-2Z"/>
                <path class="cls-12" d="M-97.9,507.9c0-3.3-2.6-5.9-5.9-5.9s-5.9,2.6-5.9,5.9,1.6,4.7,3.8,5.5v5.7h4.2v-5.7c2.2-.9,3.8-3,3.8-5.5Z"/>
                <path class="cls-12" d="M-147.7,477.2c3.3,0,5.9-2.6,5.9-5.9s-2.6-5.9-5.9-5.9-4.7,1.6-5.5,3.8h-13.1v4.2h13.1c.8,2.2,2.9,3.8,5.5,3.8Z"/>
                <path class="cls-12" d="M-160.5,444.3c3.3,0,5.9-2.6,5.9-5.9s-2.6-5.9-5.9-5.9-4.7,1.6-5.5,3.8h-.3v4.1h.3c.9,2.3,3,3.9,5.5,3.9Z"/>
                <path class="cls-12" d="M-161,367h34.6v40.2c-2.2.8-3.8,3-3.8,5.5s2.6,5.9,5.9,5.9,5.9-2.6,5.9-5.9-1.6-4.7-3.8-5.5v-40.2h9.2c.8,2.2,3,3.8,5.5,3.8s5.9-2.6,5.9-5.9-2.6-5.9-5.9-5.9-4.7,1.6-5.5,3.8h-28v-58.4c2.2-.8,3.8-3,3.8-5.5s-2.6-5.9-5.9-5.9-5.9,2.6-5.9,5.9,1.6,4.7,3.8,5.5v58.4h-15.8c-.8-2.2-2.9-3.7-5.3-3.8v11.8c2.4,0,4.5-1.6,5.3-3.8Z"/>
                <path class="cls-12" d="M230,252.2c2.2-.8,3.8-3,3.8-5.5s-2.6-5.9-5.9-5.9-5.9,2.6-5.9,5.9,1.6,4.7,3.8,5.5v44h-45.1v-20.6h6.8c.8,2.2,3,3.8,5.5,3.8s5.9-2.6,5.9-5.9-2.6-5.9-5.9-5.9-4.7,1.6-5.5,3.8h-35.6c-.8-2.2-3-3.8-5.5-3.8s-5.9,2.6-5.9,5.9,2.6,5.9,5.9,5.9,4.7-1.6,5.5-3.8h24.6v22.7c0,1.2.9,2.1,2.1,2.1h26.7v78.9c-2.2.8-3.8,3-3.8,5.5s2.6,5.9,5.9,5.9,5.9-2.6,5.9-5.9-1.6-4.7-3.8-5.5v-7.8h26.9v103.7c-2.2.8-3.8,3-3.8,5.5s2.6,5.9,5.9,5.9,5.9-2.6,5.9-5.9-1.6-4.7-3.8-5.5v-70.8h31c.8,2.2,3,3.8,5.5,3.8s5.9-2.6,5.9-5.9-2.6-5.9-5.9-5.9-4.7,1.6-5.5,3.8h-31v-28.7h9.6c.8,2.2,3,3.8,5.5,3.8s5.9-2.6,5.9-5.9-2.6-5.9-5.9-5.9-4.7,1.6-5.5,3.8h-40.7v-66.9h33.3c.8,2.2,3,3.8,5.5,3.8s5.9-2.6,5.9-5.9-2.6-5.9-5.9-5.9-4.7,1.6-5.5,3.8h-12.8v-25.3h55.8c.8,2.2,3,3.8,5.5,3.8s5.9-2.6,5.9-5.9-2.6-5.9-5.9-5.9-4.7,1.6-5.5,3.8h-55.8v-14.5Z"/>
                <path class="cls-12" d="M152.7,311.9v4.8c-2.2.8-3.8,3-3.8,5.5s2.6,5.9,5.9,5.9,5.9-2.6,5.9-5.9-1.6-4.7-3.8-5.5v-6.9c0-1.2-.9-2.1-2.1-2.1h-39.8v-17.1c2.6-.8,4.5-3.2,4.5-6s-2.8-6.2-6.2-6.2-6.2,2.8-6.2,6.2,1.6,4.8,3.8,5.8v17.3h-56.6v-15.9c2.4-.9,4.2-3.2,4.2-5.9s-2.8-6.2-6.2-6.2-6.2,2.8-6.2,6.2,1.7,5,4.2,5.9v15.9h-25.8c-.9-2.4-3.2-4.2-5.9-4.2s-6.2,2.8-6.2,6.2,2.8,6.2,6.2,6.2,5-1.7,5.9-4.2h40.3v58.3H-21.1c-.9-2.4-3.2-4.2-5.9-4.2s-6.2,2.8-6.2,6.2,2.8,6.2,6.2,6.2,5-1.7,5.9-4.2H17.9v51.9H6.1c-.8-2.2-3-3.8-5.5-3.8s-5.9,2.6-5.9,5.9,2.6,5.9,5.9,5.9,4.7-1.6,5.5-3.8h11.8v49c-2.2.8-3.8,3-3.8,5.5s2.6,5.9,5.9,5.9,5.9-2.6,5.9-5.9-1.6-4.7-3.8-5.5v-49h36.8c.8,2.2,3,3.8,5.5,3.8s5.9-2.6,5.9-5.9-2.6-5.9-5.9-5.9-4.7,1.6-5.5,3.8H22.1v-51.9h42.8v12.5c-2.2.8-3.8,3-3.8,5.5s2.6,5.9,5.9,5.9,5.9-2.6,5.9-5.9-1.6-4.7-3.8-5.5v-74.9h83.6v.3Z"/>
                <path class="cls-12" d="M199.6,475.2c2.2-.8,3.8-3,3.8-5.5s-2.6-5.9-5.9-5.9-5.9,2.6-5.9,5.9,1.6,4.7,3.8,5.5v32.6h-21.9c-.8-2.2-3-3.8-5.5-3.8s-5.9,2.6-5.9,5.9,2.6,5.9,5.9,5.9,4.7-1.6,5.5-3.8h21.9v7.1h4.2v-43.9h0Z"/>
                <path class="cls-12" d="M129,488.6c2.2-.8,3.8-3,3.8-5.5s-2.6-5.9-5.9-5.9-5.9,2.6-5.9,5.9,1.6,4.7,3.8,5.5v5.8h-49.4v-9.2c2.2-.8,3.8-3,3.8-5.5s-2.6-5.9-5.9-5.9-5.9,2.6-5.9,5.9,1.6,4.7,3.8,5.5v33.8h4.2v-20.5h49.5v20.5h4.2v-30.4h-.1Z"/>
                <path class="cls-12" d="M322.8,402c2.2-.8,3.8-3,3.8-5.5s-2.6-5.9-5.9-5.9-5.9,2.6-5.9,5.9,1.6,4.7,3.8,5.5v34.3h-34.6c-.8-2.2-3-3.8-5.5-3.8s-5.9,2.6-5.9,5.9,2.6,5.9,5.9,5.9,4.7-1.6,5.5-3.8h34.6v48.7c-2.2.8-3.8,3-3.8,5.5s2.6,5.9,5.9,5.9,5.9-2.6,5.9-5.9-1.6-4.7-3.8-5.5v-15.9h10.9v-4.2h-10.9v-28.7h10.9v-4.1h-10.9v-34.3h0Z"/>
                <path class="cls-12" d="M290.6,230.5v-21.2c2.2-.8,3.8-3,3.8-5.5s-2.6-5.9-5.9-5.9-5.9,2.6-5.9,5.9,1.6,4.7,3.8,5.5v23.3c0,1.2.9,2.1,2.1,2.1h37.5v42.7c-2.2.8-3.8,3-3.8,5.5s2.6,5.9,5.9,5.9,4.7-1.6,5.6-3.9v-4c-.6-1.6-1.9-2.9-3.5-3.5v-42.7h3.5v-4.2h-43.1Z"/>
                <path class="cls-12" d="M107,230.5h-41v-21.3c2.2-.9,3.7-3,3.7-5.5s-2.6-5.9-5.9-5.9-5.9,2.6-5.9,5.9,1.6,4.7,3.9,5.6v21.2h-22.5c-.8-2.2-3-3.8-5.5-3.8s-5.9,2.6-5.9,5.9,2.6,5.9,5.9,5.9,4.7-1.6,5.5-3.8h65.7v20.6c-2.2.8-3.8,3-3.8,5.5s2.6,5.9,5.9,5.9,5.9-2.6,5.9-5.9-1.6-4.7-3.8-5.5v-22.6c0-1.3-1-2.2-2.2-2.2Z"/>
                <path class="cls-12" d="M201.3,208c.8,2.2,3,3.8,5.5,3.8s5.9-2.6,5.9-5.9-2.6-5.9-5.9-5.9-4.7,1.6-5.5,3.8h-54.7c-.8-2.2-3-3.8-5.5-3.8s-5.9,2.6-5.9,5.9,2.6,5.9,5.9,5.9,4.7-1.6,5.5-3.8h21.2v34c-2.2.8-3.8,3-3.8,5.5s2.6,5.9,5.9,5.9,5.9-2.6,5.9-5.9-1.6-4.7-3.8-5.5v-34h29.3Z"/>
                <path class="cls-12" d="M200.9,425.1c-2.5,0-4.7,1.6-5.5,3.8h-21.9v-13.9c2.2-.8,3.8-3,3.8-5.5s-2.6-5.9-5.9-5.9-5.9,2.6-5.9,5.9,1.6,4.7,3.8,5.5v13.9h-23.4c-.8-2.2-3-3.8-5.5-3.8s-5.9,2.6-5.9,5.9,2.6,5.9,5.9,5.9,4.7-1.6,5.5-3.8h23.4v17.4h-60.9v-70.3h17.9c.8,2.2,3,3.8,5.5,3.8s5.9-2.6,5.9-5.9-2.6-5.9-5.9-5.9-4.7,1.6-5.5,3.8h-17.9v-32h56.2v12.2c-2.2.8-3.8,3-3.8,5.5s2.6,5.9,5.9,5.9,5.9-2.6,5.9-5.9-1.6-4.7-3.8-5.5v-12.2h14.6c1,2,3,3.3,5.3,3.3,3.3,0,5.9-2.6,5.9-5.9s-2.6-5.9-5.9-5.9-5,1.8-5.7,4.3h-85.6c-.8-2.2-3-3.8-5.5-3.8s-5.9,2.6-5.9,5.9,2.6,5.9,5.9,5.9,4.7-1.6,5.5-3.8h6.8v108.6c0,1.2.9,2.1,2.1,2.1h65c1.2,0,2.1-.9,2.1-2.1v-19.5h21.9c.8,2.2,3,3.8,5.5,3.8s5.9-2.6,5.9-5.9c.1-3.2-2.6-5.9-5.8-5.9Z"/>
                <path class="cls-12" d="M-37.3,412.4c-2.5,0-4.7,1.6-5.5,3.8h-24.6v-56.9h17.5c.9,2.4,3.2,4.2,5.9,4.2s6.2-2.8,6.2-6.2-2.8-6.2-6.2-6.2-5,1.7-5.9,4.2h-19.6c-1.2,0-2.1.9-2.1,2.1v111.9h-16.5c-.8-2.2-3-3.8-5.5-3.8s-5.9,2.6-5.9,5.9,2.6,5.9,5.9,5.9,4.7-1.6,5.5-3.8h18.6c1.2,0,2.1-.9,2.1-2.1v-50.9h24.6c.8,2.2,3,3.8,5.5,3.8s5.9-2.6,5.9-5.9c0-3.4-2.7-6-5.9-6Z"/>
                <path class="cls-12" d="M-32,473.4c0-3.3-2.6-5.9-5.9-5.9s-5.9,2.6-5.9,5.9,1.6,4.7,3.8,5.5v40.1h4.2v-40.1c2.2-.8,3.8-2.9,3.8-5.5Z"/>
                <path class="cls-12" d="M-8.5,494.2c0-3.3-2.6-5.9-5.9-5.9s-5.9,2.6-5.9,5.9,1.6,4.7,3.8,5.5v19.3h4.2v-19.3c2.2-.8,3.8-3,3.8-5.5Z"/>
                <path class="cls-12" d="M287.8,488.4c0-3.3-2.6-5.9-5.9-5.9s-5.9,2.6-5.9,5.9,1.6,4.7,3.8,5.5v25.1h4.2v-25.1c2.2-.8,3.8-3,3.8-5.5Z"/>
                <path class="cls-12" d="M327.6,364.9c0,3.3,2.6,5.9,5.9,5.9h.2v-11.8h-.2c-3.3,0-5.9,2.7-5.9,5.9Z"/>
                <path class="cls-12" d="M293,328.8v-26.6c2.2-.8,3.8-3,3.8-5.5s-2.6-5.9-5.9-5.9-5.9,2.6-5.9,5.9,1.6,4.7,3.8,5.5v26.6h-19c-.8-2.2-3-3.8-5.5-3.8s-5.9,2.6-5.9,5.9,2.6,5.9,5.9,5.9,4.7-1.6,5.5-3.8h19v24.2c-2.2.8-3.8,3-3.8,5.5s2.6,5.9,5.9,5.9,5.9-2.6,5.9-5.9-1.6-4.7-3.8-5.5v-24.2h19c.8,2.2,3,3.8,5.5,3.8s5.9-2.6,5.9-5.9-2.6-5.9-5.9-5.9-4.7,1.6-5.5,3.8h-19Z"/>
                <path class="cls-12" d="M47.5,512.3c0-3.3-2.6-5.9-5.9-5.9s-5.9,2.6-5.9,5.9,1.6,4.7,3.8,5.5v1.2h4.2v-1.2c2.2-.8,3.8-3,3.8-5.5Z"/>
              </g>
            </g>
          </g>
          <path class="cls-6" d="M173,33.5l144.2,83.2v166.6l-144.2,83.2L28.8,283.3V116.7L173,33.5M173,0L-.2,100v200l173.2,100,173.2-100V100L173,0Z"/>
          <path class="cls-3" d="M173,0L-.2,100v200l173.2,100,173.2-100V100L173,0Z"/>
          <path class="cls-4" d="M173,15l160.2,92.5v185l-160.2,92.5L12.8,292.5V107.5L173,15M173,0L-.2,100v200l173.2,100,173.2-100V100L173,0Z"/>
          <path class="cls-5" d="M173,12.7l162.2,93.6v187.3l-162.2,93.7L10.8,293.6V106.4L173,12.7M173,0L-.2,100v200l173.2,100,173.2-100V100L173,0Z"/>
          <g class="cls-7">
            <path class="cls-11" d="M63.6,141.7c-4,0-8.1,2.6-8.1,5.2s3.6,6.5,7.3,4.7c6.3-3,7.2-3.3,7.2-5.9s-2.3-4-6.4-4ZM75.4,130.2c-5.4,0-10.1,3.4-10.1,6.6s4.6,7.3,9.8,5.8c4.3-1.2,6.1-3,9.8-5.8,2.5-2-4-6.6-9.5-6.6ZM91.8,136.1c-2.2,0-4.7.2-5,2.2-.2,2.6,2,1.8,5,1.8s6,1.3,6-.5-3.6-3.4-6-3.5ZM260.4,148.8c-5.2-.4-10.6,2.7-11,6.3-.3,3.6,3.9,9.4,8.8,7.4,8.3-3.4,9.5-3.7,9.8-7.4.3-3.6-2.5-5.8-7.6-6.3h0Z"/>
            <path class="cls-11" d="M276.7,134.3c-6.9-.6-13.2,3.5-13.6,8s5,10.6,11.7,9.1c5.6-1.2,8.1-3.4,13.1-7,3.4-2.4-4.4-9.5-11.2-10.1ZM296.7,144.3c-2.8-.3-6-.3-6.5,2.4-.7,3.6,2.2,2.7,6,3,3.8.4,7.4,2.6,7.7,0,.2-2.6-4.2-5-7.2-5.4Z"/>
            <path class="cls-11" d="M202.3,199c-5.1-.5-10.5,2.7-10.8,6.3s3.9,9.3,8.7,7.3c8.3-3.4,9.5-3.8,9.8-7.4s-2.5-5.8-7.7-6.2h0ZM218.6,184.3c-6.9-.6-13.2,3.6-13.6,8-.3,4.5,5,10.7,11.8,9.1,5.6-1.2,8-3.4,13-7,3.5-2.5-4.4-9.6-11.2-10.1ZM238.7,194.2c-2.9-.3-6-.3-6.5,2.4-.7,3.6,2.2,2.8,6,3,3.8.4,7.4,2.6,7.6,0s-4.1-5-7.1-5.4Z"/>
          </g>
          <g class="cls-7">
            <path class="cls-9" d="M170.4,152.1c-5.6,0-8.9-1.2-10.6-4-1.6-2.5-1.6-5.8-1.5-10.1v-12.3h-9.8c-.7,0-1.5,0-2.2-.3-3.9-1.3-4.4-5.4-4.4-9.2v-9.3c.1-2.3,1.1-5,5.9-5s6.1,2.2,6.1,6.8v2.4h4.4v-44.7c0-4.1,5.7-9.4,12-9.4h4.2c6.7,0,12.1,5.4,12.1,12.1v20.1h4v-6.2c0-6.3,3.2-9.7,9-9.7s9.1,3.4,9.1,9.7l-.4,16.1c0,6.3-3.5,8.6-6.4,9.4h-.2c-1,.3-2,.4-3.2.4h-11.9v32.6c.1,3,.2,5.9-2,8-1.8,1.9-5,2.7-10,2.7h-4.2Z"/>
            <path class="cls-9" d="M0,0"/>
          </g>
          <g class="cls-7">
            <path class="cls-2" d="M199.8,103.4c-1.4,0-5.2,1-7.7-1v-11.8h-7v-21.6c0-6-5.2-9.9-8.3-10.2-.4,3.2,0,87.4,0,89s-1.5,1.9-1.8,1.8c-7.4.5-9-.3-13.5-3-1-1.3-.7-23.6-.7-23.6-.9-.2-3-.3-4.4-.3h-4l-7,.2c0,1.4,4.4,1.3,6,1.3h8.3v13.2c0,8.5-.3,13.3,10.7,13.3h4c11.8,0,10.7-4.8,10.7-10.7v-32.7h13.4c1,0,2,0,2.8-.3h.2c3.5-1,5.3-3.7,5.3-8l.3-17.4c0-4.3-4.9-7.6-5.4-6-1.8,5.7,1.4,27.7-1.9,27.9h0Z"/>
          </g>
          <g class="cls-7">
            <path class="cls-8" d="M146.5,102.8h-1.2v18.4h14.2v-1.2h-13v-17.2Z"/>
            <path class="cls-8" d="M150.2,116.4v-13.8h-1.2v15h10.6v-1.2h-9.4ZM196.1,73.8h1.2v22.8h-1.2v-22.8ZM202.4,74.4h1.2v28.4h-1.2v-28.4Z"/>
            <path class="cls-8" d="M185,101.7h18.4v1.2h-18.4v-1.2ZM185,95.4h11.7v1.2h-11.7v-1.2Z"/>
            <path class="cls-8" d="M171.9,56.9h1.5v95.8h-1.5V56.9ZM164.1,56.9h1.5v95.8h-1.5V56.9ZM179.1,56.9h1.5v95.8h-1.5V56.9Z"/>
          </g>
        </g>
      </g>
    </g>
  </g>
</svg>